<?xml version="1.0" encoding="UTF-8" standalone="no"?>
<!-- Created with Inkscape (http://www.inkscape.org/) -->

<svg
   version="1.1"
   id="svg2"
   width="293.69397"
   height="340.49048"
   viewBox="0 0 293.69397 340.49048"
   sodipodi:docname="leiden.svg"
   inkscape:version="1.2.2 (b0a8486541, 2022-12-01)"
   xmlns:inkscape="http://www.inkscape.org/namespaces/inkscape"
   xmlns:sodipodi="http://sodipodi.sourceforge.net/DTD/sodipodi-0.dtd"
   xmlns="http://www.w3.org/2000/svg"
   xmlns:svg="http://www.w3.org/2000/svg">
  <defs
     id="defs6" />
  <sodipodi:namedview
     id="namedview4"
     pagecolor="#ffffff"
     bordercolor="#666666"
     borderopacity="1.0"
     inkscape:showpageshadow="2"
     inkscape:pageopacity="0.0"
     inkscape:pagecheckerboard="0"
     inkscape:deskcolor="#d1d1d1"
     showgrid="false"
     inkscape:zoom="0.69311777"
     inkscape:cx="147.16114"
     inkscape:cy="170.24524"
     inkscape:window-width="1918"
     inkscape:window-height="1041"
     inkscape:window-x="0"
     inkscape:window-y="38"
     inkscape:window-maximized="1"
     inkscape:current-layer="g10">
    <inkscape:page
       x="0"
       y="0"
       id="page8"
       width="293.69397"
       height="340.49048" />
  </sodipodi:namedview>
  <g
     id="g10"
     inkscape:groupmode="layer"
     inkscape:label="Page 1"
     transform="matrix(1.3333333,0,0,1.3333333,0,9.8455953e-6)">
    <g
       id="g12">
      <g
         id="g14">
        <path
           d="m 108.648,3.855 h 2.911 c 16.429,0.286 32.714,4.977 46.836,13.36 16.718,9.812 30.41,24.344 40.167,41.019 24.383,41.719 24.508,96.43 0.36,138.27 -8.969,15.527 -21.309,29.226 -36.356,39.062 -15.062,9.95 -32.918,15.645 -50.988,15.95 h -2.863 C 96.184,251.258 83.707,248.547 72.246,243.469 50.152,233.77 32.18,215.969 20.512,195.012 9.441,175.34 3.816,152.824 3.328,130.309 v -4.813 C 3.688,106.762 7.547,88.047 15.211,70.918 24.18,50.762 38.398,32.711 56.816,20.398 72.051,10.094 90.234,4.172 108.648,3.855 Z M 98.637,6.168 C 80.68,8.41 63.609,16.184 49.676,27.652 34.41,40.105 22.754,56.684 15.238,74.836 1.473,108.27 1.477,147.125 15.246,180.555 c 6.75,16.281 16.801,31.285 29.84,43.191 15.598,14.414 35.828,24.059 57.09,25.82 20.847,1.918 42.14,-3.793 59.543,-15.336 14.25,-9.316 26.054,-22.16 34.785,-36.73 12.16,-20.246 18.469,-43.82 18.824,-67.387 C 215.879,101.367 207.551,72.254 190.59,48.906 179.742,33.957 165.297,21.426 148.402,13.793 132.949,6.707 115.504,4.023 98.637,6.168 Z"
           style="fill:#014189;fill-opacity:1;fill-rule:nonzero;stroke:#014189;stroke-width:0.0600271;stroke-linecap:butt;stroke-linejoin:miter;stroke-miterlimit:10.43;stroke-dasharray:none;stroke-opacity:1"
           id="path16" />
      </g>
      <g
         id="g18">
        <path
           d="m 107.926,10.047 c 2.554,-2.043 6.074,-1.801 9.058,-1.055 0.086,1.188 0.164,2.371 0.153,3.563 -1.016,-0.817 -1.305,-2.36 -2.586,-2.852 -1.742,-0.789 -4.074,-0.226 -4.981,1.535 -0.992,1.926 -0.961,4.387 0.075,6.289 0.832,1.512 2.953,2.547 4.554,1.676 0.387,-1.086 0.188,-2.25 0.16,-3.375 -0.675,-0.125 -1.355,-0.254 -2.031,-0.375 l 0.004,-0.676 c 2.098,0.118 4.258,-0.187 6.293,0.438 -0.359,0.191 -1.078,0.574 -1.437,0.765 -0.071,1.282 -0.063,2.571 -0.016,3.852 -3.051,0.738 -6.637,1.055 -9.277,-0.996 -2.793,-2.059 -2.7,-6.727 0.031,-8.789 z"
           style="fill:#014189;fill-opacity:1;fill-rule:nonzero;stroke:#014189;stroke-width:0.0600271;stroke-linecap:butt;stroke-linejoin:miter;stroke-miterlimit:10.43;stroke-dasharray:none;stroke-opacity:1"
           id="path20" />
      </g>
      <g
         id="g22">
        <path
           d="M 97.359,10.016 C 98.961,8.98 101,9.137 102.82,8.832 c -0.504,0.598 -1.3,0.992 -1.613,1.727 -0.191,2.976 1.566,6.191 -0.105,8.961 -1.719,2.105 -5.305,2.757 -7.555,1.164 -2.242,-2.379 -1.344,-6.043 -2.692,-8.813 -0.632,-0.172 -1.273,-0.328 -1.91,-0.469 2.047,-1.05 4.438,-1.043 6.68,-1.355 -0.547,0.512 -1.184,0.922 -1.676,1.5 0.035,1.871 0.43,3.723 0.84,5.547 0.285,1.195 0.879,2.539 2.152,2.949 1.618,0.547 3.516,-0.598 3.676,-2.328 0.195,-2.238 -0.273,-4.496 -0.918,-6.633 -0.172,-1.094 -1.64,-0.656 -2.34,-1.066 z"
           style="fill:#014189;fill-opacity:1;fill-rule:nonzero;stroke:#014189;stroke-width:0.0600271;stroke-linecap:butt;stroke-linejoin:miter;stroke-miterlimit:10.43;stroke-dasharray:none;stroke-opacity:1"
           id="path24" />
      </g>
      <g
         id="g26">
        <path
           d="m 122.82,9.43 c 3.336,0.722 6.953,0.941 9.91,2.785 3.153,2.058 2.325,7.18 -0.757,8.883 -2.215,1.281 -4.895,0.855 -7.266,0.312 -1.484,-0.387 -3.102,-0.484 -4.43,-1.316 0.774,-0.344 2.153,0.043 2.34,-1.063 0.672,-2.32 1.125,-4.703 1.61,-7.066 0.48,-1.156 -0.844,-1.746 -1.407,-2.535 z m 4.371,1.906 c -0.621,2.785 -1.421,5.543 -1.808,8.375 -0.106,1.379 1.816,1.324 2.765,1.262 3.008,-0.485 4.059,-4.223 3.508,-6.828 -0.492,-1.985 -2.683,-2.622 -4.465,-2.809 z"
           style="fill:#014189;fill-opacity:1;fill-rule:nonzero;stroke:#014189;stroke-width:0.0600271;stroke-linecap:butt;stroke-linejoin:miter;stroke-miterlimit:10.43;stroke-dasharray:none;stroke-opacity:1"
           id="path28" />
      </g>
      <g
         id="g30">
        <path
           d="m 76.777,15.254 c 2.153,-0.738 4.282,-2.031 6.602,-2.004 -0.539,0.52 -1.203,0.922 -1.625,1.551 0.621,2.554 1.543,5.039 2.484,7.492 0.328,1.32 1.86,0.789 2.739,0.406 1.675,-0.469 1.238,-2.492 1.992,-3.711 0.359,1.223 0.562,2.485 0.719,3.754 -3.172,1 -6.254,2.293 -9.485,3.09 0.5,-0.613 1.106,-1.133 1.57,-1.777 -0.566,-2.539 -1.55,-4.965 -2.414,-7.418 -0.246,-1.239 -1.664,-1.039 -2.582,-1.383 z"
           style="fill:#014189;fill-opacity:1;fill-rule:nonzero;stroke:#014189;stroke-width:0.0600271;stroke-linecap:butt;stroke-linejoin:miter;stroke-miterlimit:10.43;stroke-dasharray:none;stroke-opacity:1"
           id="path32" />
      </g>
      <g
         id="g34">
        <path
           d="m 138.977,13.371 c 2.117,0.793 4.277,1.559 6.211,2.754 -0.708,0.074 -1.411,0.168 -2.114,0.285 -0.871,1.164 -1.312,2.582 -1.89,3.906 -0.512,1.414 -1.227,3.043 -0.485,4.508 0.875,1.625 3.406,1.938 4.574,0.446 1.344,-1.684 2.102,-3.766 2.766,-5.79 0.516,-1.14 -0.84,-1.847 -1.336,-2.71 1.824,0.527 3.656,1.183 5.203,2.312 -0.691,0.063 -1.379,0.141 -2.058,0.242 -1.996,2.375 -2.075,6.313 -5.18,7.707 -2.641,0.774 -6.234,-0.644 -6.984,-3.445 -0.227,-2.992 1.929,-5.445 2.57,-8.262 -0.379,-0.679 -0.871,-1.289 -1.277,-1.953 z"
           style="fill:#014189;fill-opacity:1;fill-rule:nonzero;stroke:#014189;stroke-width:0.0600271;stroke-linecap:butt;stroke-linejoin:miter;stroke-miterlimit:10.43;stroke-dasharray:none;stroke-opacity:1"
           id="path36" />
      </g>
      <g
         id="g38">
        <path
           d="m 70.172,20.828 c 1.988,-1 4.457,1.039 3.922,3.176 -0.289,2.062 -3.125,2.941 -4.563,1.465 -1.469,-1.231 -1.105,-3.86 0.641,-4.641 z"
           style="fill:#014189;fill-opacity:1;fill-rule:nonzero;stroke:#014189;stroke-width:0.0600271;stroke-linecap:butt;stroke-linejoin:miter;stroke-miterlimit:10.43;stroke-dasharray:none;stroke-opacity:1"
           id="path40" />
      </g>
      <g
         id="g42">
        <path
           d="m 154.277,20.398 c 1.414,0.5 2.633,1.399 3.86,2.247 0.508,3.382 1.015,6.761 1.554,10.136 1.141,-1.746 2.516,-3.394 3.243,-5.367 -0.336,-0.738 -0.758,-1.426 -1.114,-2.148 1.715,0.871 3.285,1.992 4.813,3.156 -0.793,0.027 -1.586,-0.047 -2.367,0.019 -2.219,2.551 -3.891,5.516 -5.813,8.286 -0.262,-0.184 -0.773,-0.543 -1.031,-0.727 -0.5,-3.742 -1.024,-7.484 -1.543,-11.23 -1.242,1.976 -2.738,3.82 -3.664,5.976 0.277,0.766 0.836,1.387 1.25,2.086 -1.844,-0.633 -3.399,-1.855 -4.903,-3.047 0.715,-0.023 1.43,0.043 2.149,0.035 0.992,-0.621 1.527,-1.746 2.219,-2.66 0.988,-1.566 2.285,-3.015 2.668,-4.875 -0.465,-0.609 -0.914,-1.234 -1.321,-1.887 z"
           style="fill:#014189;fill-opacity:1;fill-rule:nonzero;stroke:#014189;stroke-width:0.0600271;stroke-linecap:butt;stroke-linejoin:miter;stroke-miterlimit:10.43;stroke-dasharray:none;stroke-opacity:1"
           id="path44" />
      </g>
      <g
         id="g46">
        <path
           d="m 57.848,25.883 c 0.09,-0.281 0.269,-0.844 0.359,-1.121 2.969,1.828 5.836,3.808 8.805,5.636 0.957,0.68 2.148,0.223 3.234,0.309 -1.641,1.383 -3.422,2.59 -5.262,3.699 0.2,-0.59 0.403,-1.176 0.629,-1.75 -0.722,-0.504 -1.449,-1.004 -2.183,-1.496 -0.961,0.684 -1.93,1.356 -2.895,2.028 0.266,0.804 0.492,1.624 0.836,2.41 0.363,-0.059 1.106,-0.18 1.473,-0.239 l 0.269,0.453 c -1.355,0.961 -2.699,1.95 -4.172,2.723 0.309,-0.988 1.071,-1.918 0.821,-3.012 -0.516,-3.23 -1.399,-6.402 -1.914,-9.64 z m 1.402,2.457 c 0.316,1.281 0.633,2.558 0.949,3.836 0.774,-0.528 1.547,-1.059 2.324,-1.586 -1.082,-0.77 -2.175,-1.508 -3.273,-2.25 z"
           style="fill:#014189;fill-opacity:1;fill-rule:nonzero;stroke:#014189;stroke-width:0.0600271;stroke-linecap:butt;stroke-linejoin:miter;stroke-miterlimit:10.43;stroke-dasharray:none;stroke-opacity:1"
           id="path48" />
      </g>
      <g
         id="g50">
        <path
           d="m 78.078,33.473 c 7.832,-5.903 17.856,-7.801 27.445,-8.352 10.672,-0.5 21.934,0.551 31.336,6.043 8.606,4.953 14.442,14.52 14.508,24.492 0,12.903 -0.004,25.801 0.008,38.699 -0.875,0.29 -1.988,0.415 -2.406,1.368 -0.699,1.027 -0.059,2.179 0.308,3.195 0.301,-0.934 0.356,-2.059 1.133,-2.758 0.699,-0.742 1.789,-0.722 2.727,-0.906 0.152,0.863 0.597,1.781 0.23,2.648 -0.336,0.637 -0.937,1.082 -1.418,1.598 1.196,2.621 4.426,4.113 7.133,2.934 1.762,-0.75 3.469,-2.93 2.422,-4.844 -0.777,0.726 -1.449,1.898 -2.672,1.82 -1.504,0.067 -2.785,-1.453 -2.434,-2.922 0.235,-1.445 1.938,-2.367 3.286,-1.785 1.015,0.356 1.347,1.477 1.878,2.301 0.297,-0.453 0.59,-0.91 0.887,-1.371 -1.062,-0.649 -2.414,-1.524 -2.082,-2.988 0.184,-2.266 3.621,-2.864 4.571,-0.805 0.886,1.566 -0.368,3.187 -1.829,3.742 0.301,0.484 0.614,0.961 0.93,1.438 0.52,-0.883 0.875,-2.122 2.012,-2.379 1.488,-0.524 3.215,0.754 3.148,2.332 0.028,1.398 -1.293,2.586 -2.676,2.433 -1.156,-0.07 -1.765,-1.176 -2.519,-1.886 -0.984,2.039 0.758,4.277 2.644,4.98 2.657,1.039 5.793,-0.406 6.922,-2.98 -1.066,-0.805 -0.8,-2.266 -0.008,-3.149 0.692,-0.859 1.887,-0.91 2.848,-1.266 -0.82,-0.273 -1.644,-0.527 -2.469,-0.761 0.043,-11.824 0.016,-23.649 0.012,-35.473 10.09,13.606 16.824,29.598 19.891,46.234 4.066,21.836 2.129,44.797 -5.797,65.559 -3.055,-0.008 -6.106,0.035 -9.16,-0.012 0.847,1.059 1.902,2.403 1.297,3.844 -0.524,1.16 -2.051,0.957 -3.094,1.07 -9.61,0.032 -19.215,0.028 -28.824,0.004 -1.161,-0.066 -2.895,0.043 -3.336,-1.34 -0.473,-1.41 0.574,-2.621 1.382,-3.636 -5.726,0.078 -11.449,0 -17.175,0.043 2.629,-4.032 3.718,-8.789 4.617,-13.449 1.984,-10.68 1.703,-21.59 1.891,-32.403 0.058,-3.015 -0.129,-6.023 -0.184,-9.039 0.922,-1.344 0.695,-3.078 -0.227,-4.367 -1.621,-2.117 -3.613,-4.328 -3.621,-7.156 -0.207,-3.723 -1.289,-7.328 -2.472,-10.836 0.828,-0.231 2.234,0.066 2.507,-1.039 0.313,-1.286 -0.582,-2.426 -1.246,-3.434 -1.625,-2.152 -2.886,-4.633 -3.386,-7.297 -0.586,-5.91 1.289,-12.332 -1.711,-17.812 -1.422,-2.762 -4.653,-3.379 -7.059,-4.934 -0.945,2.629 -3.941,3.504 -6.465,3.629 -2.363,0.066 -5.011,-0.254 -6.801,-1.945 -0.742,-0.617 -0.695,-1.641 -0.835,-2.504 -1.551,0.258 -3.122,0.465 -4.653,0.824 -1.605,0.371 -2.847,1.68 -3.422,3.187 -1.09,2.719 -2.183,5.438 -3.109,8.219 -2.137,-2.394 -4.441,-4.652 -6.879,-6.73 -1.027,-0.125 -2.035,0.289 -3.035,0.457 3.961,3.402 7.801,7.062 10.711,11.43 -4.535,-2 -9.567,-2.407 -14.457,-2.051 -0.598,0.824 -1.188,1.648 -1.781,2.476 4.359,-0.328 8.839,-0.586 13.097,0.578 1.403,0.325 2.496,1.278 3.578,2.161 0.778,0.722 2.321,0.308 2.36,-0.844 0.672,-2.731 2.519,-4.977 4.492,-6.899 2.973,-2.816 6.523,-4.964 10.297,-6.519 1.398,4.324 2.773,8.656 4.183,12.976 1.004,0.164 2.012,0.336 3.008,0.539 -0.672,-0.96 -1.281,-1.964 -1.746,-3.039 1.512,-0.25 3.414,-0.187 4.262,-1.726 1.199,-2.086 -0.028,-4.453 -0.758,-6.469 0.184,-0.043 0.551,-0.129 0.734,-0.172 0.735,2.074 1.864,4.262 1.254,6.516 -0.398,1.398 -1.816,2.125 -2.492,3.359 -0.351,1.094 0.461,2.012 1.242,2.653 0.024,0.906 0.035,1.812 0.051,2.726 -3.473,-1.07 -7.125,-1.277 -10.73,-1.488 0.339,-0.301 1.023,-0.906 1.363,-1.211 -0.953,0.035 -1.906,0.094 -2.86,0.144 1.403,-0.976 2.836,-1.957 3.817,-3.398 -0.348,-0.461 -0.692,-0.914 -1.027,-1.371 -1.485,0.59 -2.942,1.258 -4.508,1.598 0.894,-1.473 2.097,-2.75 2.742,-4.372 -2.684,0.641 -4.125,3.481 -6.777,4.325 0,-1.297 0.175,-2.727 -0.973,-3.633 -0.59,2.086 -1.512,4.055 -2.106,6.137 -2.023,1.664 -4.785,2.48 -7.386,2.031 -1.582,-0.953 -3.442,-2.262 -5.36,-1.363 -1.925,1.183 -2.742,3.511 -3.129,5.628 -0.41,2.614 -0.332,5.329 0.286,7.907 0.421,1.418 1.293,3.078 2.91,3.34 1.258,0.105 2.324,-0.747 3.109,-1.629 2.039,-2.207 3.336,-4.977 4.238,-7.813 4.11,-1.043 6.93,-5.055 11.395,-4.98 -1.883,1.847 -4.512,2.875 -6.141,4.98 -1.449,3.563 -3.789,6.75 -4.757,10.496 -0.657,1.59 1.496,2.664 0.882,4.231 -1.398,6.195 -2.269,12.488 -3.047,18.785 -0.054,0.879 -0.14,2.058 0.719,2.601 3.078,1.29 6.563,0.18 9.649,1.454 -0.207,1.57 -0.11,3.304 -1.106,4.644 -0.297,-1.043 -0.504,-2.117 -0.656,-3.191 -2.172,-0.395 -4.402,-0.422 -6.598,-0.426 -0.136,0.144 -0.41,0.437 -0.551,0.582 -0.488,2.141 -0.269,4.371 -0.558,6.539 -0.61,4.367 -0.402,8.789 -0.66,13.188 -0.371,6.597 -0.649,13.207 -0.899,19.812 -3.804,0 -7.683,0.039 -11.383,-0.98 -0.964,-0.329 -2.375,-0.739 -2.351,-2 1.168,-2.204 3.516,-3.34 5.598,-4.504 2.554,-2.473 3.73,-5.977 4.671,-9.317 0.559,-2.379 1.497,-4.719 1.395,-7.199 -1.117,0.418 -1.895,1.332 -2.387,2.387 -1.222,2.312 -2.312,5.121 -4.902,6.199 -1.465,0.531 -2.461,-1.199 -2.461,-2.445 -0.086,-2.446 1.277,-5.348 3.84,-5.942 0.5,0.465 1.008,0.926 1.515,1.387 3.508,-5.199 5.922,-11.231 6.231,-17.539 -0.031,-1.559 0.074,-3.633 -1.524,-4.504 -1.113,0.391 -1.367,1.762 -2.296,2.418 -0.59,-0.617 -0.704,-1.465 -0.504,-2.266 0.738,-4.297 2.207,-8.422 3.636,-12.523 0.747,-2.227 1.864,-4.344 2.34,-6.652 -0.402,-0.649 -1.082,-1.129 -1.297,-1.872 0.821,-4.64 3.571,-8.605 5.09,-12.992 -1.668,1.016 -2.293,2.981 -3.246,4.578 -4.758,9.387 -7.531,19.653 -9.48,29.957 -0.356,2.286 -1.09,4.918 0.289,7.004 0.761,0.981 1.925,0.086 2.832,-0.148 -1.461,5.105 -5.645,8.742 -7.571,13.625 -1.39,3.433 -2.726,7.648 -0.675,11.09 0.613,1.168 1.429,2.508 0.879,3.867 -1.153,2.918 -4.778,3.902 -5.86,6.867 -0.597,1.34 0.106,2.832 1.125,3.738 1.449,1.297 3.207,2.176 4.824,3.231 -2.597,0.004 -5.187,0.027 -7.785,-0.02 0.856,1.075 1.891,2.426 1.305,3.887 -0.543,1.203 -2.129,0.965 -3.203,1.082 -9.602,0.004 -19.207,-0.008 -28.805,-0.027 -1.086,-0.071 -2.566,0.078 -3.164,-1.059 -0.652,-1.437 0.41,-2.793 1.25,-3.859 -2.723,0.054 -5.449,0.027 -8.176,0.039 C 25.336,153 22.934,133.629 24.934,114.738 27.02,94.586 34.273,74.859 46.492,58.625 c 0.016,12.02 -0.027,24.039 0.02,36.055 -1.071,-0.102 -2.114,0.09 -3.114,0.461 1.137,0.398 2.582,0.574 3.188,1.785 0.719,1.019 -0.063,2.179 -0.024,3.273 1.45,2.637 5.313,3.531 7.708,1.664 1.246,-0.949 2.328,-2.773 1.41,-4.293 -0.719,0.68 -1.293,1.766 -2.41,1.836 -1.407,0.199 -2.786,-1.031 -2.731,-2.453 -0.035,-1.57 1.688,-2.836 3.168,-2.297 1.133,0.27 1.484,1.508 1.996,2.391 0.313,-0.485 0.621,-0.969 0.922,-1.461 -0.762,-0.52 -1.813,-0.934 -2.016,-1.957 -0.472,-1.516 0.875,-3.188 2.453,-3.07 1.485,0.015 2.672,1.562 2.278,3.003 -0.184,1.055 -1.274,1.497 -2.035,2.079 0.281,0.464 0.566,0.933 0.859,1.402 0.539,-0.836 0.879,-2 1.922,-2.344 1.504,-0.629 3.352,0.625 3.305,2.254 0.07,1.508 -1.481,2.75 -2.934,2.422 -0.992,-0.184 -1.527,-1.164 -2.234,-1.766 -1.035,1.961 0.722,4.161 2.531,4.883 2.691,1.11 5.863,-0.383 7.039,-2.972 -1.449,-0.946 -1.938,-2.641 -1.199,-4.215 0.918,0.215 2.004,0.215 2.687,0.968 0.731,0.715 0.797,1.817 1.184,2.719 0.277,-1.027 0.898,-2.199 0.215,-3.203 C 70.195,94.73 68.945,94.641 67.965,94.418 67.965,81.023 68,67.633 67.941,54.242 67.688,46.215 71.637,38.25 78.078,33.473 Z m 25.629,-3.75 c 0.316,0.64 1.961,1.949 0.484,2.164 -1.703,-0.938 -3.257,-2.321 -5.273,-2.528 -1.895,-0.265 -4.242,0.422 -5.063,2.305 -0.441,1.043 0.629,1.758 1.165,2.488 -0.645,1.145 -1.407,2.395 -1.114,3.77 0.453,2.703 4.481,4.066 6.262,1.82 1.316,-1.543 0.574,-3.73 1.176,-5.496 0.523,-1.152 3.242,-1.215 3.16,0.219 -0.887,1.18 -2.117,2.105 -2.723,3.488 -0.804,1.609 -0.75,3.449 -1.164,5.16 -0.613,1.785 -2.808,2.305 -3.605,3.965 -0.657,1.676 1.14,2.852 1.648,4.281 -0.551,1.637 -2.117,2.621 -3.168,3.918 3.215,0.508 6.488,0.086 9.696,-0.316 -0.235,-0.223 -0.696,-0.668 -0.926,-0.891 -2.02,0.082 -4.039,0.203 -6.059,0.168 1.485,-1.258 2.942,-3.187 2.094,-5.226 -0.25,-0.992 -1.453,-2.332 -0.25,-3.137 2.039,-1.113 4.508,-0.809 6.629,-0.086 -1.367,0.168 -2.852,0.004 -4.094,0.699 -0.016,0.282 -0.043,0.856 -0.059,1.141 1.383,-0.301 2.774,-0.59 4.196,-0.645 -0.438,0.254 -0.875,0.504 -1.309,0.754 -0.09,0.301 -0.258,0.907 -0.336,1.207 -0.586,-0.113 -1.015,-0.468 -1.277,-1.058 -0.227,0.051 -0.688,0.152 -0.918,0.203 0.773,2.344 1.109,5.047 3.023,6.801 1.114,1.035 2.735,0.656 4.114,0.816 -0.903,0.629 -1.954,0.938 -3.036,1.066 0.055,0.188 0.157,0.563 0.204,0.75 -0.649,0.114 -1.289,0.239 -1.934,0.364 0.473,3.238 4.258,4.242 7.047,3.91 2.078,-0.207 4.789,-1.324 4.894,-3.754 -0.691,-1.566 -1.707,-3.016 -1.953,-4.758 3.082,-0.324 6.27,-0.344 9.192,-1.476 -1.59,-1.114 -3.895,-1.075 -5.086,-2.735 -0.703,-1.508 0.043,-3.351 -0.785,-4.84 -0.59,-1.144 -1.891,-1.554 -2.95,-2.121 0.071,-2.476 -1.406,-4.441 -2.875,-6.261 2.567,0.136 2.993,3.46 5.414,3.859 1.711,0.355 3.801,0.492 5.153,-0.836 1.543,-1.391 1.707,-3.676 1.207,-5.566 -0.711,-2.27 -3.977,-2.664 -5.703,-1.395 -0.547,1.164 -0.539,2.848 -1.914,3.402 -1.485,0.723 -2.922,-0.425 -4.129,-1.175 1.312,-0.922 3.105,-2.004 2.793,-3.891 -0.008,-1.977 -2.461,-3.152 -4.133,-2.309 -1.207,0.426 -1.406,1.848 -1.981,2.829 -1.703,-0.622 -0.652,-3.227 -2.429,-3.7 -1.657,-0.781 -4.145,0.719 -3.305,2.653 z M 30.496,95.148 c 0.82,0.305 1.731,0.45 2.465,0.954 0.91,0.695 1.023,1.925 1.426,2.914 0.386,-1.18 0.929,-2.664 -0.141,-3.664 -0.992,-1.145 -2.539,-0.664 -3.75,-0.204 z m 48.883,0.047 c 0.824,0.325 1.754,0.481 2.476,1.028 0.84,0.66 0.915,1.816 1.258,2.754 0.516,-1.09 1,-2.512 0.004,-3.493 -0.933,-1.211 -2.543,-0.808 -3.738,-0.289 z m 57.422,-0.078 c -1.266,0.93 -0.848,2.594 -0.41,3.84 0.464,-1.035 0.617,-2.398 1.687,-3.047 0.707,-0.359 1.496,-0.519 2.25,-0.765 -1.121,-0.403 -2.504,-0.973 -3.527,-0.028 z m 48.672,0.18 c -1.082,1.004 -0.571,2.504 -0.172,3.691 0.316,-0.8 0.457,-1.691 0.937,-2.422 0.68,-0.964 1.953,-1.05 2.973,-1.429 -1.199,-0.442 -2.738,-0.977 -3.738,0.16 z m -149.575,1.75 c 1.059,0.437 2.473,0.551 3.082,1.676 0.34,0.707 0.504,1.484 0.747,2.23 0.476,-1.203 0.996,-2.758 -0.165,-3.758 -1,-1.07 -2.488,-0.55 -3.664,-0.148 z M 74,97.09 c 0.945,0.379 2.102,0.484 2.816,1.297 0.629,0.699 0.672,1.703 0.95,2.562 0.515,-1.09 1.039,-2.504 0.074,-3.523 C 76.895,96.129 75.238,96.641 74,97.09 Z m 67.914,0.222 c -1.07,1.012 -0.566,2.493 0.012,3.606 0.258,-0.887 0.304,-1.902 0.972,-2.598 0.704,-0.777 1.825,-0.875 2.754,-1.238 -1.199,-0.461 -2.773,-0.941 -3.738,0.23 z m 38.031,0.067 c -0.953,1.031 -0.359,2.398 0.067,3.519 0.336,-1.023 0.422,-2.285 1.383,-2.957 0.73,-0.476 1.609,-0.609 2.414,-0.918 -1.247,-0.503 -2.926,-0.941 -3.864,0.356 z M 68.25,100.102 c 0.441,1.316 0.938,2.832 2.301,3.468 1.402,0.75 3.011,0.293 4.457,-0.058 -1.352,-0.063 -2.856,0.222 -4.047,-0.578 -1.195,-0.774 -1.574,-2.219 -2.07,-3.461 -0.161,0.156 -0.485,0.468 -0.641,0.629 z m 82.477,-0.637 c -0.434,1.203 -0.793,2.558 -1.899,3.332 -1.183,0.894 -2.754,0.598 -4.129,0.687 1.43,0.344 3.024,0.778 4.41,0.043 1.379,-0.632 1.887,-2.164 2.301,-3.504 -0.172,-0.14 -0.512,-0.418 -0.683,-0.558 z m -73.032,8.906 c -13.918,-0.012 -27.832,0 -41.746,-0.008 -0.008,9.164 0.004,18.321 -0.008,27.485 0,2.265 0.098,4.55 0.664,6.757 1.633,6.75 6.84,12.481 13.383,14.797 4.641,1.743 9.758,1.5 14.453,0.121 -5.527,2.817 -12.195,3.266 -17.992,0.981 0.004,3.492 0,6.98 0.004,10.476 7.168,0 14.332,0.004 21.5,0 0.008,-4.421 -0.019,-8.835 0.012,-13.257 4.676,-2.797 8.262,-7.391 9.676,-12.664 0.98,-3.442 0.769,-7.051 0.789,-10.59 -0.016,-8.781 0.031,-17.567 -0.035,-26.348 -0.125,-2.031 0.421,-3.992 1.179,-5.855 -2.062,2.175 -1.961,5.312 -1.879,8.105 z m 62.977,-8.156 c 0.578,1.57 1.195,3.172 1.148,4.879 0.035,9.32 0,18.644 0.016,27.965 3.43,0 6.867,0 10.301,0 0,-1.907 0,-3.817 0.004,-5.719 -1.071,0.23 -2.137,0.449 -3.196,0.695 0.008,0.418 0.028,1.246 0.039,1.664 -0.336,-0.441 -0.672,-0.887 -1.007,-1.324 -0.102,0.375 -0.305,1.117 -0.407,1.488 -0.074,-0.375 -0.234,-1.133 -0.316,-1.511 -0.262,0.164 -0.789,0.488 -1.055,0.652 0.16,-0.789 0.309,-1.574 0.442,-2.363 0.539,0.226 1.082,0.457 1.617,0.691 0.758,-0.457 1.519,-0.906 2.289,-1.348 -0.383,-0.257 -0.774,-0.5 -1.152,-0.754 1.136,-0.554 1.91,-1.558 2.726,-2.484 0.02,-0.375 0.055,-1.129 0.07,-1.504 -0.535,-0.254 -1.078,-0.508 -1.617,-0.754 -1.183,1.297 -2.855,2.172 -3.66,3.789 -0.316,-0.136 -0.633,-0.269 -0.949,-0.402 -0.324,0.344 -0.645,0.684 -0.965,1.023 0.043,-0.378 0.121,-1.136 0.16,-1.515 -0.293,0.172 -0.879,0.523 -1.168,0.699 0.184,-0.699 0.242,-1.426 0.246,-2.144 0.696,0.16 1.383,0.378 2.043,0.667 0.852,-0.941 1.727,-1.863 2.629,-2.761 -0.59,-0.106 -1.18,-0.215 -1.765,-0.324 0.707,-0.262 1.41,-0.524 2.121,-0.793 -1.907,-1.344 -3.336,-3.403 -5.653,-4.075 0.352,-0.078 1.071,-0.23 1.43,-0.308 -0.313,-0.27 -0.938,-0.805 -1.246,-1.074 l 1.246,0.21 c -0.156,-0.246 -0.469,-0.722 -0.625,-0.968 0.551,0.101 1.105,0.093 1.656,0 0.129,0.574 0.254,1.156 0.379,1.742 1.766,0.926 3.527,3.625 5.692,2.473 1.402,-0.665 -0.137,-1.766 -0.965,-1.973 0.644,-0.176 1.293,-0.344 1.941,-0.5 -0.711,-0.445 -1.414,-0.906 -2.098,-1.387 0.653,-0.394 1.313,-0.773 1.973,-1.16 1.098,0.191 2.223,0.277 3.328,0.09 -0.406,1.492 -0.906,3.09 -0.054,4.547 -0.434,-0.02 -1.301,-0.055 -1.735,-0.074 0.746,0.96 1.848,1.441 2.969,1.824 -1.016,0.269 -2.055,0.414 -3.094,0.547 1.715,1.129 3.512,2.304 5.68,1.906 -0.145,-2.59 -2.891,-4.117 -2.957,-6.695 0.34,-1.645 2.371,-1.352 3.629,-1.598 1.933,1.008 0.527,3.398 0.73,5.058 -1.488,-0.937 -2.472,-2.429 -2.281,-4.253 -0.594,0.238 -1.457,0.312 -1.387,1.168 0.563,2.296 2.922,3.785 2.957,6.293 0.699,0 1.41,0 2.121,0.003 0,-4.066 0,-8.125 0,-12.187 -6.765,-0.004 -13.531,0.008 -20.293,-0.004 0.055,-2.797 0.207,-5.977 -1.937,-8.117 z m -105.18,1.008 c 0.801,1.086 1.711,2.234 3.086,2.586 1.277,0.433 2.61,0.031 3.863,-0.297 -1.601,-0.039 -3.5,0.211 -4.726,-1.067 -0.695,-0.511 -1.192,-1.601 -2.223,-1.222 z m 147.903,-0.262 c -0.762,0.836 -1.493,1.812 -2.594,2.227 -1.125,0.402 -2.348,0.242 -3.52,0.324 1.262,0.304 2.598,0.672 3.883,0.261 1.254,-0.335 2.102,-1.375 2.93,-2.304 -0.176,-0.129 -0.524,-0.383 -0.699,-0.508 z m -19.672,7.371 c 0.039,4.055 0.007,8.109 0.019,12.168 2.039,0 4.082,0.004 6.129,-0.016 -0.34,-0.261 -1.023,-0.785 -1.363,-1.05 0.687,-0.192 1.371,-0.391 2.058,-0.594 -1.718,-1.391 -3.101,-3.399 -5.328,-3.985 0.223,-0.136 0.653,-0.414 0.871,-0.554 -0.136,-0.231 -0.398,-0.692 -0.531,-0.926 0.586,-0.352 1.184,-0.687 1.777,-1.027 0.25,0.859 0.18,1.98 1.098,2.464 1.215,0.836 2.574,2.434 4.149,1.438 -0.485,-0.344 -0.969,-0.68 -1.461,-1.012 1.164,-0.375 1.496,-1.484 1.656,-2.574 1.152,0.219 2.305,0.449 3.453,0.691 -0.105,1.114 -0.211,2.239 0.02,3.348 -0.332,0 -0.985,-0.004 -1.313,-0.012 0.164,2.321 2.664,2.907 4.219,4.114 0.652,0.605 2.246,0.23 2.07,-0.817 -0.269,-2.191 -2.574,-3.547 -2.816,-5.765 -0.149,-0.914 0.703,-1.645 1.558,-1.672 1.024,-0.184 2.532,-0.696 2.981,0.652 0.316,1.328 -0.246,2.742 -0.133,4.113 -1.555,-0.894 -2.559,-2.441 -2.32,-4.285 -0.75,0.192 -1.813,0.711 -1.282,1.664 0.668,2.035 2.957,3.453 2.688,5.782 -0.211,1.05 -1.445,1.125 -2.242,1.472 0.25,0.481 0.5,0.965 0.754,1.449 -0.168,0.27 -0.512,0.801 -0.68,1.071 0.508,0.629 1.223,0.941 2.019,1.09 -0.269,2.214 -2.105,3.558 -3.855,4.644 0.16,0.215 0.477,0.652 0.633,0.867 -0.133,0.254 -0.274,0.5 -0.422,0.746 -0.188,-0.257 -0.555,-0.781 -0.738,-1.043 l -0.649,0.801 c -0.074,-0.234 -0.234,-0.699 -0.312,-0.929 -0.215,0.277 -0.645,0.835 -0.864,1.113 0.082,-0.352 0.246,-1.051 0.329,-1.406 -0.368,0.183 -1.094,0.546 -1.454,0.73 0.5,-1.613 2.231,-1.504 3.532,-2.023 0.675,-0.551 0.472,-1.543 0.652,-2.305 -0.645,0.277 -1.285,0.547 -1.926,0.828 0.524,-1.555 0.324,-3.191 0.293,-4.797 -0.758,1.074 -1.668,2.024 -2.676,2.867 0.262,0.125 0.782,0.379 1.039,0.512 -0.375,0.316 -0.746,0.637 -1.121,0.957 0,2.004 -0.019,4.004 0,6.004 3.387,0 6.782,0 10.176,0 0,-8.27 0,-16.539 0,-24.813 -6.898,0.012 -13.789,-0.019 -20.687,0.02 z m 11.328,6.289 c 0.137,-0.164 0.41,-0.492 0.547,-0.656 -0.887,0.137 -1.719,-0.168 -2.532,-0.485 0.539,0.575 1.27,0.856 1.985,1.141 z m -2.219,1.106 c 0.699,0.085 1.406,0.183 2.106,0.285 -0.379,-0.305 -0.762,-0.602 -1.145,-0.899 -0.324,0.207 -0.645,0.41 -0.961,0.614 z m -15.977,5.617 c 1.403,1.707 2.758,3.449 4.161,5.16 0.398,0.676 1.211,0.699 1.89,0.875 0.028,-2.016 0.016,-4.024 0.016,-6.035 -2.02,-0.004 -4.047,-0.004 -6.067,0 z m 6.883,-0.004 c -0.019,0.551 -0.058,1.66 -0.078,2.215 1.91,0.629 3.965,0.207 5.938,0.289 -0.664,0.355 -1.36,0.64 -1.973,1.062 -0.145,0.766 -0.156,1.555 -0.203,2.332 0.293,0.004 0.879,0.016 1.172,0.02 -0.008,0.879 -0.016,1.75 -0.008,2.629 0.809,-0.098 1.789,0.121 2.406,-0.563 0.778,-1.035 0.449,-2.426 0.645,-3.621 1.008,0.699 0.449,2.059 0.289,3.047 -0.379,1.457 -2.114,1.598 -3.336,1.812 -0.008,0.852 -0.008,1.704 0,2.559 1.613,-0.004 3.23,-0.004 4.848,-0.004 0,-3.926 0,-7.851 0,-11.773 -3.235,-0.004 -6.469,0 -9.7,-0.004 z m 10.52,0.211 c -0.238,0.781 0.035,1.035 0.816,0.761 0.235,-0.781 -0.039,-1.035 -0.816,-0.761 z m -10.613,2.418 c 0.043,1.09 0.07,2.187 0.089,3.277 0.825,0 1.653,0 2.481,-0.004 -0.043,-0.82 -0.059,-1.644 -0.18,-2.457 -0.758,-0.383 -1.597,-0.547 -2.39,-0.816 z m -10.641,1.152 c -0.004,2.668 0,5.336 0,8.004 1.613,0 3.226,0 4.844,0 -0.004,-0.676 -0.004,-1.352 0,-2.023 -1.618,-1.993 -3.227,-3.997 -4.844,-5.981 z m 5.633,2.902 c 0,0.969 -0.008,1.946 -0.008,2.918 0.976,0 1.949,0 2.922,0 0.078,1.106 -0.219,2.301 0.269,3.332 0.895,0.106 1.825,-0.109 2.696,0.2 0.75,1.289 0.191,2.918 0.386,4.336 1.719,-0.93 2.793,-2.602 3.024,-4.532 -0.918,-0.023 -1.84,0.11 -2.75,0 -0.571,-1.007 -0.231,-2.234 -0.332,-3.339 -1.094,0.007 -2.188,0.011 -3.278,0.015 -0.004,-0.98 -0.004,-1.953 -0.004,-2.933 -0.972,0 -1.953,0 -2.925,0.003 z m 6.238,0 c 0,0.969 -0.004,1.946 0,2.918 0.969,0 1.941,0 2.918,0 -0.004,-0.972 -0.004,-1.945 -0.004,-2.921 -0.977,0 -1.945,0 -2.914,0.003 z m -22.973,5.911 c -0.027,2.386 -0.004,4.781 0.293,7.152 3.832,0.023 7.668,-0.012 11.5,0.023 -1.199,-2.203 -1.601,-4.695 -1.531,-7.179 -3.422,0.004 -6.84,0 -10.262,0.004 z m 11.028,-0.039 c 0.008,2.335 0.215,4.785 1.519,6.8 1.735,2.989 5.039,4.774 8.438,5.02 -0.024,-1.934 0.121,-3.871 -0.063,-5.801 -0.211,-0.109 -0.633,-0.332 -0.844,-0.441 -0.347,0.847 -0.312,2.043 -1.214,2.558 -1.328,0.817 -3.313,0.821 -4.465,-0.308 -0.785,-1.446 -0.239,-3.188 -0.578,-4.743 -0.598,-0.375 -1.246,-0.617 -1.864,-0.933 1.387,-0.035 2.774,-0.043 4.168,-0.043 -0.082,-0.703 -0.156,-1.406 -0.222,-2.109 -1.629,0 -3.254,0 -4.875,0 z m 15.679,0.035 c -0.058,0.59 -0.113,1.183 -0.164,1.777 1.262,1.551 2.5,3.113 3.766,4.656 1.035,-1.98 1.293,-4.222 1.25,-6.425 -1.617,-0.008 -3.234,-0.004 -4.852,-0.008 z m 5.707,0.031 c -0.031,1.512 -0.156,3.027 -0.378,4.527 1.71,-0.117 3.429,-0.117 5.144,-0.054 1.285,0.054 2.535,-0.719 2.918,-1.977 -1.695,0.238 -3.336,0.746 -5.043,0.883 0.059,-0.61 0.152,-1.215 0.277,-1.809 0.411,-0.078 1.239,-0.23 1.649,-0.304 -0.59,0.617 -1.199,1.211 -1.809,1.804 1.852,0.121 3.778,-1.644 5.477,-0.351 -0.692,1.05 -1.707,1.773 -2.856,2.25 0.457,0.804 0.938,1.691 2.016,1.683 -0.172,0.739 -0.449,1.446 -0.637,2.184 -0.394,-0.047 -0.777,-0.086 -1.172,-0.121 0.434,-0.367 0.836,-0.778 1.2,-1.215 -0.926,-0.328 -1.801,-0.777 -2.571,-1.379 -1.004,1.145 -2.066,2.336 -3.566,2.805 0.973,-1.125 2.086,-2.141 2.906,-3.395 -1.68,0.43 -3.285,1.129 -5.004,1.418 -1.945,3.223 -5.387,5.375 -9.148,5.637 0.023,4.055 -0.008,8.105 0.011,12.16 7.735,-0.269 15.18,-4.93 18.493,-11.965 2.019,-3.93 2.304,-8.437 2.203,-12.769 -3.367,-0.012 -6.738,0.007 -10.11,-0.012 z m -15.789,0.266 c 0.18,1.949 1.27,3.64 3,4.558 -0.117,-1.414 0.473,-3.082 -0.367,-4.324 -0.851,-0.273 -1.758,-0.184 -2.633,-0.234 z m -1.14,6.863 c 1.035,2 4.258,0.746 3.883,-1.445 -1.309,-0.918 -2.465,-2.012 -3.391,-3.313 -1.106,1.324 -0.809,3.203 -0.492,4.758 z m 6.433,-1.633 c -0.144,2.102 -0.101,4.215 -0.074,6.32 1.652,-0.238 3.246,-0.726 4.742,-1.453 -1.539,-1.617 -2.492,-4.027 -4.668,-4.867 z m -17.984,10.352 c 1.535,2.046 3.379,3.839 5.476,5.308 0,4.629 -0.015,9.25 -0.019,13.875 7.543,0.008 15.09,0 22.633,0.008 0.004,-3.508 0,-7.012 0.019,-10.516 -5.824,2.34 -12.539,1.86 -18.109,-0.961 2.328,0.571 4.676,1.098 7.082,1.184 0.008,-2.969 0.004,-5.941 0.004,-8.906 -5.699,0.004 -11.395,-0.016 -17.086,0.008 z M 39.434,174.016 c 11.441,0.117 22.89,0.089 34.336,0.011 -0.493,-2.558 -3.137,-4.339 -5.661,-4.226 -7.683,0.011 -15.363,0.011 -23.047,0 -2.496,-0.055 -5.156,1.652 -5.628,4.215 z m 106.281,0.062 c 11.441,0.004 22.894,0.094 34.336,-0.051 -0.571,-2.617 -3.289,-4.394 -5.891,-4.238 -7.84,0.035 -15.68,-0.012 -23.523,0.02 -2.246,0.246 -4.657,1.859 -4.922,4.269 z"
           style="fill:#014189;fill-opacity:1;fill-rule:nonzero;stroke:#014189;stroke-width:0.0600271;stroke-linecap:butt;stroke-linejoin:miter;stroke-miterlimit:10.43;stroke-dasharray:none;stroke-opacity:1"
           id="path52" />
      </g>
      <g
         id="g54">
        <path
           d="m 45.652,36.055 c 1.297,-1.895 3.09,-3.582 5.164,-4.59 -0.328,0.617 -0.668,1.219 -1.011,1.82 1.203,1.77 2.742,3.27 4.156,4.875 0.648,0.672 1.238,1.465 2.117,1.856 0.36,-0.141 1.074,-0.418 1.434,-0.563 0.09,0.106 0.273,0.317 0.363,0.422 -1.727,1.316 -3.027,3.328 -5.148,4.035 0.328,-0.586 0.668,-1.164 1.019,-1.742 -1.656,-2.281 -3.609,-4.352 -5.594,-6.348 -0.707,-0.851 -1.683,0.137 -2.5,0.235 z"
           style="fill:#014189;fill-opacity:1;fill-rule:nonzero;stroke:#014189;stroke-width:0.0600271;stroke-linecap:butt;stroke-linejoin:miter;stroke-miterlimit:10.43;stroke-dasharray:none;stroke-opacity:1"
           id="path56" />
      </g>
      <g
         id="g58">
        <path
           d="m 168.164,32.914 c 3.91,-0.98 8.113,2.477 8.078,6.461 -0.039,2.73 -2.265,5.125 -4.883,5.672 -4.031,0.812 -8.187,-3.059 -7.711,-7.129 0.239,-2.41 2.219,-4.41 4.516,-5.004 z m 2.27,1.68 c -2.426,0.867 -4.379,3.183 -4.739,5.742 -0.336,2.031 1.895,3.875 3.813,3.004 2.34,-1.024 4.246,-3.34 4.562,-5.91 0.289,-1.938 -1.804,-3.602 -3.636,-2.836 z"
           style="fill:#014189;fill-opacity:1;fill-rule:nonzero;stroke:#014189;stroke-width:0.0600271;stroke-linecap:butt;stroke-linejoin:miter;stroke-miterlimit:10.43;stroke-dasharray:none;stroke-opacity:1"
           id="path60" />
      </g>
      <g
         id="g62">
        <path
           d="m 39.516,41.934 c 1.175,-1.176 1.922,-2.934 3.554,-3.551 -0.273,0.664 -0.582,1.324 -0.882,1.984 2.011,1.852 4.191,3.512 6.359,5.16 0.926,0.961 1.973,-0.234 2.93,-0.492 -1.25,2.024 -2.832,3.844 -4.555,5.477 0.168,-0.75 0.39,-1.485 0.637,-2.211 -1.961,-1.957 -4.235,-3.571 -6.368,-5.321 1.438,3.219 3.133,6.325 4.512,9.579 -3.308,-0.45 -6.422,-1.735 -9.648,-2.539 1.883,1.617 3.562,3.511 5.672,4.835 0.777,-0.195 1.527,-0.496 2.289,-0.726 -1.071,1.48 -2.161,2.984 -3.594,4.144 -0.016,-0.859 0.676,-1.925 -0.125,-2.597 -1.887,-1.957 -3.75,-4.004 -5.953,-5.602 -0.739,0.219 -1.387,0.653 -2.082,0.969 0.687,-1.406 1.773,-2.555 2.773,-3.734 2.695,0.691 5.383,1.394 8.074,2.086 -1.195,-2.489 -2.414,-4.969 -3.593,-7.461 z"
           style="fill:#014189;fill-opacity:1;fill-rule:nonzero;stroke:#014189;stroke-width:0.0600271;stroke-linecap:butt;stroke-linejoin:miter;stroke-miterlimit:10.43;stroke-dasharray:none;stroke-opacity:1"
           id="path64" />
      </g>
      <g
         id="g66">
        <path
           d="m 106.664,45.566 c 1.984,-2.183 5.059,-3.543 8,-2.789 1.231,0.305 1.426,1.653 1.52,2.707 -0.883,-0.66 -1.676,-1.711 -2.891,-1.66 -2.352,-0.152 -4.535,0.817 -6.629,1.742 z"
           style="fill:#014189;fill-opacity:1;fill-rule:nonzero;stroke:#014189;stroke-width:0.0600271;stroke-linecap:butt;stroke-linejoin:miter;stroke-miterlimit:10.43;stroke-dasharray:none;stroke-opacity:1"
           id="path68" />
      </g>
      <g
         id="g70">
        <path
           d="m 107.719,47.055 c 1.211,-0.856 2.758,-1.258 4.215,-0.922 -0.442,0.129 -1.325,0.379 -1.766,0.508 -0.168,0.476 -0.34,0.953 -0.52,1.425 -0.64,-0.339 -1.285,-0.675 -1.929,-1.011 z"
           style="fill:#014189;fill-opacity:1;fill-rule:nonzero;stroke:#014189;stroke-width:0.0600271;stroke-linecap:butt;stroke-linejoin:miter;stroke-miterlimit:10.43;stroke-dasharray:none;stroke-opacity:1"
           id="path72" />
      </g>
      <g
         id="g74">
        <path
           d="m 178.285,45.914 c 1.59,-0.867 3.828,0.242 3.992,2.07 0.368,2.157 -2.215,3.996 -4.121,2.887 -2.004,-0.922 -1.859,-4.105 0.129,-4.957 z"
           style="fill:#014189;fill-opacity:1;fill-rule:nonzero;stroke:#014189;stroke-width:0.0600271;stroke-linecap:butt;stroke-linejoin:miter;stroke-miterlimit:10.43;stroke-dasharray:none;stroke-opacity:1"
           id="path76" />
      </g>
      <g
         id="g78">
        <path
           d="m 106.027,51.281 c 0.766,-0.363 1.586,-0.601 2.399,-0.855 0.097,0.152 0.293,0.465 0.39,0.621 -0.925,0.121 -1.859,0.23 -2.789,0.234 z"
           style="fill:#014189;fill-opacity:1;fill-rule:nonzero;stroke:#014189;stroke-width:0.0600271;stroke-linecap:butt;stroke-linejoin:miter;stroke-miterlimit:10.43;stroke-dasharray:none;stroke-opacity:1"
           id="path80" />
      </g>
      <g
         id="g82">
        <path
           d="m 187.297,50.102 c 1.59,1.726 2.723,3.808 4.015,5.757 0.754,1.2 1.438,3.047 0.145,4.141 -1.07,1.117 -2.684,0.402 -3.734,-0.332 0.175,0.894 0.57,1.82 0.3,2.742 -0.425,1.477 -2.25,2.367 -3.675,1.754 -1.383,-0.551 -2.289,-1.805 -3.129,-2.969 -1.106,-1.656 -2.266,-3.277 -3.207,-5.039 0.672,0.285 1.304,0.645 1.988,0.914 0.906,-0.172 1.625,-0.824 2.402,-1.289 1.657,-1.187 3.493,-2.136 5.016,-3.508 -0.02,-0.726 -0.059,-1.449 -0.121,-2.171 z m -1.426,6.496 c 0.774,0.968 1.899,2.445 3.297,1.621 1.707,-0.742 1.043,-2.778 0.074,-3.844 -1.137,0.723 -2.254,1.469 -3.371,2.223 z m -3.996,2.941 c -0.383,0.758 0.266,1.566 0.836,2.016 1.285,0.957 3.285,-0.028 3.598,-1.528 0.117,-1.125 -0.567,-2.101 -1.024,-3.07 -1.164,0.813 -2.504,1.461 -3.41,2.582 z"
           style="fill:#014189;fill-opacity:1;fill-rule:nonzero;stroke:#014189;stroke-width:0.0600271;stroke-linecap:butt;stroke-linejoin:miter;stroke-miterlimit:10.43;stroke-dasharray:none;stroke-opacity:1"
           id="path84" />
      </g>
      <g
         id="g86">
        <path
           d="m 106.266,52.926 c 1.132,-0.274 2.281,-0.477 3.441,-0.586 -0.809,1.133 -2.375,1.863 -3.441,0.586 z"
           style="fill:#014189;fill-opacity:1;fill-rule:nonzero;stroke:#014189;stroke-width:0.0600271;stroke-linecap:butt;stroke-linejoin:miter;stroke-miterlimit:10.43;stroke-dasharray:none;stroke-opacity:1"
           id="path88" />
      </g>
      <g
         id="g90">
        <path
           d="m 29.332,55.195 c 0.984,0.5 1.965,1.012 2.898,1.602 -0.828,0.16 -1.668,0.144 -2.5,0.234 -1.039,0.621 -1.496,1.836 -2.121,2.821 1.133,0.722 2.289,1.418 3.45,2.117 0.461,-0.801 0.945,-1.59 1.308,-2.434 -0.254,-0.625 -0.535,-1.238 -0.832,-1.84 1.406,0.543 2.945,1.145 3.797,2.477 -0.449,-0.051 -1.355,-0.156 -1.809,-0.207 -0.558,0.816 -1.097,1.648 -1.632,2.488 1.269,0.645 2.449,1.824 3.925,1.828 0.84,-0.761 1.438,-1.773 1.778,-2.851 0.031,-1.082 -0.797,-1.992 -0.867,-3.082 0.929,0.703 1.773,1.5 2.617,2.297 -1.364,2.265 -2.75,4.519 -4.094,6.8 -0.402,0.696 -0.883,1.356 -1.52,1.864 0.086,-0.707 0.223,-1.403 0.29,-2.114 -0.809,-0.972 -2.008,-1.488 -3.047,-2.16 -1.52,-0.855 -2.926,-1.945 -4.59,-2.488 -0.672,0.281 -1.289,0.676 -1.949,0.984 1.453,-2.879 3.277,-5.551 4.898,-8.336 z"
           style="fill:#014189;fill-opacity:1;fill-rule:nonzero;stroke:#014189;stroke-width:0.0600271;stroke-linecap:butt;stroke-linejoin:miter;stroke-miterlimit:10.43;stroke-dasharray:none;stroke-opacity:1"
           id="path92" />
      </g>
      <g
         id="g94">
        <path
           d="m 185.086,66.969 c 0.969,0.418 1.852,1.234 2.976,1.148 3.372,-0.101 6.739,-0.379 10.106,-0.523 0.137,0.195 0.398,0.586 0.535,0.781 -2.281,2.609 -4.637,5.148 -6.851,7.816 -0.766,0.766 -0.426,1.918 -0.516,2.871 -1.481,-1.621 -2.223,-3.765 -2.977,-5.792 0.493,0.355 0.985,0.714 1.473,1.082 0.645,-0.637 1.277,-1.274 1.906,-1.918 -0.523,-1.063 -1.047,-2.125 -1.57,-3.18 -0.867,0.129 -1.73,0.258 -2.59,0.402 0.008,0.664 0.02,1.332 0.024,2 -1.129,-1.386 -1.844,-3.047 -2.516,-4.687 z m 6.109,2.07 c 0.422,0.852 0.844,1.703 1.266,2.559 0.898,-0.977 1.797,-1.957 2.687,-2.938 -1.316,0.121 -2.632,0.246 -3.953,0.379 z"
           style="fill:#014189;fill-opacity:1;fill-rule:nonzero;stroke:#014189;stroke-width:0.0600271;stroke-linecap:butt;stroke-linejoin:miter;stroke-miterlimit:10.43;stroke-dasharray:none;stroke-opacity:1"
           id="path96" />
      </g>
      <g
         id="g98">
        <path
           d="m 20.492,71.465 c 1,-1.985 2.981,-3.813 5.36,-3.508 3.328,0.277 5.863,3.688 5.078,6.965 -0.672,2.871 -1.899,5.664 -3.508,8.137 -0.012,-0.5 -0.051,-1.5 -0.067,-1.997 -0.64,-0.867 -1.796,-1.117 -2.707,-1.601 -1.812,-0.719 -3.507,-1.805 -5.433,-2.207 -0.617,0.355 -1.176,0.797 -1.766,1.184 0.813,-2.403 1.91,-4.7 3.043,-6.973 z m -0.355,2.957 c 2.539,1.219 5.082,2.457 7.715,3.461 1.238,0.578 1.761,-1.09 1.918,-1.988 0.527,-3.184 -3.063,-5.215 -5.821,-5.231 -2.094,0 -3.195,2.043 -3.812,3.758 z"
           style="fill:#014189;fill-opacity:1;fill-rule:nonzero;stroke:#014189;stroke-width:0.0600271;stroke-linecap:butt;stroke-linejoin:miter;stroke-miterlimit:10.43;stroke-dasharray:none;stroke-opacity:1"
           id="path100" />
      </g>
      <g
         id="g102">
        <path
           d="m 50.16,69.965 c 1.395,-0.578 2.887,-0.84 4.367,-1.129 0.067,3.105 -0.129,6.219 0.086,9.32 0.481,0.391 0.981,0.758 1.489,1.11 -1.965,0.066 -3.938,0.086 -5.899,-0.032 0.555,-0.336 1.121,-0.656 1.695,-0.976 -0.07,-2.582 0.243,-5.203 -0.16,-7.762 -0.394,-0.129 -1.183,-0.398 -1.578,-0.531 z"
           style="fill:#014189;fill-opacity:1;fill-rule:nonzero;stroke:#014189;stroke-width:0.0600271;stroke-linecap:butt;stroke-linejoin:miter;stroke-miterlimit:10.43;stroke-dasharray:none;stroke-opacity:1"
           id="path104" />
      </g>
      <g
         id="g106">
        <path
           d="m 58.664,69.004 c 1.742,-0.004 3.484,-0.004 5.227,0 -0.106,0.633 -0.215,1.273 -0.321,1.91 -1.406,0 -2.808,0 -4.211,0 -0.113,0.691 -0.23,1.383 -0.343,2.078 1.597,-0.402 3.703,-0.59 4.761,0.965 1.219,1.594 0.184,3.859 -1.441,4.699 -1.543,1.129 -3.484,0.856 -5.117,0.114 0.293,-0.579 0.609,-1.157 0.949,-1.708 0.891,0.528 1.699,1.293 2.766,1.438 1.484,-0.914 1.156,-3.656 -0.485,-4.23 -0.812,-0.188 -1.637,-0.02 -2.453,0.015 0.234,-1.758 0.453,-3.519 0.668,-5.281 z"
           style="fill:#014189;fill-opacity:1;fill-rule:nonzero;stroke:#014189;stroke-width:0.0600271;stroke-linecap:butt;stroke-linejoin:miter;stroke-miterlimit:10.43;stroke-dasharray:none;stroke-opacity:1"
           id="path108" />
      </g>
      <g
         id="g110">
        <path
           d="m 154.922,72.223 c 0.125,-1.067 0.258,-2.133 0.398,-3.2 2.446,0.004 4.891,-0.019 7.336,0.028 -1.586,3.41 -3.133,6.844 -4.617,10.304 -0.851,0.036 -1.703,0.075 -2.551,0.102 1.754,-2.777 3.504,-5.559 5.082,-8.441 -1.953,0.023 -4.191,-0.434 -5.648,1.207 z"
           style="fill:#014189;fill-opacity:1;fill-rule:nonzero;stroke:#014189;stroke-width:0.0600271;stroke-linecap:butt;stroke-linejoin:miter;stroke-miterlimit:10.43;stroke-dasharray:none;stroke-opacity:1"
           id="path112" />
      </g>
      <g
         id="g114">
        <path
           d="m 164.359,69.004 c 1.739,-0.004 3.477,-0.004 5.215,0 -0.105,0.633 -0.219,1.273 -0.324,1.91 -1.398,0 -2.801,0 -4.203,0 -0.113,0.691 -0.231,1.379 -0.344,2.07 1.192,-0.203 2.488,-0.55 3.641,0.043 1.496,0.629 2.121,2.625 1.293,4.016 -1.239,2.148 -4.43,3.234 -6.52,1.641 -0.148,-0.649 0.477,-1.094 0.735,-1.622 1,0.446 2.32,2.122 3.371,0.946 0.609,-1.168 0.422,-2.867 -0.75,-3.613 -0.887,-0.383 -1.875,-0.141 -2.805,-0.118 0.27,-1.75 0.473,-3.515 0.691,-5.273 z"
           style="fill:#014189;fill-opacity:1;fill-rule:nonzero;stroke:#014189;stroke-width:0.0600271;stroke-linecap:butt;stroke-linejoin:miter;stroke-miterlimit:10.43;stroke-dasharray:none;stroke-opacity:1"
           id="path116" />
      </g>
      <g
         id="g118">
        <path
           d="m 198.41,76.281 c 1.176,-0.484 2.402,-0.84 3.629,-1.203 0.09,1.762 0.859,3.367 1.453,4.992 0.68,1.774 1.156,3.664 2.332,5.2 -1.176,0.503 -2.347,1.015 -3.566,1.402 0.457,-1.031 1.933,-1.793 1.492,-3.063 -0.129,-0.605 -0.316,-1.195 -0.484,-1.793 -2.879,1.172 -5.942,1.961 -8.696,3.407 -0.101,0.769 -0.164,1.554 -0.191,2.339 -1.281,-2.058 -1.922,-4.429 -2.66,-6.71 0.836,0.449 1.492,1.82 2.605,1.336 2.696,-0.864 5.305,-1.954 7.969,-2.903 -0.434,-0.777 -0.691,-1.695 -1.34,-2.32 -0.855,-0.235 -1.726,-0.348 -2.543,-0.684 z"
           style="fill:#014189;fill-opacity:1;fill-rule:nonzero;stroke:#014189;stroke-width:0.0600271;stroke-linecap:butt;stroke-linejoin:miter;stroke-miterlimit:10.43;stroke-dasharray:none;stroke-opacity:1"
           id="path120" />
      </g>
      <g
         id="g122">
        <path
           d="m 85.562,84.91 c 0.278,-1.93 0.809,-4.324 2.911,-5.015 -0.434,1.988 -1.578,4.218 -0.301,6.132 1.074,1.641 3.297,1.102 4.926,1.012 -0.883,2.199 -1.946,4.582 -4.024,5.902 -1.066,0.739 -2.527,0.106 -2.953,-1.058 -0.957,-2.18 -0.793,-4.664 -0.559,-6.973 z"
           style="fill:#014189;fill-opacity:1;fill-rule:nonzero;stroke:#014189;stroke-width:0.0600271;stroke-linecap:butt;stroke-linejoin:miter;stroke-miterlimit:10.43;stroke-dasharray:none;stroke-opacity:1"
           id="path124" />
      </g>
      <g
         id="g126">
        <path
           d="m 24.387,86.125 c 1.218,0 1.855,-1.148 2.672,-1.855 -0.457,2.132 -0.793,4.425 -2.082,6.234 -0.059,-0.43 -0.165,-1.289 -0.219,-1.723 -0.906,0.035 -1.813,0.078 -2.719,0.125 -0.34,1.133 -0.687,2.266 -1.027,3.403 0.73,0.48 1.457,0.961 2.203,1.425 0.465,-0.468 0.941,-0.925 1.43,-1.375 -0.329,1.735 -0.852,3.43 -1.508,5.067 -0.407,-1.024 -0.516,-2.254 -1.457,-2.969 -2.492,-2.168 -5.051,-4.254 -7.571,-6.387 0.008,-0.242 0.024,-0.734 0.032,-0.984 3.414,-0.348 6.836,-0.586 10.246,-0.961 z m -7.395,3.195 c 1.047,0.821 2.098,1.633 3.149,2.45 0.277,-0.918 0.554,-1.825 0.828,-2.739 -1.324,0.094 -2.649,0.188 -3.977,0.289 z"
           style="fill:#014189;fill-opacity:1;fill-rule:nonzero;stroke:#014189;stroke-width:0.0600271;stroke-linecap:butt;stroke-linejoin:miter;stroke-miterlimit:10.43;stroke-dasharray:none;stroke-opacity:1"
           id="path128" />
      </g>
      <g
         id="g130">
        <path
           d="m 123.309,90.355 c 2.328,-2.195 7.168,-2.152 8.117,1.379 0.078,1.391 -1.281,1.118 -2.231,1.004 -0.414,-0.883 -0.558,-2.117 -1.609,-2.488 -1.387,-0.566 -2.856,-0.008 -4.277,0.105 z"
           style="fill:#014189;fill-opacity:1;fill-rule:nonzero;stroke:#014189;stroke-width:0.0600271;stroke-linecap:butt;stroke-linejoin:miter;stroke-miterlimit:10.43;stroke-dasharray:none;stroke-opacity:1"
           id="path132" />
      </g>
      <g
         id="g134">
        <path
           d="m 196.293,94.594 c -0.566,-1.676 -1.242,-3.391 -1.191,-5.188 0.683,0.602 1.152,1.594 2.136,1.754 3.321,0.719 6.739,0.926 10.059,1.645 0.215,0.172 0.648,0.523 0.863,0.699 -2.715,2.105 -5.519,4.09 -8.238,6.184 -1,0.671 -1.149,1.933 -1.598,2.957 -0.597,-2.032 -1.308,-4.063 -1.453,-6.188 0.328,0.289 0.981,0.859 1.309,1.145 0.75,-0.407 1.449,-0.914 2.152,-1.399 -0.301,-1.144 -0.594,-2.293 -0.894,-3.445 -0.856,-0.035 -1.711,-0.067 -2.563,-0.086 -0.18,0.64 -0.375,1.285 -0.582,1.922 z m 4.195,-1.828 c 0.235,0.922 0.473,1.847 0.711,2.773 1.082,-0.769 2.168,-1.551 3.25,-2.324 -1.32,-0.156 -2.64,-0.305 -3.961,-0.449 z"
           style="fill:#014189;fill-opacity:1;fill-rule:nonzero;stroke:#014189;stroke-width:0.0600271;stroke-linecap:butt;stroke-linejoin:miter;stroke-miterlimit:10.43;stroke-dasharray:none;stroke-opacity:1"
           id="path136" />
      </g>
      <g
         id="g138">
        <path
           d="m 123.812,93.301 c 0.668,1.574 0.918,3.297 1.672,4.844 0.633,1.453 1.75,2.632 2.379,4.093 0.461,1.809 -1.746,2.383 -2.355,3.813 -0.75,0.375 -1.5,0.746 -2.207,1.191 -1.715,0.227 -3.426,0.438 -5.121,0.758 0.277,-0.742 0.425,-1.555 0.84,-2.242 0.738,-0.446 1.578,-0.719 2.289,-1.219 0.984,-0.746 1.078,-2.062 1.41,-3.156 2.324,-2.071 1.027,-5.414 1.093,-8.082 z"
           style="fill:#014189;fill-opacity:1;fill-rule:nonzero;stroke:#014189;stroke-width:0.0600271;stroke-linecap:butt;stroke-linejoin:miter;stroke-miterlimit:10.43;stroke-dasharray:none;stroke-opacity:1"
           id="path140" />
      </g>
      <g
         id="g142">
        <path
           d="m 11.566,106.465 c -1.73,-2.789 -0.976,-6.277 0.262,-9.102 1.113,0.094 2.234,0.176 3.348,0.289 -0.086,0.164 -0.25,0.485 -0.336,0.649 -1.024,0.312 -2.258,0.562 -2.801,1.609 -1.148,1.856 -0.434,4.543 1.582,5.469 2.598,1.449 7.074,1.144 7.899,-2.25 0.671,-2.164 -1.54,-3.391 -2.36,-5.063 1.223,0.387 2.375,0.957 3.492,1.594 -0.039,2.785 -0.164,5.973 -2.316,8.039 -2.453,2.477 -7.051,1.742 -8.77,-1.234 z"
           style="fill:#014189;fill-opacity:1;fill-rule:nonzero;stroke:#014189;stroke-width:0.0600271;stroke-linecap:butt;stroke-linejoin:miter;stroke-miterlimit:10.43;stroke-dasharray:none;stroke-opacity:1"
           id="path144" />
      </g>
      <g
         id="g146">
        <path
           d="m 97.012,98.16 c 2.593,-0.738 5.453,-0.348 7.66,1.219 0.074,1.219 -0.113,2.57 0.648,3.621 0.907,1.574 2.746,2.102 4.399,2.492 0.336,1.668 1.203,3.149 2.609,4.137 -0.953,0.133 -1.961,0.531 -2.902,0.098 -1.289,-0.403 -1.988,-1.809 -3.348,-2.039 -0.969,-0.258 -1.973,-0.602 -2.625,-1.411 -1.547,-1.703 -1.508,-4.156 -1.515,-6.316 -1.403,-0.77 -2.95,-1.156 -4.532,-1.262 -0.101,-0.137 -0.293,-0.402 -0.394,-0.539 z"
           style="fill:#014189;fill-opacity:1;fill-rule:nonzero;stroke:#014189;stroke-width:0.0600271;stroke-linecap:butt;stroke-linejoin:miter;stroke-miterlimit:10.43;stroke-dasharray:none;stroke-opacity:1"
           id="path148" />
      </g>
      <g
         id="g150">
        <path
           d="m 207.195,101.625 c 1.02,-0.559 1.254,-1.777 1.813,-2.711 0.449,2.156 0.902,4.332 0.906,6.543 -0.414,-0.523 -0.805,-1.055 -1.191,-1.594 -2.18,1.278 -4.289,2.66 -6.43,3.992 2.418,0.477 4.816,1.067 7.266,1.395 0.25,-0.617 0.449,-1.25 0.734,-1.848 0.488,1.731 0.738,3.516 0.91,5.309 -0.848,-0.731 -1.515,-1.762 -2.633,-2.098 -3.191,-1.093 -6.543,-1.648 -9.754,-2.679 -0.043,-0.204 -0.125,-0.61 -0.168,-0.813 2.747,-1.98 5.735,-3.601 8.547,-5.496 z"
           style="fill:#014189;fill-opacity:1;fill-rule:nonzero;stroke:#014189;stroke-width:0.0600271;stroke-linecap:butt;stroke-linejoin:miter;stroke-miterlimit:10.43;stroke-dasharray:none;stroke-opacity:1"
           id="path152" />
      </g>
      <g
         id="g154">
        <path
           d="m 147.246,111.5 c -1.391,-0.188 -1.254,-2.262 -0.094,-2.688 0.078,0.891 0.106,1.79 0.094,2.688 z"
           style="fill:#014189;fill-opacity:1;fill-rule:nonzero;stroke:#014189;stroke-width:0.0600271;stroke-linecap:butt;stroke-linejoin:miter;stroke-miterlimit:10.43;stroke-dasharray:none;stroke-opacity:1"
           id="path156" />
      </g>
      <g
         id="g158">
        <path
           d="m 157.93,109.379 c 0.238,0 0.726,0 0.965,0 0,0.687 0,1.371 0,2.062 -0.239,0 -0.727,0 -0.965,0 -0.004,-0.691 -0.004,-1.379 0,-2.062 z"
           style="fill:#014189;fill-opacity:1;fill-rule:nonzero;stroke:#014189;stroke-width:0.0600271;stroke-linecap:butt;stroke-linejoin:miter;stroke-miterlimit:10.43;stroke-dasharray:none;stroke-opacity:1"
           id="path160" />
      </g>
      <g
         id="g162">
        <path
           d="m 110.707,112.316 c 4.977,-1.367 10.043,-2.875 15.266,-2.515 0.465,0.59 0.949,1.16 1.445,1.73 -0.637,0.535 -1.262,1.086 -1.867,1.653 -0.793,-1.055 -1.781,-2.184 -3.215,-2.184 -1.723,-0.309 -2.887,1.184 -3.715,2.453 -1.238,-0.168 -2.574,-0.515 -3.758,0.082 -1.543,0.703 -2.179,2.5 -2.273,4.09 -0.184,2.844 0.937,5.547 2.176,8.043 -1.121,3.277 -1.973,6.781 -1.348,10.25 0.543,3.629 2.613,6.727 4.207,9.945 2.121,4.723 3.313,9.785 4.996,14.664 -0.109,-5.132 -0.871,-10.3 -2.574,-15.152 -1.582,-3.738 -3.891,-7.324 -4.067,-11.5 -0.339,-4.578 2.52,-8.508 3.2,-12.914 0,-1.098 -0.977,-1.738 -1.711,-2.367 -0.957,1.027 -1.207,2.433 -1.602,3.73 -0.508,-1.777 -1.332,-3.621 -0.949,-5.508 0.293,-1.472 2.215,-1.39 3.234,-0.761 1.551,1.019 2.364,2.82 2.961,4.515 0.637,2.118 -0.801,4.094 -0.843,6.164 0.5,1.145 1.777,1.606 2.75,2.27 -0.817,2.184 -1.618,4.555 -1.075,6.902 0.543,2.391 3.961,3.481 5.77,1.828 0.14,-1.039 0.051,-2.093 0.238,-3.121 0.414,-1.746 1.485,-3.261 1.813,-5.035 0.004,-1.172 -0.368,-2.297 -0.532,-3.449 -0.269,-0.086 -0.812,-0.262 -1.089,-0.348 -0.184,0.637 -0.457,1.239 -0.957,1.696 -0.075,-0.657 -0.126,-1.317 -0.157,-1.973 -0.219,-0.27 -0.664,-0.813 -0.886,-1.082 1.152,0.344 2.3,0.711 3.453,1.062 0.32,-1.472 -0.282,-2.808 -0.977,-4.054 -0.219,-2.403 1.781,-4.465 3.953,-5.203 1.012,1.238 1.078,2.839 0.903,4.359 -0.524,-0.789 -0.774,-2.344 -2.024,-2.176 -0.965,-0.015 -1.578,1.149 -1.144,1.973 1.183,3.445 2.382,6.898 3.273,10.433 0.828,4.34 -1.258,8.426 -2.371,12.5 -1.426,5.43 -2.684,11.075 -2.07,16.711 1.136,-7.218 2.832,-14.371 5.636,-21.136 -0.254,8.328 -1.246,16.668 -3.304,24.746 -0.895,3.562 -2.871,6.761 -5.418,9.375 -7.43,-4.59 -12.746,-12.282 -14.602,-20.797 -1.074,-5.051 -1.262,-10.238 -1.406,-15.383 -0.149,-8.168 -0.488,-16.394 0.66,-24.516 z m 7.535,15.383 c -0.683,0.973 -1.047,2.145 -0.894,3.34 0.218,2.707 -0.297,5.688 1.23,8.109 1.281,2.09 3.684,2.997 5.809,3.981 -0.621,1.34 -1.336,2.715 -1.297,4.234 0.094,1.742 0.871,3.336 1.551,4.914 -0.075,-2.101 -0.461,-4.285 0.242,-6.324 1.07,-2.422 3.219,-4.082 5.015,-5.93 1.411,-1.378 1.692,-3.398 2.188,-5.207 0.394,-1.675 1.066,-3.453 0.418,-5.148 -0.207,-0.535 -0.676,-1.695 -1.336,-0.879 -1.109,2.758 -0.711,5.906 -1.969,8.625 -0.746,1.648 -2.238,2.758 -3.465,4.027 -1.882,-0.984 -4.242,-1.613 -5.324,-3.617 -1.367,-2.762 -0.445,-5.965 -1.289,-8.844 -0.215,-0.464 -0.223,-1.242 -0.879,-1.281 z m 8.379,16.711 c 1.504,2.348 1.067,5.203 0.754,7.813 1.383,-2.797 2.293,-6.278 0.445,-9.098 -0.402,0.426 -0.804,0.852 -1.199,1.285 z"
           style="fill:#014189;fill-opacity:1;fill-rule:nonzero;stroke:#014189;stroke-width:0.0600271;stroke-linecap:butt;stroke-linejoin:miter;stroke-miterlimit:10.43;stroke-dasharray:none;stroke-opacity:1"
           id="path164" />
      </g>
      <g
         id="g166">
        <path
           d="m 172.879,110.617 c 0.441,0.465 0.883,0.934 1.332,1.406 l 0.629,-1.128 0.762,1.093 c -0.836,0.399 -1.766,0.399 -2.668,0.352 -0.016,-0.434 -0.043,-1.293 -0.055,-1.723 z"
           style="fill:#014189;fill-opacity:1;fill-rule:nonzero;stroke:#014189;stroke-width:0.0600271;stroke-linecap:butt;stroke-linejoin:miter;stroke-miterlimit:10.43;stroke-dasharray:none;stroke-opacity:1"
           id="path168" />
      </g>
      <g
         id="g170">
        <path
           d="m 18.289,113.332 c 1.137,-0.312 1.598,-1.496 2.344,-2.293 -0.25,2.106 0.211,4.465 -0.844,6.379 -0.137,-0.398 -0.402,-1.199 -0.531,-1.598 -0.883,0.231 -1.758,0.473 -2.637,0.719 -0.094,1.18 -0.18,2.363 -0.269,3.547 0.824,0.312 1.64,0.676 2.503,0.863 0.227,-0.398 0.676,-1.191 0.903,-1.586 0.379,1.629 0.004,3.305 -0.082,4.946 h -0.535 c -0.293,-0.887 -0.645,-1.848 -1.59,-2.231 -2.578,-1.433 -5.242,-2.707 -7.844,-4.09 -0.645,-0.265 -1.074,-0.804 -1.391,-1.402 3.301,-1.145 6.668,-2.109 9.973,-3.254 z m -6.441,4.699 c 1.172,0.59 2.363,1.149 3.547,1.711 0.074,-0.957 0.14,-1.906 0.21,-2.859 -1.257,0.379 -2.507,0.754 -3.757,1.148 z"
           style="fill:#014189;fill-opacity:1;fill-rule:nonzero;stroke:#014189;stroke-width:0.0600271;stroke-linecap:butt;stroke-linejoin:miter;stroke-miterlimit:10.43;stroke-dasharray:none;stroke-opacity:1"
           id="path172" />
      </g>
      <g
         id="g174">
        <path
           d="m 176.285,112.875 c -1.187,0.047 -0.078,-1.766 0.645,-1.262 0.132,0.575 -0.086,0.996 -0.645,1.262 z"
           style="fill:#014189;fill-opacity:1;fill-rule:nonzero;stroke:#014189;stroke-width:0.0600271;stroke-linecap:butt;stroke-linejoin:miter;stroke-miterlimit:10.43;stroke-dasharray:none;stroke-opacity:1"
           id="path176" />
      </g>
      <g
         id="g178">
        <path
           d="m 130.523,112.23 c 0.696,-0.175 1.391,-0.351 2.082,-0.539 1.086,0.918 1.887,2.098 2.364,3.43 -1.153,-0.426 -2.352,-0.723 -3.59,-0.664 -0.277,-0.75 -0.563,-1.492 -0.856,-2.227 z"
           style="fill:#014189;fill-opacity:1;fill-rule:nonzero;stroke:#014189;stroke-width:0.0600271;stroke-linecap:butt;stroke-linejoin:miter;stroke-miterlimit:10.43;stroke-dasharray:none;stroke-opacity:1"
           id="path180" />
      </g>
      <g
         id="g182">
        <path
           d="m 148.195,112.035 c 0.293,-0.047 0.883,-0.137 1.176,-0.18 -0.012,0.329 -0.043,0.993 -0.051,1.329 0.391,0.164 1.18,0.488 1.575,0.652 -1.196,-0.121 -2.622,-0.316 -2.7,-1.801 z"
           style="fill:#014189;fill-opacity:1;fill-rule:nonzero;stroke:#014189;stroke-width:0.0600271;stroke-linecap:butt;stroke-linejoin:miter;stroke-miterlimit:10.43;stroke-dasharray:none;stroke-opacity:1"
           id="path184" />
      </g>
      <g
         id="g186">
        <path
           d="m 49.324,112.379 c 1.172,-0.168 2.289,0.18 3.418,0.406 1.285,-0.199 2.535,-0.711 3.852,-0.664 1.09,0.586 2.105,1.309 3.207,1.875 -0.024,0.465 -0.051,0.93 -0.082,1.399 -0.84,0.171 -1.688,0.281 -2.508,0.539 -0.641,0.617 -0.777,1.57 -1.149,2.351 1.168,-0.226 2.333,-0.469 3.504,-0.668 0.004,0.535 0.012,1.067 0.012,1.602 -0.898,0.183 -2.476,0 -2.562,1.265 0.375,1.383 2.132,2.032 3.41,1.52 1.449,-0.512 2.222,-1.938 3.14,-3.066 0.192,1.035 0.356,2.07 0.473,3.117 1.793,-1.684 3.922,-3.016 5.566,-4.828 0.102,-1.661 0.5,-3.332 1.833,-4.446 -0.098,0.528 -0.29,1.578 -0.387,2.11 0.898,-0.446 1.801,-0.875 2.722,-1.27 -0.539,0.75 -1.085,1.492 -1.636,2.242 0.933,-0.086 1.875,-0.156 2.812,-0.199 -0.859,0.559 -1.719,1.125 -2.539,1.746 0.879,0.375 1.817,0.528 2.75,0.684 -0.879,0.816 -2.008,1.152 -3.183,1.207 -1.84,2.316 -4.016,4.308 -6.375,6.082 0.668,2.152 3.343,0.597 4.546,-0.305 -0.101,0.891 0.122,1.934 -0.503,2.68 -1.012,1.242 -2.758,1.265 -4.204,1.535 1.668,1.633 3.219,3.375 4.754,5.125 1.028,-1.945 3.493,-1.773 4.801,-0.23 -0.824,0.082 -1.656,0.156 -2.48,0.218 0.945,0.617 1.847,1.364 2.074,2.539 -0.676,-0.39 -1.336,-0.793 -2,-1.195 -0.137,1.039 -0.313,2.086 -0.602,3.098 -0.64,-0.844 -1.043,-2.481 -2.422,-2.039 -0.41,0.445 -0.765,0.945 -1.054,1.488 -0.289,-0.949 -0.457,-1.945 -0.844,-2.856 -2.867,-0.964 -5.5,-2.531 -7.586,-4.742 -1.84,1.074 -4.176,0.926 -5.902,2.164 1.785,0.418 3.734,0.457 5.332,1.461 1.215,0.692 2.035,1.848 2.976,2.852 0.731,0.867 1.992,0.762 2.989,1.043 -0.739,1.539 -2.34,2.07 -3.93,2.211 1.449,1.054 2.828,2.207 4.238,3.316 1.067,-0.558 2.102,-1.273 3.32,-1.441 0.922,-0.043 1.422,0.828 2.012,1.379 -0.769,0.023 -1.531,0.046 -2.293,0.074 0.574,1.031 1.059,2.121 1.41,3.254 -0.722,-0.36 -1.425,-0.77 -2.156,-1.117 -0.078,0.878 -0.199,1.765 -0.476,2.613 -0.434,-0.828 -0.856,-1.711 -1.739,-2.133 -0.453,0.629 -0.922,1.242 -1.441,1.828 -0.149,-1.035 0.426,-2.933 -1.09,-3.144 -3.199,-0.774 -6.945,-1.176 -9.023,-4.075 0.726,-0.308 1.441,-0.644 2.175,-0.929 -2.136,-1.575 -3.984,-3.5 -5.437,-5.723 0.738,2.035 0.863,4.18 0.691,6.328 -0.195,1.254 0.735,2.176 1.539,2.985 -1.922,0.207 -3.687,-0.586 -5.011,-1.95 0.312,1.75 0.328,3.762 1.609,5.157 1.195,1.312 3.273,0.578 4.617,1.617 0.824,0.629 0.93,1.742 1.258,2.656 -0.793,-0.512 -1.59,-1.023 -2.391,-1.516 0.145,0.602 0.426,1.805 0.567,2.403 -0.66,-0.496 -1.321,-0.996 -1.985,-1.485 0.032,0.512 0.086,1.539 0.118,2.051 -0.586,-0.918 -1.168,-1.848 -1.797,-2.734 -0.703,0.715 -1.059,1.652 -1.34,2.605 -1.438,-0.89 -0.637,-2.406 0.301,-3.336 -3.68,-2.082 -7.961,-5.14 -7.567,-9.925 0.906,0.164 2.067,0.855 2.77,-0.09 0.801,-1.618 -0.594,-3.168 -1.528,-4.368 0.829,-0.292 1.649,-0.609 2.469,-0.918 0.059,-0.339 0.168,-1.015 0.227,-1.351 -1.547,-0.195 -3.442,-0.492 -4.176,-2.082 -1.004,-2.305 0.379,-4.727 1.699,-6.586 1.43,-2.234 3.676,-4.289 3.641,-7.129 -0.106,-1.312 -1.563,-1.418 -2.559,-1.566 -0.011,1.328 -0.211,2.757 -1.32,3.636 -1.336,1.098 -2.82,2.161 -3.32,3.914 -0.258,-2.937 -1.016,-6.488 1.3,-8.832 0.762,-0.875 1.914,-0.402 2.797,-0.031 1.364,0.106 3.012,0.078 3.891,1.332 1.23,1.774 0.297,4.039 -0.684,5.703 -1.476,2.594 -4.035,4.735 -4.445,7.825 -0.301,1.535 1.379,2.273 2.629,2.375 1.453,0.265 2.336,-1.188 3.453,-1.844 1.52,-1.324 3.66,-1.746 4.996,-3.285 -2.039,-0.039 -4.308,0.254 -5.926,-1.278 1.555,-0.726 3.153,-1.492 4.184,-2.933 -1.223,0.203 -2.461,0.359 -3.703,0.258 0.844,-1.102 2.035,-2.016 2.461,-3.387 -0.016,-1.426 -0.512,-2.828 -0.278,-4.262 0.344,-0.848 -0.492,-1.332 -0.91,-1.91 z m 5.399,0.965 c 0.605,0.484 1.172,1.019 1.734,1.554 0.367,-0.558 0.742,-1.105 1.133,-1.648 -0.957,0.051 -1.91,0.094 -2.867,0.094 z"
           style="fill:#014189;fill-opacity:1;fill-rule:nonzero;stroke:#014189;stroke-width:0.0600271;stroke-linecap:butt;stroke-linejoin:miter;stroke-miterlimit:10.43;stroke-dasharray:none;stroke-opacity:1"
           id="path188" />
      </g>
      <g
         id="g190">
        <path
           d="m 63.551,112.992 c 1.508,-0.461 2.019,1.664 1.137,2.563 -1.215,1.347 -3.219,1.023 -4.836,1.109 1.207,-0.328 2.441,-0.629 3.55,-1.234 -0.062,-0.785 -1.039,-2.098 0.149,-2.438 z"
           style="fill:#014189;fill-opacity:1;fill-rule:nonzero;stroke:#014189;stroke-width:0.0600271;stroke-linecap:butt;stroke-linejoin:miter;stroke-miterlimit:10.43;stroke-dasharray:none;stroke-opacity:1"
           id="path192" />
      </g>
      <g
         id="g194">
        <path
           d="m 199.887,112.195 c 0.695,0.801 1.191,1.926 2.297,2.254 2.148,0.84 4.355,1.531 6.535,2.305 1.211,0.457 2.644,0.672 3.429,1.828 -3.171,1.684 -6.468,3.117 -9.632,4.805 -0.977,0.429 -1.067,1.605 -1.485,2.453 -0.789,-2.012 -0.539,-4.238 -0.703,-6.348 0.317,0.317 0.945,0.961 1.258,1.278 0.801,-0.25 1.566,-0.606 2.344,-0.942 -0.071,-1.191 -0.141,-2.375 -0.219,-3.562 -0.844,-0.196 -1.688,-0.383 -2.535,-0.551 -0.278,0.594 -0.531,1.215 -0.934,1.742 -0.297,-1.738 -0.383,-3.504 -0.355,-5.262 z m 5.011,7.141 c 1.188,-0.551 2.368,-1.102 3.54,-1.676 -1.235,-0.422 -2.485,-0.801 -3.727,-1.18 0.059,0.954 0.125,1.903 0.187,2.856 z"
           style="fill:#014189;fill-opacity:1;fill-rule:nonzero;stroke:#014189;stroke-width:0.0600271;stroke-linecap:butt;stroke-linejoin:miter;stroke-miterlimit:10.43;stroke-dasharray:none;stroke-opacity:1"
           id="path196" />
      </g>
      <g
         id="g198">
        <path
           d="m 120.598,114.734 c 0.726,-0.484 1.472,-0.937 2.238,-1.359 1.453,1.828 2.086,4.586 1.059,6.734 -0.934,-1.89 -1.942,-3.746 -3.297,-5.375 z"
           style="fill:#014189;fill-opacity:1;fill-rule:nonzero;stroke:#014189;stroke-width:0.0600271;stroke-linecap:butt;stroke-linejoin:miter;stroke-miterlimit:10.43;stroke-dasharray:none;stroke-opacity:1"
           id="path200" />
      </g>
      <g
         id="g202">
        <path
           d="m 126.855,115.238 c 0.2,-0.883 1.102,-1.746 2.047,-1.34 0.383,0.914 0.301,1.942 -0.379,2.684 -0.871,1.023 -1.046,2.617 -2.312,3.254 0.109,-1.547 0.258,-3.094 0.644,-4.598 z"
           style="fill:#014189;fill-opacity:1;fill-rule:nonzero;stroke:#014189;stroke-width:0.0600271;stroke-linecap:butt;stroke-linejoin:miter;stroke-miterlimit:10.43;stroke-dasharray:none;stroke-opacity:1"
           id="path204" />
      </g>
      <g
         id="g206">
        <path
           d="m 143.746,117.262 c 0.246,-0.004 0.734,-0.008 0.984,-0.008 -0.003,0.691 -0.003,1.383 -0.003,2.074 -0.247,0 -0.735,-0.004 -0.981,-0.012 0,-0.683 -0.004,-1.371 0,-2.05 z"
           style="fill:#014189;fill-opacity:1;fill-rule:nonzero;stroke:#014189;stroke-width:0.0600271;stroke-linecap:butt;stroke-linejoin:miter;stroke-miterlimit:10.43;stroke-dasharray:none;stroke-opacity:1"
           id="path208" />
      </g>
      <g
         id="g210">
        <path
           d="m 135.277,122.828 c 0.071,1.543 0.086,3.094 0.043,4.645 -0.703,-1.512 -0.972,-3.149 -0.043,-4.645 z"
           style="fill:#014189;fill-opacity:1;fill-rule:nonzero;stroke:#014189;stroke-width:0.0600271;stroke-linecap:butt;stroke-linejoin:miter;stroke-miterlimit:10.43;stroke-dasharray:none;stroke-opacity:1"
           id="path212" />
      </g>
      <g
         id="g214">
        <path
           d="m 121.309,126.137 c 1.441,-0.621 2.914,-1.149 4.371,-1.731 -0.297,0.406 -0.598,0.813 -0.903,1.215 -0.14,0.695 -0.3,1.387 -0.476,2.074 -0.321,-0.507 -0.629,-1.015 -0.934,-1.527 -0.687,0.09 -1.39,0.211 -2.058,-0.031 z"
           style="fill:#014189;fill-opacity:1;fill-rule:nonzero;stroke:#014189;stroke-width:0.0600271;stroke-linecap:butt;stroke-linejoin:miter;stroke-miterlimit:10.43;stroke-dasharray:none;stroke-opacity:1"
           id="path216" />
      </g>
      <g
         id="g218">
        <path
           d="m 104.973,124.438 c 0.976,0.093 1.957,0.187 2.941,0.285 -0.008,7.843 -0.144,15.722 0.848,23.519 0.84,6.906 3.508,13.711 8.16,18.946 1.418,1.667 3.207,2.929 4.785,4.421 0.254,0.641 -0.531,0.75 -0.93,0.989 -2.668,1.062 -5.574,1.207 -8.39,1.578 -2.035,1.836 -4.528,3.078 -7.078,4.023 -1.586,0.586 -3.309,0.281 -4.875,-0.207 2.254,-0.113 5.828,-0.437 6.156,-3.254 -1.047,-1.008 -2.59,-0.793 -3.91,-0.945 -1.739,-0.047 -3.235,-1.066 -4.797,-1.699 -13.047,3.468 -26.102,6.894 -39.137,10.398 -0.297,0.867 -0.605,1.731 -0.906,2.606 -5.789,0.531 -11.567,1.168 -17.36,1.617 5.208,-2.176 10.415,-4.344 15.622,-6.52 0.781,0.461 1.566,0.922 2.343,1.387 12.805,-3.285 25.575,-6.664 38.395,-9.887 -0.824,-0.449 -1.645,-0.906 -2.442,-1.394 1.868,-0.375 3.657,0.238 5.34,0.976 2.2,0.192 4.407,0.356 6.617,0.528 0.997,-9.387 0.61,-18.86 0.426,-28.282 -0.234,-2.652 0.082,-5.441 -0.843,-7.972 -0.661,4.722 0.187,9.511 -0.395,14.238 -0.086,0.738 -0.371,1.441 -0.668,2.121 -0.461,-1.633 -0.578,-3.336 -0.516,-5.019 0.207,-7.485 0.407,-14.969 0.614,-22.453 z"
           style="fill:#014189;fill-opacity:1;fill-rule:nonzero;stroke:#014189;stroke-width:0.0600271;stroke-linecap:butt;stroke-linejoin:miter;stroke-miterlimit:10.43;stroke-dasharray:none;stroke-opacity:1"
           id="path220" />
      </g>
      <g
         id="g222">
        <path
           d="m 142.891,127.594 c 0.238,-0.028 0.695,-0.082 0.929,-0.114 -0.008,0.727 0.063,1.446 0.055,2.176 -0.254,-0.023 -0.773,-0.078 -1.031,-0.105 0.015,-0.653 0.035,-1.305 0.047,-1.957 z"
           style="fill:#014189;fill-opacity:1;fill-rule:nonzero;stroke:#014189;stroke-width:0.0600271;stroke-linecap:butt;stroke-linejoin:miter;stroke-miterlimit:10.43;stroke-dasharray:none;stroke-opacity:1"
           id="path224" />
      </g>
      <g
         id="g226">
        <path
           d="m 12.172,128.02 c 1.785,-1.118 4.414,0.382 4.226,2.515 -0.023,2.18 -2.878,3.457 -4.546,2.063 -1.586,-1.086 -1.379,-3.715 0.32,-4.578 z"
           style="fill:#014189;fill-opacity:1;fill-rule:nonzero;stroke:#014189;stroke-width:0.0600271;stroke-linecap:butt;stroke-linejoin:miter;stroke-miterlimit:10.43;stroke-dasharray:none;stroke-opacity:1"
           id="path228" />
      </g>
      <g
         id="g230">
        <path
           d="m 205.609,128.023 c 1.899,-0.953 4.375,0.86 3.946,2.969 -0.278,2.125 -3.211,3.074 -4.707,1.574 -1.496,-1.218 -1.016,-3.851 0.761,-4.543 z"
           style="fill:#014189;fill-opacity:1;fill-rule:nonzero;stroke:#014189;stroke-width:0.0600271;stroke-linecap:butt;stroke-linejoin:miter;stroke-miterlimit:10.43;stroke-dasharray:none;stroke-opacity:1"
           id="path232" />
      </g>
      <g
         id="g234">
        <path
           d="m 124.652,128.793 c 0.77,-0.109 1.539,-0.203 2.317,-0.277 0.156,0.14 0.472,0.433 0.633,0.586 -1.004,0.179 -2.02,0.152 -2.95,-0.309 z"
           style="fill:#014189;fill-opacity:1;fill-rule:nonzero;stroke:#014189;stroke-width:0.0600271;stroke-linecap:butt;stroke-linejoin:miter;stroke-miterlimit:10.43;stroke-dasharray:none;stroke-opacity:1"
           id="path236" />
      </g>
      <g
         id="g238">
        <path
           d="m 150.055,130.195 c 0.238,-0.023 0.722,-0.062 0.965,-0.09 0.003,0.719 0.007,1.43 0.011,2.149 -0.246,-0.016 -0.722,-0.039 -0.969,-0.055 -0.003,-0.672 -0.003,-1.34 -0.007,-2.004 z"
           style="fill:#014189;fill-opacity:1;fill-rule:nonzero;stroke:#014189;stroke-width:0.0600271;stroke-linecap:butt;stroke-linejoin:miter;stroke-miterlimit:10.43;stroke-dasharray:none;stroke-opacity:1"
           id="path240" />
      </g>
      <g
         id="g242">
        <path
           d="m 124.27,134.922 c 0.339,-1.492 -0.133,-3.734 1.511,-4.539 2.258,0.179 0.922,3.023 0.973,4.461 -0.828,0.019 -1.652,0.043 -2.484,0.078 z"
           style="fill:#014189;fill-opacity:1;fill-rule:nonzero;stroke:#014189;stroke-width:0.0600271;stroke-linecap:butt;stroke-linejoin:miter;stroke-miterlimit:10.43;stroke-dasharray:none;stroke-opacity:1"
           id="path244" />
      </g>
      <g
         id="g246">
        <path
           d="m 19.434,136.43 c 0.972,2.144 0.875,4.601 1.132,6.906 -0.496,-0.621 -0.914,-1.301 -1.414,-1.91 -2.652,0.121 -5.289,0.617 -7.894,1.121 3.265,1.23 6.773,1.777 9.937,3.273 -2.742,1.848 -5.621,3.465 -8.414,5.227 2.516,-0.348 5.153,-0.172 7.567,-1.024 0.218,-0.66 0.414,-1.332 0.586,-2.007 0.945,1.597 0.722,3.57 0.976,5.339 -0.73,-0.535 -1.152,-1.761 -2.222,-1.617 -2.7,0.078 -5.45,0.02 -8.094,0.602 -0.188,0.562 -0.321,1.14 -0.391,1.738 -0.141,0.024 -0.418,0.067 -0.558,0.09 -0.192,-1.418 -0.379,-2.832 -0.563,-4.242 2.297,-1.524 4.656,-2.953 6.895,-4.559 -2.598,-0.816 -5.215,-1.562 -7.821,-2.347 -0.226,-1.668 -0.508,-3.332 -0.5,-5.02 0.492,0.641 0.914,1.328 1.414,1.961 2.739,-0.215 5.465,-0.727 8.164,-1.238 1.153,-0.059 0.782,-1.575 1.2,-2.293 z"
           style="fill:#014189;fill-opacity:1;fill-rule:nonzero;stroke:#014189;stroke-width:0.0600271;stroke-linecap:butt;stroke-linejoin:miter;stroke-miterlimit:10.43;stroke-dasharray:none;stroke-opacity:1"
           id="path248" />
      </g>
      <g
         id="g250">
        <path
           d="m 200.129,138.246 c 0.008,-0.644 0.219,-1.23 0.621,-1.73 0.164,0.668 0.352,1.332 0.559,1.996 2.73,0.707 5.601,0.824 8.41,1.035 0.894,0.16 0.945,-1.078 1.367,-1.606 0.129,0.063 0.387,0.184 0.519,0.254 -0.359,2.149 -0.175,4.434 -0.992,6.489 -0.433,-0.782 -0.218,-2.27 -1.402,-2.344 -2.684,-0.332 -5.391,-0.817 -8.098,-0.688 -0.738,0.903 -0.691,2.188 -0.558,3.286 0.535,0.996 1.898,1.289 2.226,2.453 -1.195,-0.293 -2.363,-0.68 -3.527,-1.082 0.336,-2.68 0.586,-5.375 0.875,-8.063 z"
           style="fill:#014189;fill-opacity:1;fill-rule:nonzero;stroke:#014189;stroke-width:0.0600271;stroke-linecap:butt;stroke-linejoin:miter;stroke-miterlimit:10.43;stroke-dasharray:none;stroke-opacity:1"
           id="path252" />
      </g>
      <g
         id="g254">
        <path
           d="m 174.598,144.391 c 0.586,-0.059 1.168,0.019 1.754,0.066 -0.586,0.813 -1.582,1.012 -2.457,1.344 1.867,1.531 4.925,-1.012 6.277,1.469 -1.102,1.089 -2.563,1.55 -4.074,1.675 0.3,0.649 0.652,1.301 1.222,1.766 -1.105,0.918 -1.906,2.281 -3.363,2.687 0.59,-0.679 1.207,-1.336 1.773,-2.039 -0.523,-0.527 -1.046,-1.054 -1.558,-1.589 -1.539,1.367 -1.57,4.394 -4.074,4.48 1.207,-1.051 2.14,-2.352 2.808,-3.809 -1.629,0.52 -3.5,0.711 -4.754,2 -0.984,0.914 -2.035,2.329 -3.535,1.582 1.66,-0.562 2.992,-1.742 3.684,-3.359 -0.973,-1.191 -2.344,-2.051 -3.012,-3.48 1.07,0.781 2.121,2.148 3.629,1.636 1.187,-0.218 0.805,-1.843 1.117,-2.687 0.219,0.265 0.656,0.801 0.879,1.07 0.367,-0.039 1.113,-0.109 1.481,-0.144 -0.528,0.832 -1.051,1.671 -1.461,2.574 1.125,-0.332 2.148,-0.945 3.281,-1.254 1.715,-0.25 3.785,0.402 5.137,-1.024 l -0.118,-0.679 c -1.929,-0.426 -4.113,0.781 -5.757,-0.727 0.355,-0.531 0.671,-1.097 1.121,-1.558 z"
           style="fill:#014189;fill-opacity:1;fill-rule:nonzero;stroke:#014189;stroke-width:0.0600271;stroke-linecap:butt;stroke-linejoin:miter;stroke-miterlimit:10.43;stroke-dasharray:none;stroke-opacity:1"
           id="path256" />
      </g>
      <g
         id="g258">
        <path
           d="m 197.18,157.652 c 0.367,-2.261 0.609,-4.597 1.562,-6.703 0.406,0.789 0.117,2.274 1.317,2.367 2.566,0.622 5.148,1.239 7.761,1.586 0.59,-0.476 1.09,-1.047 1.668,-1.535 -0.359,2.188 -0.523,4.52 -1.609,6.504 -0.301,-0.75 -0.016,-2.109 -1.113,-2.266 -2.348,-0.64 -4.743,-1.109 -7.137,-1.535 -1.199,-0.418 -1.684,0.973 -2.449,1.582 z"
           style="fill:#014189;fill-opacity:1;fill-rule:nonzero;stroke:#014189;stroke-width:0.0600271;stroke-linecap:butt;stroke-linejoin:miter;stroke-miterlimit:10.43;stroke-dasharray:none;stroke-opacity:1"
           id="path260" />
      </g>
      <g
         id="g262">
        <path
           d="m 13.465,160.25 c 2.781,0.055 5.347,-1.766 8.16,-1.238 2.176,0.422 3.297,2.707 3.563,4.718 0.25,1.458 -0.172,3.157 -1.52,3.946 -2.195,1.324 -4.867,1.437 -7.164,2.523 -0.516,0.61 -0.469,1.528 -0.758,2.266 -0.82,-2.137 -1.449,-4.356 -1.887,-6.602 0.758,0.508 1.278,1.801 2.36,1.434 2.238,-0.578 4.66,-1.004 6.554,-2.402 1.844,-1.465 0.657,-4.833 -1.699,-4.833 -2.429,0.047 -4.851,0.801 -7.019,1.856 -0.285,0.781 -0.43,1.602 -0.668,2.391 -0.684,-1.75 -1.196,-3.559 -1.563,-5.403 0.551,0.442 1.067,0.934 1.641,1.344 z"
           style="fill:#014189;fill-opacity:1;fill-rule:nonzero;stroke:#014189;stroke-width:0.0600271;stroke-linecap:butt;stroke-linejoin:miter;stroke-miterlimit:10.43;stroke-dasharray:none;stroke-opacity:1"
           id="path264" />
      </g>
      <g
         id="g266">
        <path
           d="m 194.363,167.047 c 0.563,-1.567 0.907,-3.25 1.871,-4.633 0.297,0.742 -0.25,2.066 0.727,2.41 2.305,0.969 4.707,1.703 7.094,2.446 1.086,0.542 1.722,-0.762 2.507,-1.239 -0.57,2.391 -1.386,4.715 -2.261,7.008 -0.489,1.316 -1.692,2.773 -3.266,2.281 -1.39,-0.269 -1.66,-1.82 -1.844,-2.984 -0.597,0.652 -1.117,1.457 -1.961,1.809 -1.441,0.562 -3.246,-0.372 -3.621,-1.868 -0.457,-1.769 0.231,-3.55 0.754,-5.23 z m 1.949,4.348 c 1.915,0.765 2.997,-1.305 3.579,-2.747 -1.344,-0.46 -2.672,-1.046 -4.102,-1.16 -1.801,0.66 -1.281,3.578 0.523,3.907 z m 4.243,-2.54 c -0.145,0.661 -0.305,1.321 -0.364,1.997 -0.062,1.398 1.782,2.32 2.907,1.558 0.73,-0.496 0.906,-1.441 1.304,-2.176 -1.261,-0.515 -2.554,-0.953 -3.847,-1.379 z"
           style="fill:#014189;fill-opacity:1;fill-rule:nonzero;stroke:#014189;stroke-width:0.0600271;stroke-linecap:butt;stroke-linejoin:miter;stroke-miterlimit:10.43;stroke-dasharray:none;stroke-opacity:1"
           id="path268" />
      </g>
      <g
         id="g270">
        <path
           d="m 27.391,171.875 c 1.203,1.977 2.109,4.16 2.617,6.422 -0.555,-0.485 -1.082,-1 -1.656,-1.457 -2.911,0.855 -5.743,2.066 -8.434,3.469 0.059,0.484 0.168,1.449 0.227,1.933 -1.735,-1.543 -2.051,-4.121 -2.926,-6.191 0.644,0.441 1.238,0.953 1.918,1.347 2.726,-0.925 5.461,-1.96 8.004,-3.316 0.113,-0.734 0.195,-1.469 0.25,-2.207 z"
           style="fill:#014189;fill-opacity:1;fill-rule:nonzero;stroke:#014189;stroke-width:0.0600271;stroke-linecap:butt;stroke-linejoin:miter;stroke-miterlimit:10.43;stroke-dasharray:none;stroke-opacity:1"
           id="path272" />
      </g>
      <g
         id="g274">
        <path
           d="m 190.359,178.035 c 0.243,1.024 -0.175,2.492 1.079,2.914 2.335,1.199 4.648,2.477 7.101,3.426 0.563,-0.461 1.137,-0.902 1.758,-1.277 -1.152,3.015 -2.848,5.789 -4.172,8.734 -1.07,-0.387 -2.145,-0.805 -3.031,-1.527 0.988,-0.278 2.468,0.257 3.058,-0.844 0.52,-0.742 0.899,-1.566 1.313,-2.367 -1.188,-0.668 -2.41,-1.278 -3.625,-1.883 -0.383,0.809 -0.805,1.601 -1.067,2.457 0.204,0.668 0.493,1.309 0.731,1.969 -1.336,-0.602 -2.668,-1.223 -3.906,-2.012 0.652,-0.145 1.312,-0.25 1.972,-0.32 0.489,-0.832 0.946,-1.68 1.399,-2.535 -1.285,-0.653 -2.598,-1.262 -3.965,-1.731 -0.676,0.992 -1.391,2.016 -1.637,3.219 0.086,1.07 0.906,1.91 1.262,2.91 -1.086,-0.496 -2.012,-1.254 -2.922,-1.996 1.566,-3.039 2.973,-6.16 4.652,-9.137 z"
           style="fill:#014189;fill-opacity:1;fill-rule:nonzero;stroke:#014189;stroke-width:0.0600271;stroke-linecap:butt;stroke-linejoin:miter;stroke-miterlimit:10.43;stroke-dasharray:none;stroke-opacity:1"
           id="path276" />
      </g>
      <g
         id="g278">
        <path
           d="m 88.441,182.496 c 14.43,0 28.864,0 43.301,0 0,2.27 0,4.539 0,6.809 15.735,0 31.473,-0.004 47.203,0 -9.031,14.41 -21.734,26.773 -37.191,34.097 -5.688,2.715 -11.719,4.719 -17.91,5.907 -1.274,0.183 -2.282,1.023 -3.379,1.625 -6.297,3.566 -14.438,3.554 -20.746,0.007 -1.129,-0.625 -2.168,-1.484 -3.473,-1.683 -13.125,-2.516 -25.375,-8.809 -35.527,-17.434 -7.61,-6.406 -14.055,-14.121 -19.364,-22.519 15.696,-0.004 31.391,0 47.083,0 0,-2.27 0,-4.539 0.003,-6.809 z m 0.786,0.797 c 0.011,9.633 -0.02,19.269 0.015,28.902 0.016,6.649 3.481,13.137 8.949,16.895 5.368,3.785 12.571,4.765 18.754,2.558 6.696,-2.281 11.977,-8.218 13.469,-15.132 0.594,-2.524 0.508,-5.133 0.512,-7.704 -0.004,-8.503 0,-17.011 -0.004,-25.519 -13.895,0 -27.793,0 -41.695,0 z"
           style="fill:#014189;fill-opacity:1;fill-rule:nonzero;stroke:#014189;stroke-width:0.0600271;stroke-linecap:butt;stroke-linejoin:miter;stroke-miterlimit:10.43;stroke-dasharray:none;stroke-opacity:1"
           id="path280" />
      </g>
      <g
         id="g282">
        <path
           d="m 23.793,187.426 c 1.059,-3.477 5.934,-4.864 8.715,-2.551 2.656,2.125 3.91,5.445 5.508,8.348 -0.961,-0.356 -1.93,-1.532 -2.969,-0.696 -2.328,1.285 -4.774,2.422 -6.883,4.055 0.063,0.504 0.184,1.508 0.254,2.008 -1.379,-1.274 -2.043,-3.067 -2.984,-4.641 -1.102,-1.965 -2.223,-4.215 -1.641,-6.523 z m 2.137,1.258 c -1.282,1.656 -0.301,3.742 0.621,5.296 2.539,-1.171 4.98,-2.558 7.367,-4.007 1.387,-0.711 0.211,-2.274 -0.555,-2.985 -2.293,-2.015 -5.801,-0.418 -7.433,1.696 z"
           style="fill:#014189;fill-opacity:1;fill-rule:nonzero;stroke:#014189;stroke-width:0.0600271;stroke-linecap:butt;stroke-linejoin:miter;stroke-miterlimit:10.43;stroke-dasharray:none;stroke-opacity:1"
           id="path284" />
      </g>
      <g
         id="g286">
        <path
           d="m 99.027,188.75 c 0.524,-0.391 1.047,-0.773 1.571,-1.156 3.09,3.972 6.175,7.941 9.269,11.91 3.094,-3.977 6.184,-7.953 9.281,-11.93 0.54,0.379 1,0.852 1.543,1.242 -0.921,1.145 -1.832,2.309 -2.726,3.473 0.586,0.457 1.168,0.906 1.75,1.363 0.906,-1.172 1.82,-2.34 2.73,-3.507 0.582,0.453 1.157,0.902 1.743,1.359 -0.454,0.586 -0.911,1.176 -1.364,1.762 0.586,0.453 1.172,0.906 1.758,1.363 0.445,-0.582 0.887,-1.168 1.34,-1.75 0.59,0.433 1.18,0.859 1.773,1.297 -0.883,1.203 -1.797,2.39 -2.722,3.566 -1.168,-0.91 -2.336,-1.824 -3.504,-2.73 -0.457,0.582 -0.914,1.164 -1.364,1.754 1.165,0.91 2.336,1.816 3.508,2.726 -0.457,0.582 -0.914,1.168 -1.367,1.758 -2.348,-1.82 -4.687,-3.641 -7.031,-5.457 -1.371,1.762 -2.735,3.523 -4.094,5.285 2.332,3.02 4.691,6.008 7.004,9.043 0.816,-0.906 1.621,-1.965 2.848,-2.316 1.894,-0.617 4.246,0.293 4.996,2.203 0.914,2.285 0.039,4.801 -1.219,6.773 0.633,0.305 1.965,0.391 1.758,1.403 -0.301,1.32 -2.035,0.574 -3,0.734 -0.301,0.887 0.027,2.27 -1.063,2.668 -1.355,0.144 -1.015,-1.395 -1.133,-2.246 -2.171,0.664 -4.726,0.933 -6.707,-0.399 -1.793,-1.148 -2.191,-3.777 -1.027,-5.5 0.652,-1.082 1.844,-1.625 2.914,-2.183 -2.258,-2.863 -4.472,-5.75 -6.715,-8.617 -2.226,2.875 -4.48,5.734 -6.687,8.629 1.019,0.542 2.14,1.054 2.808,2.046 1.215,1.664 0.918,4.282 -0.789,5.508 -2,1.469 -4.66,1.192 -6.906,0.524 -0.129,0.754 0.328,2.007 -0.75,2.203 -1.418,0.16 -1.117,-1.781 -1.457,-2.653 -0.793,0.016 -1.594,0.106 -2.379,0.02 -0.687,-0.203 -0.851,-1.234 -0.222,-1.629 0.519,-0.187 1.046,-0.336 1.585,-0.461 -1.207,-1.918 -2.109,-4.293 -1.343,-6.551 0.633,-2.093 3.16,-3.156 5.164,-2.449 1.195,0.367 1.984,1.395 2.781,2.289 2.316,-3.031 4.676,-6.023 7.008,-9.039 -1.367,-1.762 -2.735,-3.523 -4.102,-5.285 -2.343,1.812 -4.683,3.637 -7.031,5.457 -0.457,-0.59 -0.914,-1.176 -1.363,-1.758 1.164,-0.91 2.336,-1.82 3.508,-2.726 -0.457,-0.586 -0.907,-1.176 -1.36,-1.758 -1.172,0.91 -2.344,1.82 -3.512,2.734 -0.91,-1.176 -1.82,-2.351 -2.726,-3.531 0.59,-0.445 1.18,-0.895 1.773,-1.336 0.453,0.586 0.903,1.176 1.36,1.766 0.586,-0.481 1.179,-0.95 1.765,-1.43 -0.464,-0.566 -0.925,-1.133 -1.386,-1.699 0.586,-0.461 1.175,-0.914 1.765,-1.367 0.91,1.167 1.817,2.335 2.723,3.507 0.586,-0.457 1.176,-0.914 1.762,-1.363 -0.918,-1.172 -1.836,-2.355 -2.739,-3.539 z m -3.554,22.461 c -0.481,2.207 1.047,4.086 1.843,6.008 2.227,0.332 4.911,1.5 6.895,-0.121 1.402,-1.547 -0.117,-3.786 -1.891,-4.106 -1.949,-0.293 -2.238,-2.707 -4.011,-3.269 -1.141,-0.426 -2.668,0.191 -2.836,1.488 z m 23.261,1.168 c -1.101,0.633 -2.574,0.785 -3.316,1.926 -0.715,1.019 -0.512,2.715 0.75,3.199 2.016,0.969 4.238,0.004 6.289,-0.328 0.785,-1.922 2.297,-3.785 1.848,-5.988 -0.16,-1.317 -1.715,-1.942 -2.86,-1.508 -1.308,0.41 -1.82,1.789 -2.711,2.699 z"
           style="fill:#014189;fill-opacity:1;fill-rule:nonzero;stroke:#014189;stroke-width:0.0600271;stroke-linecap:butt;stroke-linejoin:miter;stroke-miterlimit:10.43;stroke-dasharray:none;stroke-opacity:1"
           id="path288" />
      </g>
      <g
         id="g290">
        <path
           d="m 179.434,197.383 c 0.894,-2.133 2.324,-4.039 3.929,-5.699 -0.058,0.949 -0.804,2.234 0.344,2.839 2.168,1.598 4.336,3.215 6.699,4.52 0.621,-0.355 1.262,-0.691 1.914,-1.008 -1.375,2.414 -2.972,4.731 -4.765,6.852 -0.965,1.199 -2.883,1.41 -4.016,0.336 -1.121,-0.832 -0.937,-2.328 -0.891,-3.547 -2.39,-0.145 -4.777,-0.012 -7.097,0.57 0.679,-0.969 1.324,-2.035 2.336,-2.707 2.051,-1.32 4.898,0.699 6.675,-1.203 -1.066,-0.797 -2.167,-1.547 -3.382,-2.098 -0.578,0.391 -1.153,0.785 -1.746,1.145 z m 4.562,3.758 c 0.082,1.336 1.418,2.32 2.692,2.312 1.144,-0.047 1.714,-1.148 2.359,-1.918 -1.305,-1 -2.652,-1.93 -4.008,-2.847 -0.387,0.792 -0.977,1.542 -1.043,2.453 z"
           style="fill:#014189;fill-opacity:1;fill-rule:nonzero;stroke:#014189;stroke-width:0.0600271;stroke-linecap:butt;stroke-linejoin:miter;stroke-miterlimit:10.43;stroke-dasharray:none;stroke-opacity:1"
           id="path292" />
      </g>
      <g
         id="g294">
        <path
           d="m 39.879,196.012 c 1.683,1.41 2.703,3.414 4.07,5.101 l -0.41,0.34 c -0.348,-0.211 -1.055,-0.641 -1.41,-0.859 -2.441,1.25 -4.559,3.094 -6.738,4.746 -0.965,0.476 -0.305,1.402 -0.133,2.156 -0.121,0.09 -0.36,0.277 -0.485,0.371 -1.246,-1.789 -2.675,-3.457 -3.734,-5.367 0.949,0.25 1.941,1.402 2.856,0.48 2.152,-1.546 4.437,-2.98 6.332,-4.847 -0.075,-0.715 -0.239,-1.418 -0.348,-2.121 z"
           style="fill:#014189;fill-opacity:1;fill-rule:nonzero;stroke:#014189;stroke-width:0.0600271;stroke-linecap:butt;stroke-linejoin:miter;stroke-miterlimit:10.43;stroke-dasharray:none;stroke-opacity:1"
           id="path296" />
      </g>
      <g
         id="g298">
        <path
           d="m 42.605,207.828 c 0.278,-1.762 2.211,-3 3.93,-2.551 2.336,0.543 3.903,2.672 4.574,4.864 -0.714,0.968 -1.449,1.933 -2.316,2.777 0.078,-1.82 1.25,-4.121 -0.371,-5.586 -0.981,-1.016 -2.762,-0.41 -2.996,0.953 -0.215,1.848 1.191,3.488 0.984,5.356 -0.113,1.925 -2.457,3.043 -4.152,2.386 -1.867,-0.582 -2.926,-2.328 -3.86,-3.914 0.723,-0.828 1.34,-1.859 2.45,-2.222 -0.258,1.332 -1.157,2.937 -0.055,4.125 0.824,1.179 2.93,0.586 2.953,-0.875 -0.176,-1.813 -1.41,-3.446 -1.141,-5.313 z"
           style="fill:#014189;fill-opacity:1;fill-rule:nonzero;stroke:#014189;stroke-width:0.0600271;stroke-linecap:butt;stroke-linejoin:miter;stroke-miterlimit:10.43;stroke-dasharray:none;stroke-opacity:1"
           id="path300" />
      </g>
      <g
         id="g302">
        <path
           d="m 167.359,211.379 c 1.543,-1.852 3.207,-3.609 5.024,-5.199 -0.113,0.976 -1.078,2.222 -0.051,3.015 1.945,2 4.027,3.864 6.035,5.797 0.477,-0.629 1.016,-1.222 1.399,-1.914 0.175,-0.98 -0.317,-1.953 -0.391,-2.922 0.937,0.879 1.824,1.824 2.68,2.789 -1.535,0.75 -2.586,2.129 -3.75,3.328 -1.321,1.438 -2.875,2.707 -3.766,4.485 -0.969,-0.809 -1.934,-1.613 -2.832,-2.496 0.855,-0.121 1.652,0.23 2.477,0.371 0.961,-0.203 1.566,-1.106 2.308,-1.676 -2.058,-1.922 -4.015,-3.941 -6.121,-5.805 -0.894,-0.964 -1.973,0.223 -3.012,0.227 z"
           style="fill:#014189;fill-opacity:1;fill-rule:nonzero;stroke:#014189;stroke-width:0.0600271;stroke-linecap:butt;stroke-linejoin:miter;stroke-miterlimit:10.43;stroke-dasharray:none;stroke-opacity:1"
           id="path304" />
      </g>
      <g
         id="g306">
        <path
           d="m 52.434,215.59 c 0.48,-1.125 1.562,-1.758 2.472,-2.488 2.559,2.32 5.528,4.203 7.813,6.804 -0.903,-0.015 -2.082,-1.051 -2.778,-0.097 -1.847,2.078 -3.711,4.171 -5.23,6.507 0.328,0.61 0.59,1.246 0.781,1.918 -2.644,-1.839 -4.996,-4.058 -7.515,-6.062 0.66,-0.91 1.246,-1.938 2.265,-2.5 -0.121,0.848 -0.406,1.672 -0.394,2.535 0.66,0.941 1.597,1.629 2.472,2.355 0.91,-1.007 1.785,-2.046 2.637,-3.097 -0.809,-0.641 -1.637,-1.27 -2.5,-1.836 -0.359,0.223 -1.082,0.664 -1.449,0.883 0.129,-1.578 1.59,-2.524 2.472,-3.684 0.047,0.688 -0.007,1.391 0.125,2.078 0.586,0.676 1.301,1.223 1.981,1.805 0.918,-1.086 1.797,-2.207 2.598,-3.383 -0.84,-1 -1.75,-2.023 -3.004,-2.488 -0.957,0.07 -1.828,0.512 -2.746,0.75 z"
           style="fill:#014189;fill-opacity:1;fill-rule:nonzero;stroke:#014189;stroke-width:0.0600271;stroke-linecap:butt;stroke-linejoin:miter;stroke-miterlimit:10.43;stroke-dasharray:none;stroke-opacity:1"
           id="path308" />
      </g>
      <g
         id="g310">
        <path
           d="m 160.891,217.469 c 0.754,-1.637 2.504,-2.586 4.054,-3.356 -1.48,2.055 -0.257,4.418 0.231,6.582 0.508,2.106 1.199,4.172 1.566,6.313 -0.156,0.129 -0.469,0.387 -0.621,0.515 -3.156,-1.605 -6.098,-3.621 -9.273,-5.211 -0.852,-0.464 -1.77,0.098 -2.633,0.215 1.047,-1.726 2.98,-2.593 4.433,-3.925 0.164,0.078 0.489,0.226 0.653,0.296 -0.215,0.282 -0.649,0.832 -0.863,1.11 0.761,0.547 1.55,1.066 2.347,1.578 0.93,-0.723 1.867,-1.449 2.801,-2.172 -0.309,-0.844 -0.629,-1.684 -0.953,-2.516 -0.582,0.192 -1.16,0.383 -1.742,0.571 z m 0.836,4.636 c 1.132,0.684 2.265,1.364 3.402,2.047 -0.375,-1.269 -0.758,-2.531 -1.137,-3.789 -0.758,0.578 -1.512,1.157 -2.265,1.742 z"
           style="fill:#014189;fill-opacity:1;fill-rule:nonzero;stroke:#014189;stroke-width:0.0600271;stroke-linecap:butt;stroke-linejoin:miter;stroke-miterlimit:10.43;stroke-dasharray:none;stroke-opacity:1"
           id="path312" />
      </g>
      <g
         id="g314">
        <path
           d="m 64.055,221.008 c 2.066,0.758 3.933,1.972 5.715,3.25 -0.434,0.031 -1.309,0.094 -1.747,0.129 -0.332,0.812 -0.406,1.695 -0.582,2.554 1.032,0.598 2.055,1.2 3.082,1.809 0.649,-0.613 1.297,-1.23 1.93,-1.859 -0.402,-0.508 -0.793,-1.02 -1.176,-1.539 1.789,0.457 3.34,1.511 4.766,2.648 -1.035,0.102 -2.223,-0.219 -3.113,0.473 -2.457,1.687 -4.789,3.55 -7.215,5.289 -0.531,0.445 -1.223,0.558 -1.891,0.652 0.414,-3.891 1.278,-7.719 1.485,-11.625 -0.438,-0.582 -0.856,-1.176 -1.254,-1.781 z m 3.218,7.008 c -0.211,1.304 -0.421,2.609 -0.628,3.922 1.035,-0.829 2.066,-1.649 3.089,-2.489 -0.824,-0.484 -1.644,-0.961 -2.461,-1.433 z"
           style="fill:#014189;fill-opacity:1;fill-rule:nonzero;stroke:#014189;stroke-width:0.0600271;stroke-linecap:butt;stroke-linejoin:miter;stroke-miterlimit:10.43;stroke-dasharray:none;stroke-opacity:1"
           id="path316" />
      </g>
      <g
         id="g318">
        <path
           d="m 144.098,228.035 c 1.785,-1.652 4.129,-2.531 6.281,-3.586 -0.414,0.696 -0.902,1.348 -1.262,2.078 1.149,2.856 2.824,5.465 4.235,8.192 0.699,-0.508 1.453,-0.961 2.078,-1.567 0.172,-0.871 0.121,-1.769 0.199,-2.64 0.828,0.996 1.336,2.207 1.855,3.386 -1.925,0.329 -3.539,1.454 -5.238,2.329 -1.519,0.82 -3.168,1.507 -4.367,2.804 -0.68,-1.121 -1.387,-2.238 -1.777,-3.5 0.73,0.449 1.418,0.985 2.179,1.387 0.965,0.016 1.793,-0.602 2.657,-0.961 -1.606,-2.664 -2.723,-5.633 -4.59,-8.129 -0.754,0.047 -1.5,0.113 -2.25,0.207 z"
           style="fill:#014189;fill-opacity:1;fill-rule:nonzero;stroke:#014189;stroke-width:0.0600271;stroke-linecap:butt;stroke-linejoin:miter;stroke-miterlimit:10.43;stroke-dasharray:none;stroke-opacity:1"
           id="path320" />
      </g>
      <g
         id="g322">
        <path
           d="m 77.027,228.234 c 1.657,0.45 3.715,1.11 4.172,3.004 0.586,1.571 0.192,3.785 1.981,4.617 0.425,-1.167 0.918,-2.332 1.113,-3.562 -0.473,-0.586 -1.012,-1.105 -1.508,-1.66 2.235,0.472 4.375,1.312 6.449,2.246 -0.691,0.23 -1.402,0.336 -2.132,0.32 -1.231,2.387 -2.016,4.973 -2.914,7.496 -0.598,1.086 0.687,1.821 1.132,2.66 -2.668,-0.882 -5.402,-1.699 -7.898,-3.015 -1.442,-0.715 -1.934,-2.711 -0.977,-4.008 0.617,-1.07 1.93,-1.16 3.008,-1.426 -0.465,-2.34 -1.109,-4.656 -2.426,-6.672 z m 2.399,11.922 c 0.574,0.36 1.215,0.578 1.844,0.836 0.597,-1.519 1.152,-3.051 1.691,-4.594 -0.93,-0.156 -1.883,-0.586 -2.816,-0.3 -1.477,0.648 -2.043,2.988 -0.719,4.058 z"
           style="fill:#014189;fill-opacity:1;fill-rule:nonzero;stroke:#014189;stroke-width:0.0600271;stroke-linecap:butt;stroke-linejoin:miter;stroke-miterlimit:10.43;stroke-dasharray:none;stroke-opacity:1"
           id="path324" />
      </g>
      <g
         id="g326">
        <path
           d="m 137.328,230.609 c 0.227,0.032 0.68,0.082 0.902,0.114 -0.535,0.382 -1.074,0.761 -1.621,1.136 0.739,2.977 1.579,6.008 2.985,8.735 0.39,0.015 1.168,0.039 1.562,0.054 0.063,0.125 0.192,0.379 0.254,0.504 -2.094,0.7 -4.152,1.524 -6.324,1.961 0.469,-0.777 1.871,-1.332 1.398,-2.414 -0.726,-2.418 -1.492,-4.844 -2.441,-7.183 -0.32,-0.996 -1.652,-0.461 -2.398,-0.758 1.718,-1.094 3.742,-1.617 5.683,-2.149 z"
           style="fill:#014189;fill-opacity:1;fill-rule:nonzero;stroke:#014189;stroke-width:0.0600271;stroke-linecap:butt;stroke-linejoin:miter;stroke-miterlimit:10.43;stroke-dasharray:none;stroke-opacity:1"
           id="path328" />
      </g>
      <g
         id="g330">
        <path
           d="m 96.129,234.258 c 2.219,0.195 4.391,0.664 6.586,1.015 -0.008,0.137 -0.027,0.407 -0.043,0.543 -0.61,0.223 -1.738,-0.027 -1.848,0.872 -0.621,2.679 -1.086,5.41 -1.347,8.144 0.464,0.586 1.031,1.078 1.543,1.629 -2.797,-0.457 -5.696,-0.641 -8.368,-1.629 -2.082,-0.766 -2.468,-3.734 -0.894,-5.176 1.625,-1.383 4.027,-1.297 5.894,-0.468 0.086,-1.145 0.547,-2.336 0.254,-3.458 -0.57,-0.519 -1.211,-0.957 -1.777,-1.472 z m -1.199,5.644 c -1.176,0.602 -1.551,2.16 -1.223,3.36 0.402,1.133 1.688,1.468 2.762,1.562 0.621,-1.551 0.679,-3.25 0.98,-4.879 -0.824,-0.093 -1.722,-0.449 -2.519,-0.043 z"
           style="fill:#014189;fill-opacity:1;fill-rule:nonzero;stroke:#014189;stroke-width:0.0600271;stroke-linecap:butt;stroke-linejoin:miter;stroke-miterlimit:10.43;stroke-dasharray:none;stroke-opacity:1"
           id="path332" />
      </g>
      <g
         id="g334">
        <path
           d="m 119.465,235.66 c 1.695,-1.758 4.402,-1.902 6.633,-1.281 0.437,1.117 0.855,2.246 1.129,3.422 -1.512,-0.86 -2.43,-2.875 -4.399,-2.785 -1.328,-0.012 -2.414,1.464 -1.652,2.664 1.16,1.785 3.765,1.191 5.297,2.508 1.55,1.117 1.257,3.64 -0.164,4.746 -1.5,1.308 -3.602,1.214 -5.465,1.175 -0.34,-1.086 -0.645,-2.195 -0.719,-3.332 1.113,0.852 1.961,2.582 3.602,2.34 1.449,-0.055 2.097,-2.16 0.855,-2.953 -1.559,-0.836 -3.531,-0.668 -4.934,-1.828 -1.378,-1.133 -1.429,-3.426 -0.183,-4.676 z"
           style="fill:#014189;fill-opacity:1;fill-rule:nonzero;stroke:#014189;stroke-width:0.0600271;stroke-linecap:butt;stroke-linejoin:miter;stroke-miterlimit:10.43;stroke-dasharray:none;stroke-opacity:1"
           id="path336" />
      </g>
      <g
         id="g338">
        <path
           d="m 109.023,239.074 c 2.016,-1.039 4.473,1.172 3.77,3.293 -0.379,1.879 -2.934,2.805 -4.375,1.492 -1.594,-1.214 -1.266,-4.019 0.605,-4.785 z"
           style="fill:#014189;fill-opacity:1;fill-rule:nonzero;stroke:#014189;stroke-width:0.0600271;stroke-linecap:butt;stroke-linejoin:miter;stroke-miterlimit:10.43;stroke-dasharray:none;stroke-opacity:1"
           id="path340" />
      </g>
      <g
         id="g342">
        <path
           d="m 174.258,121.551 c 0.777,-0.274 1.051,-0.02 0.816,0.761 -0.781,0.274 -1.054,0.02 -0.816,-0.761 z"
           style="fill:#1b2a98;fill-opacity:1;fill-rule:nonzero;stroke:#1b2a98;stroke-width:0.0600271;stroke-linecap:butt;stroke-linejoin:miter;stroke-miterlimit:10.43;stroke-dasharray:none;stroke-opacity:1"
           id="path344" />
      </g>
    </g>
  </g>
</svg>
