<?xml version="1.0" encoding="UTF-8" standalone="no"?>
<svg
   xmlns:dc="http://purl.org/dc/elements/1.1/"
   xmlns:cc="http://creativecommons.org/ns#"
   xmlns:rdf="http://www.w3.org/1999/02/22-rdf-syntax-ns#"
   xmlns:svg="http://www.w3.org/2000/svg"
   xmlns="http://www.w3.org/2000/svg"
   xmlns:sodipodi="http://sodipodi.sourceforge.net/DTD/sodipodi-0.dtd"
   xmlns:inkscape="http://www.inkscape.org/namespaces/inkscape"
   viewBox="0 0 152.00026 199.99972"
   height="199.99973"
   width="152.00026"
   xml:space="preserve"
   id="svg2"
   version="1.1"
   sodipodi:docname="ubc.svg"
   inkscape:version="0.92.4 (5da689c313, 2019-01-14)"><sodipodi:namedview
     pagecolor="#ffffff"
     bordercolor="#666666"
     borderopacity="1"
     objecttolerance="10"
     gridtolerance="10"
     guidetolerance="10"
     inkscape:pageopacity="0"
     inkscape:pageshadow="2"
     inkscape:window-width="796"
     inkscape:window-height="480"
     id="namedview19"
     showgrid="false"
     fit-margin-top="10"
     fit-margin-left="10"
     fit-margin-right="10"
     fit-margin-bottom="10"
     inkscape:zoom="0.89371366"
     inkscape:cx="75.997603"
     inkscape:cy="107.8864"
     inkscape:window-x="0"
     inkscape:window-y="25"
     inkscape:window-maximized="0"
     inkscape:current-layer="svg2" /><metadata
     id="metadata8"><rdf:RDF><cc:Work
         rdf:about=""><dc:format>image/svg+xml</dc:format><dc:type
           rdf:resource="http://purl.org/dc/dcmitype/StillImage" /><dc:title></dc:title></cc:Work></rdf:RDF></metadata><defs
     id="defs6" /><g
     transform="matrix(1.3333333,0,0,-1.3333333,-56.222398,224.14666)"
     id="g10"><g
       transform="scale(0.1)"
       id="g12"><path
         id="path14"
         style="fill:#0e1531;fill-opacity:1;fill-rule:nonzero;stroke:none"
         d="m 991.664,1104.76 52.776,-382.881 173.47,289.851 -73.61,-318.808 187.01,178.906 -97.38,-236.199 155.59,116.121 C 1317.1,554.66 1253.98,444.16 991.668,354.34 v 0 0 C 729.352,444.16 666.234,554.66 593.816,751.75 l 155.586,-116.121 -97.375,236.199 187,-178.906 -73.601,318.808 173.465,-289.851 52.777,382.881 h -0.004"
         inkscape:connector-curvature="0" /><path
         id="path16"
         style="fill:#0e1531;fill-opacity:1;fill-rule:nonzero;stroke:none"
         d="m 716.871,1233.04 c -79.484,0 -126.945,42.53 -126.945,114 v 171.08 h 65.894 v -168.39 c 0,-41.52 21.832,-64.35 61.563,-64.35 40.738,0 62.34,21.87 62.34,63.17 v 169.57 h 66.332 v -169.95 c 0,-71.03 -49.496,-115.13 -129.184,-115.13"
         inkscape:connector-curvature="0" /><path
         id="path18"
         style="fill:#0e1531;fill-opacity:1;fill-rule:nonzero;stroke:none"
         d="m 994.137,1237.78 h -92.028 v 280.34 h 93.395 c 68.276,0 105.896,-26.51 105.896,-74.46 0,-25.23 -13.16,-44.65 -38.28,-56.55 33.67,-11.89 50.78,-34.13 50.78,-66.29 0,-53.59 -42.5,-83.04 -119.763,-83.04 m -28.36,46.81 h 28.36 c 25.623,0 56.093,6.55 56.093,37.8 0,32.21 -30.98,39.06 -57.035,39.06 h -27.418 z m 0,120.91 h 23.946 c 32.067,0 49.807,12.03 49.807,33.84 0,21.45 -15.47,31.9 -47.194,31.9 h -26.559 v -65.74"
         inkscape:connector-curvature="0" /><path
         id="path20"
         style="fill:#0e1531;fill-opacity:1;fill-rule:nonzero;stroke:none"
         d="m 1298.47,1233.04 c -90.74,0 -149.33,56.66 -149.33,144.53 0,86.83 60.73,145.23 151.12,145.23 33.52,0 61.72,-6.6 86.22,-20.2 l 2.14,-1.19 -9.84,-57.09 -4.34,2.89 c -24.06,16.16 -46.95,23.61 -71.95,23.61 -53.91,0 -86.13,-34.74 -86.13,-92.9 0,-57.1 33.32,-92.54 87.02,-92.54 25.44,0 50.48,7.64 76.53,23.32 l 4.3,2.58 9.29,-53.25 -2.07,-1.21 c -26.75,-15.31 -59.76,-23.78 -92.96,-23.78"
         inkscape:connector-curvature="0" /><path
         id="path22"
         style="fill:#0e1531;fill-opacity:1;fill-rule:nonzero;stroke:none"
         d="m 991.668,294.969 c -309.688,87.73 -457.5,292.191 -457.5,583.672 V 1568.6 H 1449.17 V 878.641 c 0,-291.481 -147.82,-495.942 -457.502,-583.672 z m -495,1311.131 V 873.949 c 0,-307.699 167.418,-530.48 495,-617.847 327.572,87.367 495.002,310.148 495.002,617.847 V 1606.1 H 496.668"
         inkscape:connector-curvature="0" /><path
         id="path24"
         style="fill:#0e1531;fill-opacity:1;fill-rule:nonzero;stroke:none"
         d="m 991.684,1138.48 c 69.016,0 78.356,-28 133.946,-27.66 55.39,-0.34 64.88,27.66 133.9,27.66 69.02,0 78.52,-28 133.95,-27.66 v 64.29 c -55.43,-0.38 -64.93,27.28 -133.95,27.28 -69.02,0 -78.51,-27.66 -133.9,-27.28 -55.59,-0.38 -64.93,27.28 -133.946,27.28 -69.032,0 -78.36,-27.66 -133.95,-27.28 -55.386,-0.38 -64.886,27.28 -133.906,27.28 -69.023,0 -78.555,-27.66 -133.941,-27.28 v -64.29 c 55.386,-0.34 64.918,27.66 133.941,27.66 69.02,0 78.52,-28 133.906,-27.66 55.59,-0.34 64.918,27.66 133.95,27.66"
         inkscape:connector-curvature="0" /><path
         id="path26"
         style="fill:#0e1531;fill-opacity:1;fill-rule:nonzero;stroke:none"
         d="m 1035.41,1022.32 c 33.3,-7.96 49.15,-23.172 90.22,-22.918 55.39,-0.347 64.88,27.658 133.9,27.658 69.02,0 78.52,-28.005 133.95,-27.658 v 64.278 c -55.43,-0.37 -64.93,27.28 -133.95,27.28 -69.02,0 -78.51,-27.65 -133.9,-27.28 -44.63,-0.3 -59.47,17.46 -99.29,24.48 l 9.07,-65.84"
         inkscape:connector-curvature="0" /><path
         id="path28"
         style="fill:#0e1531;fill-opacity:1;fill-rule:nonzero;stroke:none"
         d="m 857.738,999.402 c 41.055,-0.254 56.899,14.948 90.18,22.918 l 9.074,65.83 c -39.801,-7.02 -54.64,-24.77 -99.254,-24.47 -55.39,-0.37 -64.89,27.28 -133.91,27.28 -69.023,0 -78.555,-27.65 -133.941,-27.28 v -64.278 c 55.386,-0.347 64.918,27.658 133.941,27.658 69.02,0 78.52,-28.005 133.91,-27.658"
         inkscape:connector-curvature="0" /><path
         id="path30"
         style="fill:#0e1531;fill-opacity:1;fill-rule:nonzero;stroke:none"
         d="m 1051.42,906.219 c 18.83,-6.469 33.3,-14.379 55.66,-17.188 l 38.59,64.469 c -6.03,-0.82 -12.62,-1.289 -20.04,-1.238 -38.19,-0.25 -54.55,12.718 -83.43,20.859 l 9.22,-66.902"
         inkscape:connector-curvature="0" /><path
         id="path32"
         style="fill:#0e1531;fill-opacity:1;fill-rule:nonzero;stroke:none"
         d="m 1228.12,913.34 c 9.02,1.422 19.28,2.301 31.41,2.301 69.02,0 78.52,-28 133.95,-27.661 v 64.282 c -55.43,-0.371 -64.93,27.289 -133.95,27.289 -5.83,0 -11.21,-0.223 -16.26,-0.582 l -15.15,-65.629"
         inkscape:connector-curvature="0" /><path
         id="path34"
         style="fill:#0e1531;fill-opacity:1;fill-rule:nonzero;stroke:none"
         d="m 755.215,913.34 -15.152,65.629 c -5.04,0.359 -10.407,0.582 -16.235,0.582 -69.023,0 -78.555,-27.66 -133.941,-27.289 V 887.98 c 55.386,-0.339 64.918,27.661 133.941,27.661 12.117,0 22.371,-0.879 31.387,-2.301"
         inkscape:connector-curvature="0" /><path
         id="path36"
         style="fill:#0e1531;fill-opacity:1;fill-rule:nonzero;stroke:none"
         d="m 876.25,889.031 c 22.371,2.797 36.84,10.699 55.664,17.18 l 9.219,66.91 c -28.86,-8.152 -45.223,-21.109 -83.395,-20.859 -7.441,-0.051 -14.035,0.418 -20.074,1.25 l 38.586,-64.481"
         inkscape:connector-curvature="0" /></g></g></svg>