<?xml version="1.0" encoding="UTF-8" standalone="no"?>
<svg
   xmlns:dc="http://purl.org/dc/elements/1.1/"
   xmlns:cc="http://creativecommons.org/ns#"
   xmlns:rdf="http://www.w3.org/1999/02/22-rdf-syntax-ns#"
   xmlns:svg="http://www.w3.org/2000/svg"
   xmlns="http://www.w3.org/2000/svg"
   viewBox="0 0 245.39999 177.74667"
   height="177.74667"
   width="245.39999"
   xml:space="preserve"
   id="svg2"
   version="1.1"><metadata
     id="metadata8"><rdf:RDF><cc:Work
         rdf:about=""><dc:format>image/svg+xml</dc:format><dc:type
           rdf:resource="http://purl.org/dc/dcmitype/StillImage" /></cc:Work></rdf:RDF></metadata><defs
     id="defs6" /><g
     transform="matrix(1.3333333,0,0,-1.3333333,0,177.74667)"
     id="g10"><g
       transform="scale(0.1)"
       id="g12"><path
         id="path14"
         style="fill:none;stroke:#4f4c4c;stroke-width:18;stroke-linecap:butt;stroke-linejoin:miter;stroke-miterlimit:4;stroke-dasharray:none;stroke-opacity:1"
         d="m 790,662.754 c 0,-123.047 -99.719,-222.832 -222.832,-222.832 -123.047,0 -222.832,99.785 -222.832,222.832 0,123.086 99.785,222.832 222.832,222.832 C 690.281,885.586 790,785.84 790,662.754 Z" /><path
         id="path16"
         style="fill:none;stroke:#f1471d;stroke-width:9.60000038;stroke-linecap:round;stroke-linejoin:miter;stroke-miterlimit:4;stroke-dasharray:none;stroke-opacity:1"
         d="m 828.848,662.793 c 0,-144.531 -117.129,-261.672 -261.621,-261.672 -144.551,0 -261.68,117.141 -261.68,261.672 0,144.492 117.129,261.641 261.68,261.641 144.492,0 261.621,-117.149 261.621,-261.641 z" /><path
         id="path18"
         style="fill:none;stroke:#f79210;stroke-width:48;stroke-linecap:round;stroke-linejoin:miter;stroke-miterlimit:4;stroke-dasharray:none;stroke-opacity:1"
         d="m 879.883,662.793 c 0,-172.734 -139.973,-312.773 -312.656,-312.773 -172.723,0 -312.762,140.039 -312.762,312.773 0,172.656 140.039,312.703 312.762,312.703 172.683,0 312.656,-140.047 312.656,-312.703 z" /><path
         id="path20"
         style="fill:none;stroke:#b23314;stroke-width:18;stroke-linecap:round;stroke-linejoin:miter;stroke-miterlimit:4;stroke-dasharray:none;stroke-opacity:1"
         d="m 969.121,692.93 c 0,-215.039 -174.316,-389.391 -389.285,-389.391 -215.039,0 -389.367,174.352 -389.367,389.391 0,215.019 174.328,389.3 389.367,389.3 214.969,0 389.285,-174.281 389.285,-389.3 z" /><path
         id="path22"
         style="fill:none;stroke:#65808e;stroke-width:18;stroke-linecap:round;stroke-linejoin:miter;stroke-miterlimit:4;stroke-dasharray:none;stroke-opacity:1"
         d="m 1008.38,697.734 c 0,-233.769 -189.493,-423.265 -423.212,-423.265 -233.676,0 -423.164,189.496 -423.164,423.265 0,233.68 189.488,423.166 423.164,423.166 233.719,0 423.212,-189.486 423.212,-423.166 z" /><path
         id="path24"
         style="fill:none;stroke:#f9a70d;stroke-width:24;stroke-linecap:round;stroke-linejoin:miter;stroke-miterlimit:4;stroke-dasharray:none;stroke-opacity:1"
         d="m 1048.48,678.328 c 0,-286.238 -231.988,-518.308 -518.226,-518.308 -286.223,0 -518.2501,232.07 -518.2501,518.308 0,286.184 232.0271,518.212 518.2501,518.212 286.238,0 518.226,-232.028 518.226,-518.212 z" /><path
         id="path26"
         style="fill:none;stroke:#f0397b;stroke-width:9.60000038;stroke-linecap:round;stroke-linejoin:miter;stroke-miterlimit:4;stroke-dasharray:none;stroke-opacity:1"
         d="M 1147.42,527.48 C 1147.42,238.828 913.406,4.80859 624.766,4.80859 336.133,4.80859 102.168,238.828 102.168,527.48 c 0,288.641 233.965,522.62 522.598,522.62 288.64,0 522.654,-233.979 522.654,-522.62 z" /><path
         id="path28"
         style="fill:none;stroke:#f25c19;stroke-width:9.60000038;stroke-linecap:round;stroke-linejoin:miter;stroke-miterlimit:4;stroke-dasharray:none;stroke-opacity:1"
         d="m 1263.85,744.121 c 0,-322.773 -267.014,-584.371 -596.311,-584.371 -329.285,0 -596.3007,261.598 -596.3007,584.371 0,322.639 267.0157,584.219 596.3007,584.219 329.297,0 596.311,-261.58 596.311,-584.219 z" /><path
         id="path30"
         style="fill:#4f4c4c;fill-opacity:1;fill-rule:nonzero;stroke:none"
         d="m 1079.68,567.578 v 205.059 h 40.03 V 603.301 h 93.03 v -35.723 h -133.06" /><path
         id="path32"
         style="fill:#4f4c4c;fill-opacity:1;fill-rule:nonzero;stroke:none"
         d="m 1280.97,543.391 c -3.17,-8.352 -6.62,-14.688 -11.22,-19.289 -8.66,-8.653 -19.88,-11.524 -32.26,-11.524 h -14.7 v 33.692 h 8.65 c 10.65,0 14.98,2.597 18.73,13.535 l 6.32,18.437 -51.27,139.395 h 39.46 l 31.11,-92.727 29.95,92.727 h 39.47 l -64.24,-174.246" /><path
         id="path34"
         style="fill:#4f4c4c;fill-opacity:1;fill-rule:nonzero;stroke:none"
         d="m 1439.08,679.043 c -4.31,4.316 -10.08,6.621 -17.57,6.621 -7.48,0 -12.96,-2.305 -17.26,-6.621 -7.79,-7.773 -8.65,-20.742 -8.65,-36.289 0,-15.547 0.86,-28.801 8.65,-36.582 4.3,-4.317 9.78,-6.621 17.26,-6.621 7.49,0 13.26,2.304 17.57,6.621 7.79,7.781 8.64,21.035 8.64,36.582 0,15.547 -0.85,28.516 -8.64,36.289 z m 29.09,-94.758 c -9.21,-9.793 -24.47,-18.426 -46.66,-18.426 -22.17,0 -37.13,8.633 -46.35,18.426 -13.54,14.113 -17,31.106 -17,58.469 0,27.07 3.46,44.062 17,58.176 9.22,9.793 24.18,18.425 46.35,18.425 22.19,0 37.45,-8.632 46.66,-18.425 13.54,-14.114 17,-31.106 17,-58.176 0,-27.363 -3.46,-44.356 -17,-58.469" /><path
         id="path36"
         style="fill:#4f4c4c;fill-opacity:1;fill-rule:nonzero;stroke:none"
         d="m 1608.14,567.578 v 90.723 c 0,20.449 -12.95,27.363 -24.76,27.363 -11.82,0 -25.05,-6.914 -25.05,-27.363 v -90.723 h -37.45 v 150.059 h 36.58 v -13.828 c 9.79,10.371 23.62,15.546 37.43,15.546 14.98,0 27.07,-4.89 35.44,-13.234 12.08,-12.105 15.26,-26.211 15.26,-42.625 v -95.918 h -37.45" /><path
         id="path38"
         style="fill:#4f4c4c;fill-opacity:1;fill-rule:nonzero;stroke:none"
         d="m 1803.1,567.578 v 164.746 l -41.76,-36.289 v 40.313 l 41.76,36.289 h 37.44 V 567.578 h -37.44" /><path
         id="path40"
         style="fill:#4f4c4c;fill-opacity:1;fill-rule:nonzero;stroke:none"
         d="m 493.34,731.387 v -83.516 h 0.066 c 0,-13.281 -10.73,-24.004 -23.972,-24.004 -13.184,0 -23.965,10.723 -23.965,24.004 h 0.117 v 76.211 h -39.961 v -76.211 c 0,-35.293 28.594,-63.828 63.809,-63.828 35.273,0 63.879,28.535 63.879,63.828 v 83.516 H 493.34" /><path
         id="path42"
         style="fill:#4f4c4c;fill-opacity:1;fill-rule:nonzero;stroke:none"
         d="M 591.543,570.254 V 681.699 H 550.762 V 531.816 h 96.211 v 38.438 h -55.43" /><path
         id="path44"
         style="fill:#4f4c4c;fill-opacity:1;fill-rule:nonzero;stroke:none"
         d="m 662.793,622.949 -13.359,0.02 -0.059,20.371 13.547,-0.117 c 6.148,-0.059 11.07,-4.434 11.004,-10.227 -0.047,-5.75 -4.973,-10.125 -11.133,-10.047 z m -1.746,76.973 c 6.375,-0.078 11.543,-4.668 11.543,-10.723 -0.07,-6.015 -5.285,-10.539 -11.672,-10.508 l -11.191,0.039 v 21.192 z m 38.902,-34.707 c 8.086,6.875 13.305,16.992 13.305,28.406 0,20.715 -16.828,37.5 -37.57,37.5 l -65.098,0.149 V 588.418 l 67.91,-0.059 c 22.922,0 41.492,18.575 41.492,41.485 0,15.066 -8.023,28.105 -20.039,35.371" /><path
         id="path46"
         style="fill:#4f4c4c;fill-opacity:1;fill-rule:nonzero;stroke:none"
         d="m 563.184,702.832 c -15.696,0 -28.477,12.734 -28.477,28.438 0,15.742 12.781,28.476 28.477,28.476 5.402,0 10.437,-1.621 14.714,-4.219 l 21.497,35.43 c -10.547,6.453 -22.903,10.234 -36.211,10.234 -38.606,0 -69.891,-31.308 -69.891,-69.921 0,-38.567 31.285,-69.856 69.891,-69.856 38.613,0 69.902,31.289 69.902,69.856 h -41.414 c 0,-15.704 -12.785,-28.438 -28.488,-28.438" /></g></g></svg>