<?xml version="1.0" encoding="UTF-8" standalone="no"?>
<svg
   xmlns:dc="http://purl.org/dc/elements/1.1/"
   xmlns:cc="http://creativecommons.org/ns#"
   xmlns:rdf="http://www.w3.org/1999/02/22-rdf-syntax-ns#"
   xmlns:svg="http://www.w3.org/2000/svg"
   xmlns="http://www.w3.org/2000/svg"
   xmlns:sodipodi="http://sodipodi.sourceforge.net/DTD/sodipodi-0.dtd"
   xmlns:inkscape="http://www.inkscape.org/namespaces/inkscape"
   inkscape:version="1.0 (4035a4fb49, 2020-05-01)"
   sodipodi:docname="ucbl.svg"
   viewBox="0 0 142.34399 149.57873"
   height="149.57874"
   width="142.34399"
   xml:space="preserve"
   id="svg2"
   version="1.1"><metadata
     id="metadata8"><rdf:RDF><cc:Work
         rdf:about=""><dc:format>image/svg+xml</dc:format><dc:type
           rdf:resource="http://purl.org/dc/dcmitype/StillImage" /><dc:title></dc:title></cc:Work></rdf:RDF></metadata><defs
     id="defs6" /><sodipodi:namedview
     inkscape:current-layer="g10"
     inkscape:window-maximized="0"
     inkscape:window-y="34"
     inkscape:window-x="0"
     inkscape:cy="80.764814"
     inkscape:cx="114.46179"
     inkscape:zoom="2.7792229"
     fit-margin-bottom="0"
     fit-margin-right="0"
     fit-margin-left="0"
     fit-margin-top="0"
     inkscape:pagecheckerboard="true"
     showgrid="false"
     id="namedview4"
     inkscape:window-height="1045"
     inkscape:window-width="1918"
     inkscape:pageshadow="2"
     inkscape:pageopacity="0"
     guidetolerance="10"
     gridtolerance="10"
     objecttolerance="10"
     borderopacity="1"
     bordercolor="#666666"
     pagecolor="#ffffff" /><g
     transform="matrix(1.3333333,0,0,-1.3333333,-391.55066,162.748)"
     inkscape:label="ink_ext_XXXXXX"
     inkscape:groupmode="layer"
     id="g10"><g
       transform="scale(0.1)"
       id="g12"><path
         id="path14"
         style="fill:#4f4c4c;fill-opacity:1;fill-rule:nonzero;stroke:none"
         d="m 3413.9,836.414 c -99.22,0 -179.94,-80.719 -179.94,-179.934 0,-99.218 80.72,-179.933 179.94,-179.933 99.22,0 179.94,80.715 179.94,179.933 0,99.215 -80.72,179.934 -179.94,179.934 z m 0,-375.023 c -107.58,0 -195.1,87.519 -195.1,195.089 0,107.567 87.52,195.083 195.1,195.083 107.57,0 195.09,-87.516 195.09,-195.083 0,-107.57 -87.52,-195.089 -195.09,-195.089 v 0" /><path
         id="path16"
         style="fill:#f1471d;fill-opacity:1;fill-rule:nonzero;stroke:none"
         d="m 3413.94,872.645 c -119.18,0 -216.15,-96.957 -216.15,-216.137 0,-119.188 96.97,-216.153 216.15,-216.153 119.18,0 216.13,96.965 216.13,216.153 0,119.18 -96.95,216.137 -216.13,216.137 z m 0,-440.375 c -123.65,0 -224.23,100.593 -224.23,224.238 0,123.633 100.58,224.215 224.23,224.215 123.63,0 224.21,-100.582 224.21,-224.215 0,-123.645 -100.58,-224.238 -224.21,-224.238 v 0" /><path
         id="path18"
         style="fill:#f79210;fill-opacity:1;fill-rule:nonzero;stroke:none"
         d="m 3413.94,899.457 c -133.99,0 -242.99,-108.988 -242.99,-242.949 0,-133.985 109,-242.988 242.99,-242.988 133.95,0 242.93,109.003 242.93,242.988 0,133.961 -108.98,242.949 -242.93,242.949 z m 0,-526.328 c -156.26,0 -283.38,127.117 -283.38,283.379 0,156.234 127.12,283.34 283.38,283.34 156.22,0 283.32,-127.106 283.32,-283.34 0,-156.262 -127.1,-283.379 -283.32,-283.379 v 0" /><path
         id="path20"
         style="fill:#b23314;fill-opacity:1;fill-rule:nonzero;stroke:none"
         d="m 3424.55,1001.88 c -176.48,0 -320.07,-143.556 -320.07,-320.013 0,-176.504 143.59,-320.086 320.07,-320.086 176.46,0 320.01,143.582 320.01,320.086 0,176.457 -143.55,320.013 -320.01,320.013 z m 0,-655.255 c -184.84,0 -335.22,150.391 -335.22,335.242 0,184.813 150.38,335.163 335.22,335.163 184.81,0 335.17,-150.35 335.17,-335.163 0,-184.851 -150.36,-335.242 -335.17,-335.242 v 0" /><path
         id="path22"
         style="fill:#65808e;fill-opacity:1;fill-rule:nonzero;stroke:none"
         d="m 3429.04,1034.43 c -192.16,0 -348.5,-156.34 -348.5,-348.508 0,-192.219 156.34,-348.594 348.5,-348.594 192.2,0 348.57,156.375 348.57,348.594 0,192.168 -156.37,348.508 -348.57,348.508 z m 0,-712.258 c -200.51,0 -363.66,163.183 -363.66,363.75 0,200.523 163.15,363.658 363.66,363.658 200.56,0 363.72,-163.135 363.72,-363.658 0,-200.567 -163.16,-363.75 -363.72,-363.75 v 0" /><path
         id="path24"
         style="fill:#f9a70d;fill-opacity:1;fill-rule:nonzero;stroke:none"
         d="m 3382.85,1095.57 c -234.91,0 -426.02,-191.093 -426.02,-425.976 0,-234.934 191.11,-426.055 426.02,-426.055 234.88,0 425.97,191.121 425.97,426.055 0,234.883 -191.09,425.976 -425.97,425.976 z m 0,-872.23 c -246.04,0 -446.22,200.187 -446.22,446.254 0,246.019 200.18,446.176 446.22,446.176 246.02,0 446.16,-200.157 446.16,-446.176 0,-246.067 -200.14,-446.254 -446.16,-446.254 v 0" /><path
         id="path26"
         style="fill:#f0397b;fill-opacity:1;fill-rule:nonzero;stroke:none"
         d="m 3462.36,978.387 c -240.26,0 -435.72,-195.469 -435.72,-435.727 0,-240.301 195.46,-435.801 435.72,-435.801 240.3,0 435.78,195.5 435.78,435.801 0,240.258 -195.48,435.727 -435.78,435.727 z m 0,-879.6175 c -244.71,0 -443.81,199.1325 -443.81,443.8905 0,244.719 199.1,443.805 443.81,443.805 244.75,0 443.87,-199.086 443.87,-443.805 0,-244.758 -199.12,-443.8905 -443.87,-443.8905 v 0" /><path
         id="path28"
         style="fill:#f25c19;fill-opacity:1;fill-rule:nonzero;stroke:none"
         d="m 3498.36,1212.53 c -274.46,0 -497.74,-218.725 -497.74,-487.577 0,-268.926 223.28,-487.703 497.74,-487.703 274.47,0 497.76,218.777 497.76,487.703 0,268.852 -223.29,487.577 -497.76,487.577 z m 0,-983.37 c -278.92,0 -505.83,222.414 -505.83,495.793 0,273.305 226.91,495.657 505.83,495.657 278.93,0 505.85,-222.352 505.85,-495.657 0,-273.379 -226.92,-495.793 -505.85,-495.793 v 0" /><path
         id="path86"
         style="fill:#4f4c4c;fill-opacity:1;fill-rule:nonzero;stroke:none"
         d="m 3351.77,714.234 v -70.285 h 0.07 c 0,-11.172 -9.04,-20.195 -20.19,-20.195 -11.08,0 -20.17,9.023 -20.17,20.195 h 0.11 v 64.141 h -33.62 v -64.141 c 0,-29.687 24.06,-53.711 53.68,-53.711 29.7,0 53.76,24.024 53.76,53.711 v 70.285 h -33.64" /><path
         id="path88"
         style="fill:#4f4c4c;fill-opacity:1;fill-rule:nonzero;stroke:none"
         d="m 3434.41,578.656 v 93.77 h -34.33 V 546.313 h 80.97 v 32.343 h -46.64" /><path
         id="path90"
         style="fill:#4f4c4c;fill-opacity:1;fill-rule:nonzero;stroke:none"
         d="m 3494.36,622.984 -11.24,0.02 -0.04,17.137 11.38,-0.098 c 5.2,-0.051 9.33,-3.73 9.28,-8.602 -0.04,-4.843 -4.19,-8.527 -9.38,-8.457 z m -1.47,64.774 c 5.37,-0.067 9.73,-3.938 9.73,-9.024 -0.06,-5.058 -4.45,-8.867 -9.84,-8.836 l -9.4,0.028 v 17.832 z m 32.74,-29.199 c 6.81,5.781 11.2,14.296 11.2,23.894 0,17.445 -14.15,31.555 -31.62,31.555 l -54.78,0.129 V 593.91 l 57.14,-0.039 c 19.31,0 34.93,15.625 34.93,34.922 0,12.668 -6.75,23.645 -16.87,29.766" /><path
         id="path92"
         style="fill:#4f4c4c;fill-opacity:1;fill-rule:nonzero;stroke:none"
         d="m 3410.55,690.199 c -13.22,0 -23.96,10.723 -23.96,23.938 0,13.242 10.74,23.965 23.96,23.965 4.54,0 8.79,-1.368 12.38,-3.547 l 18.11,29.804 c -8.88,5.442 -19.28,8.614 -30.49,8.614 -32.49,0 -58.81,-26.336 -58.81,-58.836 0,-32.453 26.32,-58.782 58.81,-58.782 32.48,0 58.82,26.329 58.82,58.782 h -34.85 c 0,-13.215 -10.76,-23.938 -23.97,-23.938" /></g></g></svg>
