<?xml version="1.0" encoding="UTF-8" standalone="no"?>
<svg
   xmlns:dc="http://purl.org/dc/elements/1.1/"
   xmlns:cc="http://creativecommons.org/ns#"
   xmlns:rdf="http://www.w3.org/1999/02/22-rdf-syntax-ns#"
   xmlns:svg="http://www.w3.org/2000/svg"
   xmlns="http://www.w3.org/2000/svg"
   xmlns:sodipodi="http://sodipodi.sourceforge.net/DTD/sodipodi-0.dtd"
   xmlns:inkscape="http://www.inkscape.org/namespaces/inkscape"
   viewBox="0 0 258.66666 258.66666"
   height="258.66666"
   width="258.66666"
   xml:space="preserve"
   id="svg2"
   version="1.1"
   sodipodi:docname="umea.svg"
   inkscape:version="0.92.4 (5da689c313, 2019-01-14)"><sodipodi:namedview
     pagecolor="#ffffff"
     bordercolor="#666666"
     borderopacity="1"
     objecttolerance="10"
     gridtolerance="10"
     guidetolerance="10"
     inkscape:pageopacity="0"
     inkscape:pageshadow="2"
     inkscape:window-width="1280"
     inkscape:window-height="738"
     id="namedview32"
     showgrid="false"
     inkscape:zoom="0.91237117"
     inkscape:cx="58.090393"
     inkscape:cy="129.33333"
     inkscape:window-x="0"
     inkscape:window-y="25"
     inkscape:window-maximized="1"
     inkscape:current-layer="svg2" /><metadata
     id="metadata8"><rdf:RDF><cc:Work
         rdf:about=""><dc:format>image/svg+xml</dc:format><dc:type
           rdf:resource="http://purl.org/dc/dcmitype/StillImage" /><dc:title></dc:title></cc:Work></rdf:RDF></metadata><defs
     id="defs6" /><g
     transform="matrix(1.3333333,0,0,-1.3333333,0,258.66667)"
     id="g10"><g
       transform="scale(0.1)"
       id="g12"><path
         id="path14"
         style="fill:#ffffff;fill-opacity:0;fill-rule:evenodd;stroke:none"
         d="M 2.59766,1933.23 H 1930.16 V 5.66797 H 2.59766 V 1933.23"
         inkscape:connector-curvature="0" /><path
         id="path16"
         style="fill:#293d9b;fill-opacity:1;fill-rule:evenodd;stroke:none"
         d="M 612.512,1193.85 H 1361.24 V 546.531 H 612.512 v 647.319" /><path
         id="path18"
         style="fill:#293d9b;fill-opacity:1;fill-rule:evenodd;stroke:none"
         d="M 987.957,1508.88 612.512,1228.38 H 1361.24 Z" /><path
         id="path20"
         style="fill:#293d9b;fill-opacity:1;fill-rule:evenodd;stroke:none"
         d="m 985.797,151.672 c 21.583,0 38.843,15.101 38.843,36.68 0,21.578 -17.26,38.839 -38.843,38.839 -21.574,0 -36.68,-17.261 -36.68,-38.839 0,-21.579 15.106,-36.68 36.68,-36.68" /><path
         id="path22"
         style="fill:#293d9b;fill-opacity:1;fill-rule:evenodd;stroke:none"
         d="m 603.879,274.66 c 17.266,36.68 43.156,58.258 79.836,43.156 36.68,-19.421 36.68,-49.628 19.422,-90.625 L 677.246,173.25 c -10.789,-25.895 -12.949,-30.211 -28.051,-23.734 l -6.476,2.156 c -2.156,0 -4.317,-4.317 -2.156,-6.473 12.945,-4.316 19.417,-8.633 30.207,-12.949 10.789,-4.316 17.261,-8.633 30.21,-15.105 2.157,0 4.313,4.316 4.313,4.316 l -6.473,4.316 c -15.105,8.633 -12.949,12.95 0,38.844 l 25.895,58.258 c 15.105,30.203 17.262,49.625 8.629,66.887 -6.469,17.261 -23.739,28.05 -38.84,36.679 -19.418,8.629 -40.996,10.785 -56.102,4.317 -21.574,-8.633 -34.523,-30.211 -45.308,-51.785 l -12.949,-28.051 c -6.473,-15.102 -19.418,-43.156 -28.051,-49.633 -2.156,-2.152 -8.629,-2.152 -15.102,0 l -4.316,2.164 c -2.16,0 -4.317,-4.316 -4.317,-6.473 10.789,-4.32 17.266,-6.472 28.051,-10.789 8.629,-4.32 17.262,-8.636 28.051,-15.105 0,2.16 2.156,4.316 2.156,6.469 l -6.472,4.316 c -4.317,2.16 -8.629,6.477 -8.629,10.789 -2.164,8.629 10.785,36.68 19.418,53.945 l 12.945,28.051" /><path
         id="path24"
         style="fill:#293d9b;fill-opacity:1;fill-rule:evenodd;stroke:none"
         d="m 357.895,406.281 c -8.629,-17.261 -17.258,-32.367 -25.891,-38.836 4.316,-6.48 8.633,-12.945 12.949,-17.265 4.313,-6.469 8.633,-10.789 12.942,-17.262 2.16,-2.156 4.32,0 6.476,2.156 l -2.156,4.317 c -8.629,15.109 -6.473,19.422 6.473,28.054 12.945,8.629 32.367,21.575 51.785,34.52 21.578,15.105 34.527,23.738 49.629,32.367 17.261,10.789 19.418,8.629 28.05,0 l 4.313,-4.316 c 2.156,0 4.316,2.16 4.316,4.316 -4.316,8.629 -10.789,15.106 -17.261,23.734 -6.473,6.473 -10.79,15.106 -17.262,23.735 -2.156,2.16 -4.317,-2.16 -4.317,-4.317 l 4.317,-8.632 c 6.472,-8.625 4.316,-12.946 -12.945,-23.731 -17.262,-15.105 -38.84,-28.051 -51.786,-38.84 -12.945,-8.633 -25.894,-17.261 -40.996,-25.89 v 0 c 6.469,12.945 15.102,25.89 21.578,36.679 L 414,468.852 c 8.629,12.949 21.578,41.003 30.207,51.789 0,2.156 0,2.156 0,4.316 -2.156,0 -2.156,0 -4.316,0 -12.946,-2.16 -38.836,-8.633 -66.891,-12.945 l -51.781,-8.637 c -12.949,-2.152 -36.684,-8.629 -38.84,-8.629 v 0 l 88.465,71.207 c 15.105,10.789 19.422,12.945 28.051,2.16 l 4.32,-6.472 c 2.156,0 6.469,2.156 6.469,6.472 -8.629,8.629 -15.102,17.258 -21.575,25.895 -6.476,6.469 -12.949,15.097 -19.421,25.887 0,0 -4.317,-2.157 -4.317,-4.313 l 4.317,-6.477 c 6.472,-12.945 0,-15.097 -10.793,-25.89 -28.043,-23.735 -69.04,-56.098 -92.778,-73.36 -15.101,-10.789 -19.418,-12.949 -32.367,0 l -2.156,4.313 c -2.16,0 -6.473,-2.156 -6.473,-4.313 6.473,-6.48 10.789,-12.949 15.102,-19.421 4.316,-4.313 6.476,-8.633 12.949,-17.262 8.629,8.629 25.891,10.789 53.945,15.105 l 56.098,10.789 c 15.105,4.309 30.211,6.469 45.312,8.629 v 0 c -4.312,-12.949 -10.789,-25.894 -17.261,-38.843 l -32.371,-62.571" /><path
         id="path26"
         style="fill:#293d9b;fill-opacity:1;fill-rule:evenodd;stroke:none"
         d="m 275.906,742.891 c 28.051,4.312 32.364,4.312 36.68,-10.793 l 4.316,-8.629 c 2.157,0 4.317,0 6.473,2.156 -4.316,15.102 -6.473,25.891 -8.629,36.684 l -4.316,23.734 c -4.313,23.734 -8.633,47.469 -12.95,73.363 -8.625,2.153 -30.207,4.317 -40.996,4.317 -2.156,-2.164 -2.156,-6.477 0,-6.477 15.106,-4.316 25.895,-10.785 30.211,-15.105 4.313,-4.313 6.473,-12.946 10.785,-34.52 4.317,-23.738 2.161,-28.055 0,-32.367 -4.312,-6.473 -12.945,-8.637 -28.046,-10.789 l -36.684,-8.637 c -6.477,0 -6.477,0 -8.629,8.637 l -4.316,15.101 c -2.16,10.789 -2.16,17.266 -2.16,21.579 0,6.476 4.32,8.632 8.628,10.789 l 10.793,4.312 c 0,2.16 0,6.477 -2.156,6.477 -6.476,-2.157 -15.105,-4.317 -25.894,-6.477 -8.629,-2.156 -19.422,-2.156 -25.891,-4.312 -2.16,0 -2.16,-6.473 0,-6.473 h 10.785 c 8.633,0 10.789,-2.16 10.789,-4.316 2.16,-4.313 4.317,-10.79 6.477,-23.735 l 4.312,-15.101 c 0,-8.637 0,-8.637 -6.472,-10.793 l -53.942,-10.789 c -10.789,0 -10.789,-2.157 -12.945,6.476 l -2.16,19.414 c -2.156,12.949 -4.313,21.582 -4.313,25.895 0,15.109 8.629,19.422 21.574,25.894 2.157,2.16 0,6.473 -2.156,6.473 -10.789,-2.156 -30.207,-8.633 -34.523,-10.789 2.156,-2.156 4.316,-19.414 8.633,-36.68 l 8.629,-49.625 c 2.156,-10.789 4.316,-21.578 6.472,-32.367 0,-2.156 4.317,0 6.473,0 v 4.316 c -2.156,17.262 2.156,19.418 30.207,23.735 l 94.941,19.422" /><path
         id="path28"
         style="fill:#293d9b;fill-opacity:1;fill-rule:evenodd;stroke:none"
         d="m 98.9727,1083.81 c -8.6289,2.15 -15.1055,8.63 -15.1055,17.26 2.1562,8.63 10.7851,12.95 19.4218,10.79 10.789,0 15.106,-8.64 15.106,-17.26 -2.157,-6.48 -8.629,-12.95 -19.4223,-10.79 z m -23.7344,9.42 v 7.84 c 2.1562,17.26 17.2617,25.89 30.2067,23.73 10.793,-2.15 19.422,-10.78 21.578,-21.58 10.79,2.16 21.579,4.32 32.364,6.48 l 114.363,21.58 c 23.73,4.32 28.047,6.47 32.367,19.42 v 6.47 c 2.153,2.16 6.469,0 8.629,0 -2.16,-12.95 -4.316,-21.57 -6.476,-34.52 -2.153,-12.95 -2.153,-21.58 -4.313,-30.21 0,-2.16 -4.316,-2.16 -6.477,0 v 8.63 c 0,4.31 0,8.63 -2.156,10.79 -4.316,0 -8.629,-2.16 -15.101,-2.16 l -38.844,-6.48 c -6.469,-2.15 -6.469,-2.15 -8.629,-10.78 l -4.316,-41 c -2.161,-6.47 -2.161,-8.63 4.316,-10.79 l 25.895,-12.94 c 12.945,-6.48 19.418,-8.64 21.578,-10.79 4.312,0 6.472,2.15 6.472,8.63 l 2.16,8.63 c 2.153,0 6.469,0 6.469,-2.16 0,-6.47 -2.156,-15.1 -4.316,-28.05 0,-8.634 -2.153,-19.419 -2.153,-25.888 -2.16,-2.16 -6.476,-2.16 -6.476,0 v 8.629 c 0,6.473 -2.156,12.945 -10.789,19.419 -12.945,6.47 -28.051,15.1 -56.102,32.37 l -69.047,36.68 c -8.628,4.31 -12.945,8.63 -21.574,10.78 -4.316,-10.78 -15.101,-17.26 -28.0545,-15.1 -10.6445,1.78 -19.8398,10.82 -21.5742,22.37 z m 90.6207,-18.05 c -8.629,4.31 -15.101,8.63 -15.101,8.63 v 2.15 c 2.156,0 10.789,2.16 17.262,2.16 l 45.312,8.63 c 8.633,2.16 8.633,2.16 8.633,-6.47 l -4.32,-32.37 c -2.157,-8.62 -2.157,-8.62 -8.629,-6.47 l -43.157,23.74" /><path
         id="path30"
         style="fill:#293d9b;fill-opacity:1;fill-rule:evenodd;stroke:none"
         d="m 416.16,1511.04 c 32.363,-25.9 45.313,-58.26 21.57,-88.47 -25.886,-32.37 -58.253,-23.73 -90.621,2.16 l -47.468,38.84 c -21.578,17.26 -23.735,21.57 -15.106,34.52 l 2.16,4.32 c 2.16,2.15 -2.16,4.31 -4.316,4.31 -8.629,-10.79 -12.945,-17.26 -21.578,-25.89 -6.473,-8.63 -12.942,-17.26 -21.578,-25.9 0,-2.15 4.316,-6.47 4.316,-6.47 l 6.477,6.47 c 10.785,10.8 15.101,8.64 36.679,-8.63 l 49.625,-40.99 c 25.895,-21.58 45.313,-28.06 62.575,-23.74 17.265,2.16 32.367,15.11 45.312,30.21 12.949,15.1 19.422,34.52 17.266,51.79 -4.317,23.73 -21.582,40.99 -38.844,56.1 l -23.734,19.42 c -12.946,10.79 -36.68,30.2 -41,38.84 -2.153,4.31 0,8.63 2.16,15.1 l 4.316,4.32 c 0,2.16 -2.156,6.47 -4.316,4.31 -6.469,-8.63 -10.789,-12.95 -19.418,-21.58 -6.469,-8.63 -12.946,-17.26 -19.418,-23.73 0,-2.16 2.156,-6.47 4.312,-6.47 l 6.473,6.47 c 4.316,4.31 8.633,6.47 12.949,6.47 8.633,-2.16 32.367,-21.57 45.313,-32.36 l 25.894,-19.42" /><path
         id="path32"
         style="fill:#293d9b;fill-opacity:1;fill-rule:evenodd;stroke:none"
         d="m 670.77,1709.55 c -4.313,10.79 -21.575,40.99 -21.575,51.78 0,2.16 2.157,6.48 10.785,12.95 l 2.161,2.16 c 0,2.15 0,4.31 -4.317,4.31 -6.472,-4.31 -12.949,-8.63 -23.738,-12.94 -8.629,-4.32 -17.258,-8.63 -28.047,-15.11 -2.16,-2.16 0,-6.47 2.156,-6.47 l 4.317,2.16 c 10.789,4.31 15.101,4.31 17.261,2.15 8.629,-4.31 25.891,-34.52 32.368,-47.47 l 25.89,-51.78 c 4.317,-4.32 6.473,-8.63 4.317,-8.63 v -2.16 c -17.262,6.47 -36.684,12.94 -62.575,23.74 l -36.679,12.94 c -12.949,6.48 -58.258,21.57 -69.047,32.37 -4.32,-2.16 -8.637,-4.32 -10.793,-6.48 -4.313,-2.16 -17.262,-10.78 -28.047,-15.1 -2.16,-2.16 0,-4.31 2.156,-6.47 l 4.313,2.16 c 6.476,2.15 12.945,4.31 17.265,2.15 8.629,-2.15 12.946,-6.47 15.106,-15.1 l 36.68,-69.05 c 6.472,-10.79 23.734,-41 23.734,-51.78 0,-2.16 -2.16,-6.48 -8.633,-10.79 l -4.312,-4.32 c -2.164,-2.16 0,-4.31 2.156,-4.31 8.629,4.31 15.101,8.63 25.894,12.94 8.629,4.32 17.262,8.64 28.047,15.1 0,2.16 0,4.32 -2.156,6.48 l -8.629,-4.32 c -6.473,-2.16 -10.789,-4.31 -15.105,-2.16 -6.469,6.48 -23.739,36.69 -30.207,47.48 l -28.051,53.94 c -4.317,6.47 -6.473,12.94 -6.473,15.11 v 2.15 c 8.633,-4.32 34.524,-15.11 45.309,-19.42 l 88.469,-32.36 c 34.523,-12.95 45.312,-19.42 51.785,-21.58 2.16,2.16 2.16,4.31 2.16,6.47 -4.32,4.32 -19.422,34.53 -23.735,41 l -30.21,58.26" /><path
         id="path34"
         style="fill:#293d9b;fill-opacity:1;fill-rule:evenodd;stroke:none"
         d="m 875.754,1690.13 c 4.316,-28.06 4.316,-32.37 -10.789,-36.69 l -6.477,-2.15 c -2.152,-2.16 0,-6.47 0,-6.47 15.114,2.15 23.742,4.31 34.528,6.47 10.789,2.15 19.418,2.15 34.523,4.31 0,2.16 0,6.47 -2.16,6.47 h -6.473 c -15.101,0 -17.261,4.32 -21.574,32.38 l -15.102,97.09 c -4.32,28.05 -4.32,32.37 10.786,36.68 l 6.472,2.16 c 2.157,0 0,4.32 -2.156,6.48 -12.945,-4.32 -21.578,-4.32 -32.367,-6.48 -10.789,-2.16 -21.578,-4.32 -34.524,-4.32 -2.16,-2.15 0,-6.47 0,-6.47 h 8.629 c 15.106,0 17.266,-4.31 21.582,-32.36 l 15.102,-97.1" /><path
         id="path36"
         style="fill:#293d9b;fill-opacity:1;fill-rule:evenodd;stroke:none"
         d="m 1117.42,1677.18 c 2.16,-12.94 4.31,-25.89 6.47,-38.84 h 2.16 c 2.16,-2.16 2.16,-2.16 4.31,0 6.48,12.95 25.9,41 41,62.57 l 21.58,30.21 c 19.42,25.9 34.52,45.32 43.15,56.11 4.32,4.31 10.79,6.47 17.27,6.47 l 6.47,-2.16 c 2.15,2.16 4.31,6.47 2.15,6.47 -8.62,2.16 -17.26,4.32 -25.89,6.48 -10.79,2.15 -21.57,4.31 -28.05,6.47 -2.16,-2.16 -4.31,-4.32 -2.16,-6.47 l 4.32,-2.16 c 8.63,-2.16 10.79,-6.47 10.79,-8.63 0,0 0,-4.32 -4.31,-8.63 -6.48,-10.79 -25.9,-38.84 -36.69,-56.1 -8.63,-12.95 -25.89,-36.68 -38.84,-53.94 -6.47,34.52 -12.94,66.88 -17.26,101.41 -4.31,21.57 -6.47,36.68 -6.47,40.99 0,2.16 2.16,2.16 12.94,2.16 h 4.32 c 2.16,0 2.16,4.32 2.16,6.47 -12.95,2.16 -21.58,2.16 -32.37,6.48 -12.94,2.16 -21.58,4.32 -28.05,6.47 -2.15,-2.15 -4.31,-4.31 -2.15,-6.47 l 4.31,-2.16 c 10.79,-4.32 15.1,-10.79 17.26,-25.89 l 21.58,-127.31" /><path
         id="path38"
         style="fill:#293d9b;fill-opacity:1;fill-rule:evenodd;stroke:none"
         d="m 1363.41,1593.03 c -17.27,-23.74 -19.43,-25.89 -34.53,-19.42 l -6.48,4.32 c -2.16,0 -4.31,-4.32 -4.31,-4.32 12.94,-10.79 21.57,-15.11 30.21,-21.57 l 21.57,-15.11 c 19.42,-12.95 38.84,-28.05 58.26,-41 6.48,2.16 25.89,17.27 32.37,23.74 0,2.16 -2.16,4.31 -4.32,4.31 -15.1,-6.47 -25.89,-10.78 -32.36,-10.78 -6.48,2.15 -12.95,4.31 -30.21,17.26 -19.42,15.1 -21.58,19.42 -23.74,23.73 0,6.47 4.32,15.1 12.95,25.89 l 21.57,32.37 c 4.32,6.47 4.32,6.47 10.79,2.16 l 12.95,-10.79 c 8.63,-4.31 15.1,-8.63 17.26,-12.95 4.32,-4.31 2.16,-8.63 0,-12.94 l -2.16,-10.79 c 0,-2.16 2.16,-4.32 4.32,-2.16 4.31,4.31 8.63,12.95 15.1,21.58 6.48,8.63 12.95,17.26 17.27,21.57 0,2.16 -4.32,4.32 -6.48,4.32 l -8.63,-8.63 c -4.31,-4.31 -6.47,-4.31 -10.79,-4.31 -2.16,2.15 -10.79,6.47 -19.41,12.94 l -12.95,8.63 c -6.48,4.32 -6.48,6.47 -2.16,12.95 l 30.21,43.15 c 6.47,8.63 6.47,10.79 12.94,4.32 l 17.27,-10.79 c 8.63,-6.47 15.11,-12.95 19.42,-17.27 10.79,-10.78 6.47,-19.41 2.15,-32.36 0,-2.16 4.32,-4.31 6.48,-4.31 6.47,10.78 15.1,28.05 17.26,32.36 -4.32,2.16 -17.26,10.79 -30.2,21.58 l -43.17,30.2 c -8.63,6.48 -17.25,10.79 -25.89,17.27 -2.15,2.16 -4.31,-2.16 -4.31,-4.32 l 4.31,-2.16 c 10.79,-10.79 8.64,-15.1 -6.47,-38.84 l -56.09,-79.83" /><path
         id="path40"
         style="fill:#293d9b;fill-opacity:1;fill-rule:evenodd;stroke:none"
         d="m 1564.07,1409.63 c -23.74,-15.11 -28.05,-17.27 -36.68,-4.32 l -6.48,4.32 c -2.15,0 -4.31,-2.16 -4.31,-4.32 8.63,-10.79 12.94,-17.26 19.42,-28.06 6.47,-8.62 10.79,-17.25 17.26,-25.89 2.16,-2.15 6.47,0 6.47,2.16 l -2.15,6.48 c -6.48,12.94 -4.32,15.1 19.42,32.36 l 28.04,19.42 c 4.32,2.16 4.32,2.16 12.95,-8.63 4.32,-8.63 4.32,-12.95 2.16,-19.42 -4.32,-15.1 -15.11,-34.52 -19.42,-47.47 -10.79,-30.21 -8.63,-45.31 4.31,-64.73 2.16,-4.32 4.32,-8.63 6.48,-10.79 2.16,0 4.31,2.16 4.31,4.32 -4.31,6.47 -6.47,12.94 -4.31,19.42 2.16,23.73 12.95,47.47 28.05,86.31 2.16,2.15 4.31,4.31 6.47,4.31 10.79,-8.64 34.52,-17.26 56.1,-2.16 15.11,10.79 21.58,25.9 19.42,38.84 -2.15,15.1 -8.63,30.2 -19.42,43.15 -15.1,23.74 -25.89,38.85 -34.52,49.63 -2.16,2.16 -6.47,0 -6.47,-4.31 l 4.31,-6.47 c 4.31,-10.79 0,-12.95 -19.42,-28.05 z m 114.36,51.78 c 6.47,4.32 6.47,4.32 17.26,-10.79 17.26,-25.89 6.47,-47.47 -10.79,-60.42 -15.11,-10.79 -25.89,-10.79 -36.68,-6.47 -8.63,2.16 -15.11,10.79 -21.58,19.42 -6.47,10.79 -8.63,15.1 -8.63,15.1 0,2.16 2.16,4.32 6.48,6.48 l 53.94,36.68" /><path
         id="path42"
         style="fill:#293d9b;fill-opacity:1;fill-rule:evenodd;stroke:none"
         d="m 1732.37,1085.96 c 25.9,8.64 34.52,30.21 36.68,51.79 l 6.47,23.74 c 2.16,12.94 6.48,28.05 21.58,34.52 12.95,4.31 30.21,6.47 41,-19.42 8.63,-23.74 -4.31,-38.84 -15.11,-45.31 -2.15,-2.16 0,-6.48 2.17,-6.48 10.78,4.32 23.73,10.8 30.2,17.27 -2.16,2.15 -2.16,4.31 -2.16,8.63 0,6.47 -2.15,17.26 -6.47,25.89 -12.94,32.36 -38.84,43.15 -62.57,34.52 -21.58,-8.63 -30.21,-28.05 -34.53,-45.31 l -6.47,-30.2 c -4.32,-23.74 -15.11,-30.22 -28.05,-34.53 -15.11,-6.47 -32.37,0 -41,21.58 -10.79,30.2 10.79,49.62 21.58,58.26 0,2.15 0,4.32 -2.16,6.47 -12.95,-6.47 -30.21,-17.27 -34.52,-21.58 0,-6.47 -2.16,-21.58 6.47,-43.15 12.95,-34.53 38.84,-47.47 66.89,-36.69" /><path
         id="path44"
         style="fill:#293d9b;fill-opacity:1;fill-rule:evenodd;stroke:none"
         d="m 1715.11,909.031 c -28.05,2.16 -32.37,4.317 -32.37,19.418 v 8.633 c -2.16,0 -6.47,0 -6.47,0 -2.16,-15.105 -2.16,-23.734 -4.31,-34.523 0,-12.95 -2.17,-21.582 -2.17,-34.524 0,-2.16 4.32,-2.16 6.48,-2.16 v 6.477 c 4.31,17.257 8.63,17.257 36.68,15.097 l 97.1,-10.785 c 30.21,-2.156 34.52,-4.312 34.52,-19.418 l -2.16,-8.629 c 2.16,0 6.48,0 8.64,0 0,15.106 0,23.735 2.15,34.52 0,10.789 2.16,21.582 4.32,34.527 0,2.156 -6.47,2.156 -6.47,2.156 l -2.16,-6.472 c -2.16,-17.266 -6.48,-17.266 -36.69,-15.106 l -97.09,10.789" /><path
         id="path46"
         style="fill:#293d9b;fill-opacity:1;fill-rule:evenodd;stroke:none"
         d="m 1764.73,609.105 c 8.64,-2.156 8.64,-2.156 6.48,-10.789 l -6.48,-17.257 c -6.46,-15.106 -12.94,-23.735 -19.41,-28.051 -4.32,-2.156 -12.95,0 -19.43,2.156 -2.15,-2.156 -4.31,-6.476 -2.15,-6.476 6.47,-2.157 25.89,-12.942 36.68,-19.418 0,0 2.16,2.16 2.16,4.316 -6.47,6.473 -4.31,8.633 0,21.578 l 40.99,103.57 c 6.48,10.789 8.63,19.422 17.27,17.266 2.15,2.156 2.15,4.313 2.15,6.469 -8.63,4.316 -23.73,15.105 -34.52,23.738 -2.16,0 -4.31,-2.156 -4.31,-6.473 6.47,-4.316 10.79,-8.629 12.94,-17.265 4.32,-8.629 -2.15,-23.735 -6.47,-34.524 L 1786.31,635 c -4.31,-8.629 -4.31,-8.629 -10.79,-4.312 L 1661.17,676 c -25.9,10.785 -30.21,12.941 -25.9,28.051 l 4.32,10.785 c 0,2.16 -6.48,2.16 -6.48,2.16 -6.47,-17.262 -8.62,-25.891 -12.94,-36.683 -4.32,-8.633 -8.63,-17.262 -15.11,-32.368 0,-2.156 4.32,-4.312 6.48,-2.156 l 4.31,6.477 c 6.48,15.101 10.79,12.945 36.69,2.156 l 112.19,-45.317" /><path
         id="path48"
         style="fill:#293d9b;fill-opacity:1;fill-rule:evenodd;stroke:none"
         d="m 1529.54,460.227 c -21.57,19.414 -21.57,23.734 -12.94,34.519 l 6.47,8.629 c 0,2.16 -4.31,4.32 -6.47,4.32 -10.79,-12.949 -17.26,-19.418 -23.73,-28.054 l -17.27,-17.258 c -17.26,-17.262 -36.68,-34.524 -53.94,-51.785 4.31,-6.477 12.95,-25.895 19.42,-34.524 2.15,-2.16 4.31,0 6.47,2.156 -6.47,15.106 -8.63,28.051 -6.47,32.368 2.15,6.472 6.47,12.945 21.57,28.05 17.27,17.258 23.74,19.418 28.06,19.418 6.47,0 12.94,-6.472 23.73,-17.265 l 28.05,-25.887 c 4.32,-6.476 4.32,-6.476 -2.16,-12.949 l -10.79,-10.789 c -6.47,-6.473 -12.94,-10.785 -15.1,-12.946 -4.31,-4.316 -8.63,-2.156 -12.95,0 l -10.78,6.473 c -2.16,0 -4.32,-2.156 -4.32,-4.312 4.32,-4.317 12.95,-10.789 19.42,-19.426 6.47,-6.465 15.1,-15.098 19.42,-19.414 2.16,0 4.31,2.16 4.31,4.316 l -6.47,10.789 c -4.31,4.309 -4.31,6.469 -2.16,10.789 2.16,2.157 6.48,8.629 15.11,17.258 l 10.79,10.789 c 6.47,6.473 6.47,6.473 12.94,2.156 l 38.84,-38.835 c 6.47,-8.633 6.47,-8.633 2.16,-15.102 l -15.11,-12.949 c -8.62,-8.633 -15.1,-15.106 -19.41,-17.262 -12.95,-8.629 -21.58,-2.16 -32.37,4.316 -2.16,0 -6.47,-4.316 -4.32,-6.476 8.64,-6.469 23.74,-19.414 28.06,-21.574 2.15,2.16 12.94,12.945 25.89,25.89 l 36.68,36.684 c 6.47,8.625 12.94,15.105 21.58,21.574 2.15,2.16 -2.16,6.477 -4.32,6.477 l -2.16,-4.317 c -12.94,-8.629 -17.26,-6.472 -36.68,12.946 l -69.05,71.207" /><path
         id="path50"
         style="fill:#293d9b;fill-opacity:1;fill-rule:evenodd;stroke:none"
         d="m 1300.83,153.828 c 2.15,-8.629 2.15,-8.629 -4.32,-12.945 l -17.26,-6.473 c -15.11,-6.476 -25.89,-8.633 -32.37,-6.476 -4.31,2.156 -10.79,10.793 -15.1,15.105 -2.16,2.16 -6.48,0 -6.48,-2.156 4.32,-8.633 10.79,-28.047 12.95,-41.0002 2.16,0 4.32,0 4.32,2.1602 2.15,8.629 4.31,8.629 17.26,15.102 l 101.41,43.156 c 12.95,4.32 19.42,8.629 25.89,2.16 0,-2.16 4.32,0 4.32,2.16 -2.16,10.785 -6.47,28.043 -6.47,40.992 -2.16,2.157 -6.48,2.157 -6.48,-2.156 0,-6.473 -2.15,-12.945 -4.31,-21.582 -4.32,-8.625 -17.26,-15.102 -28.05,-19.414 l -15.11,-6.477 c -6.47,-2.156 -6.47,-2.156 -10.79,6.477 l -47.47,112.199 c -10.79,25.891 -10.79,30.211 2.16,38.84 l 8.63,4.316 c 2.16,2.157 0,6.469 -2.15,6.469 -15.11,-8.629 -23.74,-12.945 -34.53,-17.258 -10.79,-4.316 -19.42,-6.476 -32.36,-12.945 -2.16,0 0,-6.477 2.16,-6.477 l 6.47,2.161 c 15.1,6.472 17.26,2.16 30.21,-23.739 l 47.47,-112.199" /><path
         id="path52"
         style="fill:#ffffff;fill-opacity:1;fill-rule:evenodd;stroke:none"
         d="m 897.332,824.879 c 19.418,21.582 77.676,62.57 66.891,64.73 -12.95,6.473 -28.051,4.317 -56.102,-25.886 12.945,45.308 -19.422,32.359 -8.633,36.679 38.84,15.102 12.946,34.52 23.735,25.891 71.203,-47.469 45.312,6.473 21.578,15.105 17.262,8.629 15.101,-10.789 28.051,12.946 8.628,15.105 -8.629,-10.789 15.105,-38.84 166.143,66.894 -43.156,77.68 -77.68,28.051 -10.789,-12.946 21.575,34.527 -12.945,38.843 -12.945,0 53.941,-2.16 10.789,30.202 -12.945,8.63 34.524,-25.889 36.68,17.26 10.789,-32.364 73.359,-58.255 34.527,-2.15 30.202,4.31 15.098,-34.526 53.942,-38.839 10.78,0 28.05,0 8.63,25.889 15.1,12.95 86.31,-75.518 -51.787,-118.678 2.153,-10.785 12.947,-8.633 25.897,-23.73 21.57,-2.161 45.31,0 45.31,0 0,-53.946 2.15,-101.414 2.15,-101.414 -15.1,8.628 -25.89,19.417 -25.89,19.417 -23.73,-62.57 -51.783,12.946 -66.889,25.891 -30.203,-10.785 -19.418,-8.625 -58.257,-19.414 -4.313,-2.156 -10.789,8.629 -15.102,28.047" /><path
         id="path54"
         style="fill:#293d9b;fill-opacity:1;fill-rule:evenodd;stroke:none"
         d="m 962.063,852.93 c -2.161,2.156 -2.161,6.476 2.16,8.629 2.156,4.316 6.468,4.316 8.629,2.164 2.156,0 0,-4.317 -2.161,-8.637 -4.312,-2.156 -8.628,-4.313 -8.628,-2.156" /><path
         id="path56"
         style="fill:#ffffff;fill-opacity:1;fill-rule:evenodd;stroke:none"
         d="m 1102.31,827.035 c 19.42,21.582 77.68,62.574 66.9,64.735 -12.95,4.312 -28.06,4.312 -56.11,-25.895 12.95,45.316 -19.42,32.367 -8.63,36.684 36.68,15.105 12.95,34.523 23.74,25.89 71.2,-47.472 45.31,6.473 21.58,15.106 15.1,8.633 15.1,-10.789 28.05,12.945 6.47,15.105 -8.63,-12.945 15.1,-38.836 166.15,66.887 -43.15,77.672 -79.84,28.047 -8.63,-12.945 23.74,34.527 -10.79,38.84 -12.94,0 51.79,-2.153 8.64,30.209 -12.95,8.63 36.68,-28.049 38.84,15.1 8.63,-30.204 71.2,-56.098 34.52,0 28.05,4.32 15.1,-34.524 51.78,-38.833 12.95,0 30.21,0 10.79,25.893 15.1,12.94 84.15,-75.522 -51.79,-120.838 0,-8.633 12.95,-6.473 25.9,-21.574 21.58,-4.317 43.15,0 43.15,0 0,-53.942 2.16,-101.414 2.16,-101.414 -12.94,8.633 -23.73,19.418 -23.73,19.418 -25.89,-62.571 -51.79,12.949 -66.89,25.894 -30.21,-10.785 -19.42,-8.629 -60.42,-19.418 -4.31,-2.156 -8.63,8.633 -12.95,28.047" /><path
         id="path58"
         style="fill:#293d9b;fill-opacity:1;fill-rule:evenodd;stroke:none"
         d="m 1164.89,855.086 c 0,2.16 0,6.473 4.32,8.637 2.15,4.312 6.47,4.312 8.63,2.152 0,0 0,-4.316 -4.32,-8.629 -2.16,-2.16 -6.47,-4.316 -8.63,-2.16" /><path
         id="path60"
         style="fill:#ffffff;fill-opacity:1;fill-rule:evenodd;stroke:none"
         d="m 694.504,827.035 c 19.422,21.582 77.68,62.574 69.043,64.735 -12.945,4.312 -30.203,4.312 -56.098,-25.895 10.789,45.316 -21.578,32.367 -10.789,36.684 38.84,15.105 12.945,34.523 25.895,25.89 69.05,-47.472 43.156,6.473 21.582,15.106 15.097,8.633 12.941,-10.789 25.886,12.945 8.633,15.105 -6.476,-12.945 17.262,-38.836 166.145,66.887 -45.308,77.672 -79.836,28.047 -8.629,-12.945 21.578,34.527 -12.945,38.84 -10.789,0 53.945,-2.153 10.789,30.209 -12.945,8.63 36.684,-28.049 38.844,15.1 8.629,-30.204 71.199,-56.098 32.355,0 30.219,4.32 15.113,-34.524 53.949,-38.833 10.786,0 28.047,0 10.786,25.893 12.949,12.94 84.152,-75.522 -51.786,-120.838 0,-8.633 10.789,-6.473 23.739,-21.574 23.734,-4.317 45.308,0 45.308,0 0,-53.942 2.164,-101.414 2.164,-101.414 -12.949,8.633 -23.738,19.418 -23.738,19.418 -25.891,-62.571 -53.941,12.949 -69.047,25.894 -28.047,-10.785 -17.265,-8.629 -58.262,-19.418 -4.312,-2.156 -8.625,8.633 -15.101,28.047" /><path
         id="path62"
         style="fill:#293d9b;fill-opacity:1;fill-rule:evenodd;stroke:none"
         d="m 759.234,855.086 c -2.156,2.16 0,6.473 2.161,8.637 4.316,4.312 6.472,4.312 8.628,2.152 2.161,0 2.161,-4.316 -2.156,-8.629 -2.156,-2.16 -6.472,-4.316 -8.633,-2.16" /></g></g></svg>