<?xml version="1.0" encoding="UTF-8" standalone="no"?>
<svg
   xmlns:dc="http://purl.org/dc/elements/1.1/"
   xmlns:cc="http://creativecommons.org/ns#"
   xmlns:rdf="http://www.w3.org/1999/02/22-rdf-syntax-ns#"
   xmlns:svg="http://www.w3.org/2000/svg"
   xmlns="http://www.w3.org/2000/svg"
   xmlns:sodipodi="http://sodipodi.sourceforge.net/DTD/sodipodi-0.dtd"
   xmlns:inkscape="http://www.inkscape.org/namespaces/inkscape"
   inkscape:version="1.0 (4035a4fb49, 2020-05-01)"
   sodipodi:docname="um.svg"
   viewBox="0 0 188.88464 188.88624"
   height="188.88625"
   width="188.88464"
   xml:space="preserve"
   id="svg2"
   version="1.1"><metadata
     id="metadata8"><rdf:RDF><cc:Work
         rdf:about=""><dc:format>image/svg+xml</dc:format><dc:type
           rdf:resource="http://purl.org/dc/dcmitype/StillImage" /><dc:title></dc:title></cc:Work></rdf:RDF></metadata><defs
     id="defs6"><clipPath
       id="clipPath22"
       clipPathUnits="userSpaceOnUse"><path
         id="path20"
         d="M 0,0 H 595 V 842 H 0 Z" /></clipPath><clipPath
       id="clipPath32"
       clipPathUnits="userSpaceOnUse"><path
         id="path30"
         d="M 0,7014.68 V 2.65625 H 4958 V 7014.68 Z" /></clipPath><clipPath
       id="clipPath42"
       clipPathUnits="userSpaceOnUse"><path
         id="path40"
         d="M 1888.76,4358.61 H 3069.23 V 5539.09 H 1888.76 Z" /></clipPath><clipPath
       id="clipPath240"
       clipPathUnits="userSpaceOnUse"><path
         id="path238"
         d="M 0,7014.68 V 2.65625 H 4958 V 7014.68 Z" /></clipPath></defs><sodipodi:namedview
     inkscape:current-layer="g10"
     inkscape:window-maximized="0"
     inkscape:window-y="34"
     inkscape:window-x="0"
     inkscape:cy="324.9414"
     inkscape:cx="-236.52092"
     inkscape:zoom="0.73265447"
     fit-margin-bottom="0"
     fit-margin-right="0"
     fit-margin-left="0"
     fit-margin-top="0"
     inkscape:pagecheckerboard="true"
     showgrid="false"
     id="namedview4"
     inkscape:window-height="1045"
     inkscape:window-width="1918"
     inkscape:pageshadow="2"
     inkscape:pageopacity="0"
     guidetolerance="10"
     gridtolerance="10"
     objecttolerance="10"
     borderopacity="1"
     bordercolor="#666666"
     pagecolor="#ffffff" /><g
     transform="matrix(1.3333333,0,0,-1.3333333,-302.2167,886.29869)"
     inkscape:label="um"
     inkscape:groupmode="layer"
     id="g10"><g
       transform="scale(1.00005)"
       id="g12"><g
         id="g14"><g
           id="g16"><g
             clip-path="url(#clipPath22)"
             id="g18"><g
               transform="scale(0.12)"
               id="g24"><g
                 id="g26"><g
                   clip-path="url(#clipPath32)"
                   id="g28"><path
                     id="path34"
                     style="fill:#e9374b;fill-opacity:1;fill-rule:nonzero;stroke:none"
                     d="m 3069.23,4949.78 -31.7,-44.04 24.66,-48.31 -38.16,-38.55 16.75,-51.6 -43.76,-32.04 8.4,-53.59 -48.26,-24.77 -0.09,-54.24 -51.52,-16.94 -8.53,-53.56 -53.55,-8.7 -16.77,-51.58 -54.24,-0.27 -24.6,-48.34 -53.62,8.25 -31.93,-43.87 -51.65,16.6 -38.4,-38.28 -48.4,24.48 -43.93,-31.82 -44.02,31.69 -48.33,-24.66 -38.56,38.16 -51.58,-16.73 -32.06,43.76 -53.58,-8.43 -24.78,48.27 -54.23,0.09 -16.93,51.53 -53.58,8.54 -8.7,53.53 -51.6,16.78 -0.25,54.23 -48.33,24.63 8.25,53.61 -43.86,31.91 16.59,51.64 -38.3,38.43 24.5,48.41 -31.82,43.92 31.68,44.03 -24.65,48.31 38.17,38.55 -16.75,51.59 43.75,32.05 -8.4,53.6 48.26,24.76 0.09,54.26 51.53,16.93 8.53,53.56 53.55,8.71 16.76,51.58 54.24,0.26 24.62,48.34 53.61,-8.25 31.91,43.85 51.66,-16.59 38.42,38.29 48.4,-24.49 43.93,31.83 44.02,-31.69 48.33,24.64 38.53,-38.16 51.6,16.76 32.04,-43.77 53.6,8.41 24.76,-48.27 54.26,-0.08 16.92,-51.54 53.56,-8.54 8.72,-53.53 51.59,-16.77 0.26,-54.24 48.33,-24.61 -8.24,-53.62 43.86,-31.92 -16.59,-51.64 38.29,-38.42 -24.51,-48.4" /></g></g><g
                 id="g36"><g
                   clip-path="url(#clipPath42)"
                   id="g38"><path
                     id="path44"
                     style="fill:#ffffff;fill-opacity:1;fill-rule:nonzero;stroke:none"
                     d="m 2754.99,4784.87 -146.9,389.96 c -5.78,15.34 -20.5,25.48 -36.88,25.48 -16.4,0 -31.09,-10.14 -36.89,-25.48 l -57.14,-151.13 -42.12,-111.54 -3.03,-7.94 v -0.03 c 0,0 -20.05,-53.09 -20.23,-53.69 -18.41,-56.83 -59.9,-72.05 -90.69,-62.09 -11.52,3.71 -29.67,13.42 -22.66,36.76 l 84.73,224.17 40.36,-106.72 42.53,110.49 -45.98,121.72 c -5.82,15.34 -20.51,25.48 -36.91,25.48 -16.39,0 -31.09,-10.14 -36.87,-25.48 l -122.04,-322.87 c -0.24,-0.62 -0.45,-1.24 -0.65,-1.88 -19.07,-59.4 11.76,-116.88 73.29,-136.74 61.52,-19.8 141.45,5.31 180.09,87.81 l 94.21,248.19 110,-292.34 c 5.96,-15.8 20.95,-25.53 36.89,-25.53 4.64,0 9.34,0.83 13.92,2.57 20.39,7.68 30.65,30.45 22.97,50.83" /><path
                     id="path46"
                     style="fill:#ffffff;fill-opacity:1;fill-rule:nonzero;stroke:none"
                     d="m 2362.52,5267.95 16.76,-49.01 c 0.71,0.05 1.4,0.06 2.11,0.08" /><path
                     id="path48"
                     style="fill:none;stroke:#ffffff;stroke-width:1.0078;stroke-linecap:butt;stroke-linejoin:miter;stroke-miterlimit:10;stroke-dasharray:none;stroke-opacity:1"
                     d="m 2362.52,5267.95 16.76,-49.01 c 0.71,0.05 1.4,0.06 2.11,0.08 z" /><path
                     id="path50"
                     style="fill:#ffffff;fill-opacity:1;fill-rule:nonzero;stroke:none"
                     d="m 2480.93,5086.73 -1.93,201.71 -5.31,-202.33 3.5,-9.27" /><path
                     id="path52"
                     style="fill:none;stroke:#ffffff;stroke-width:1.0078;stroke-linecap:butt;stroke-linejoin:miter;stroke-miterlimit:10;stroke-dasharray:none;stroke-opacity:1"
                     d="m 2480.93,5086.73 -1.93,201.71 -5.31,-202.33 3.5,-9.27 z" /><path
                     id="path54"
                     style="fill:#ffffff;fill-opacity:1;fill-rule:nonzero;stroke:none"
                     d="m 2739.72,5166.9 -83.27,-67.17 1.6,-4.23" /><path
                     id="path56"
                     style="fill:none;stroke:#ffffff;stroke-width:1.0078;stroke-linecap:butt;stroke-linejoin:miter;stroke-miterlimit:10;stroke-dasharray:none;stroke-opacity:1"
                     d="m 2739.72,5166.9 -83.27,-67.17 1.6,-4.23 z" /><path
                     id="path58"
                     style="fill:#ffffff;fill-opacity:1;fill-rule:nonzero;stroke:none"
                     d="m 2798.91,4831.6 -48.51,18.73 0.92,-2.44" /><path
                     id="path60"
                     style="fill:none;stroke:#ffffff;stroke-width:1.0078;stroke-linecap:butt;stroke-linejoin:miter;stroke-miterlimit:10;stroke-dasharray:none;stroke-opacity:1"
                     d="m 2798.91,4831.6 -48.51,18.73 0.92,-2.44 z" /><path
                     id="path62"
                     style="fill:#ffffff;fill-opacity:1;fill-rule:nonzero;stroke:none"
                     d="m 2138.59,4948.04 101.14,-2.05 1.56,4.12" /><path
                     id="path64"
                     style="fill:none;stroke:#ffffff;stroke-width:1.0078;stroke-linecap:butt;stroke-linejoin:miter;stroke-miterlimit:10;stroke-dasharray:none;stroke-opacity:1"
                     d="m 2138.59,4948.04 101.14,-2.05 1.56,4.12 z" /><path
                     id="path66"
                     style="fill:#ffffff;fill-opacity:1;fill-rule:nonzero;stroke:none"
                     d="m 2143.7,5006.97 110.9,-21.64 1.58,4.19" /><path
                     id="path68"
                     style="fill:none;stroke:#ffffff;stroke-width:1.0078;stroke-linecap:butt;stroke-linejoin:miter;stroke-miterlimit:10;stroke-dasharray:none;stroke-opacity:1"
                     d="m 2143.7,5006.97 110.9,-21.64 1.58,4.19 z" /><path
                     id="path70"
                     style="fill:#ffffff;fill-opacity:1;fill-rule:nonzero;stroke:none"
                     d="m 2143.7,4889.1 79.17,12.28 1.29,3.43" /><path
                     id="path72"
                     style="fill:none;stroke:#ffffff;stroke-width:1.0078;stroke-linecap:butt;stroke-linejoin:miter;stroke-miterlimit:10;stroke-dasharray:none;stroke-opacity:1"
                     d="m 2143.7,4889.1 79.17,12.28 1.29,3.43 z" /><path
                     id="path74"
                     style="fill:#ffffff;fill-opacity:1;fill-rule:nonzero;stroke:none"
                     d="m 2159.07,4831.6 44.11,15.1 c 0.17,0.7 0.33,1.4 0.52,2.12" /><path
                     id="path76"
                     style="fill:none;stroke:#ffffff;stroke-width:1.0078;stroke-linecap:butt;stroke-linejoin:miter;stroke-miterlimit:10;stroke-dasharray:none;stroke-opacity:1"
                     d="m 2159.07,4831.6 44.11,15.1 c 0.17,0.7 0.33,1.4 0.52,2.12 z" /><path
                     id="path78"
                     style="fill:#ffffff;fill-opacity:1;fill-rule:nonzero;stroke:none"
                     d="m 2798.91,5064.51 -114.43,-39.21 1.65,-4.33" /><path
                     id="path80"
                     style="fill:none;stroke:#ffffff;stroke-width:1.0078;stroke-linecap:butt;stroke-linejoin:miter;stroke-miterlimit:10;stroke-dasharray:none;stroke-opacity:1"
                     d="m 2798.91,5064.51 -114.43,-39.21 1.65,-4.33 z" /><path
                     id="path82"
                     style="fill:#ffffff;fill-opacity:1;fill-rule:nonzero;stroke:none"
                     d="m 2595.45,5267.96 -18.96,-49.13 c 0.67,-0.06 1.38,-0.15 2.04,-0.24" /><path
                     id="path84"
                     style="fill:none;stroke:#ffffff;stroke-width:1.0078;stroke-linecap:butt;stroke-linejoin:miter;stroke-miterlimit:10;stroke-dasharray:none;stroke-opacity:1"
                     d="m 2595.45,5267.96 -18.96,-49.13 c 0.67,-0.06 1.38,-0.15 2.04,-0.24 z" /><path
                     id="path86"
                     style="fill:#ffffff;fill-opacity:1;fill-rule:nonzero;stroke:none"
                     d="m 2159.07,5064.49 109.48,-42.24 1.6,4.23" /><path
                     id="path88"
                     style="fill:none;stroke:#ffffff;stroke-width:1.0078;stroke-linecap:butt;stroke-linejoin:miter;stroke-miterlimit:10;stroke-dasharray:none;stroke-opacity:1"
                     d="m 2159.07,5064.49 109.48,-42.24 1.6,4.23 z" /><path
                     id="path90"
                     style="fill:#ffffff;fill-opacity:1;fill-rule:nonzero;stroke:none"
                     d="m 2649.32,5242.81 -29.87,-49.38 c 0.49,-0.71 0.93,-1.45 1.37,-2.18" /><path
                     id="path92"
                     style="fill:none;stroke:#ffffff;stroke-width:1.0078;stroke-linecap:butt;stroke-linejoin:miter;stroke-miterlimit:10;stroke-dasharray:none;stroke-opacity:1"
                     d="m 2649.32,5242.81 -29.87,-49.38 c 0.49,-0.71 0.93,-1.45 1.37,-2.18 z" /><path
                     id="path94"
                     style="fill:#ffffff;fill-opacity:1;fill-rule:nonzero;stroke:none"
                     d="m 2697.88,5208.75 -57.65,-65.93 1.42,-3.77" /><path
                     id="path96"
                     style="fill:none;stroke:#ffffff;stroke-width:1.0078;stroke-linecap:butt;stroke-linejoin:miter;stroke-miterlimit:10;stroke-dasharray:none;stroke-opacity:1"
                     d="m 2697.88,5208.75 -57.65,-65.93 1.42,-3.77 z" /><path
                     id="path98"
                     style="fill:#ffffff;fill-opacity:1;fill-rule:nonzero;stroke:none"
                     d="m 2814.28,5007.01 -116.1,-18.01 1.62,-4.36" /><path
                     id="path100"
                     style="fill:none;stroke:#ffffff;stroke-width:1.0078;stroke-linecap:butt;stroke-linejoin:miter;stroke-miterlimit:10;stroke-dasharray:none;stroke-opacity:1"
                     d="m 2814.28,5007.01 -116.1,-18.01 1.62,-4.36 z" /><path
                     id="path102"
                     style="fill:#ffffff;fill-opacity:1;fill-rule:nonzero;stroke:none"
                     d="m 2814.28,4889.1 -84.71,16.54 1.34,-3.61" /><path
                     id="path104"
                     style="fill:none;stroke:#ffffff;stroke-width:1.0078;stroke-linecap:butt;stroke-linejoin:miter;stroke-miterlimit:10;stroke-dasharray:none;stroke-opacity:1"
                     d="m 2814.28,4889.1 -84.71,16.54 1.34,-3.61 z" /><path
                     id="path106"
                     style="fill:#ffffff;fill-opacity:1;fill-rule:nonzero;stroke:none"
                     d="m 2819.4,4948.04 -106.6,2.14 1.6,-4.24" /><path
                     id="path108"
                     style="fill:none;stroke:#ffffff;stroke-width:1.0078;stroke-linecap:butt;stroke-linejoin:miter;stroke-miterlimit:10;stroke-dasharray:none;stroke-opacity:1"
                     d="m 2819.4,4948.04 -106.6,2.14 1.6,-4.24 z" /><path
                     id="path110"
                     style="fill:#ffffff;fill-opacity:1;fill-rule:nonzero;stroke:none"
                     d="m 2773.76,5118.37 -102.9,-56.88 1.65,-4.37" /><path
                     id="path112"
                     style="fill:none;stroke:#ffffff;stroke-width:1.0078;stroke-linecap:butt;stroke-linejoin:miter;stroke-miterlimit:10;stroke-dasharray:none;stroke-opacity:1"
                     d="m 2773.76,5118.37 -102.9,-56.88 1.65,-4.37 z" /><path
                     id="path114"
                     style="fill:#ffffff;fill-opacity:1;fill-rule:nonzero;stroke:none"
                     d="m 2218.26,5166.89 78.89,-68.97 1.54,4.09" /><path
                     id="path116"
                     style="fill:none;stroke:#ffffff;stroke-width:1.0078;stroke-linecap:butt;stroke-linejoin:miter;stroke-miterlimit:10;stroke-dasharray:none;stroke-opacity:1"
                     d="m 2218.26,5166.89 78.89,-68.97 1.54,4.09 z" /><path
                     id="path118"
                     style="fill:#ffffff;fill-opacity:1;fill-rule:nonzero;stroke:none"
                     d="m 2308.71,5242.82 26.85,-48.57 c 0.44,0.64 0.9,1.28 1.37,1.89" /><path
                     id="path120"
                     style="fill:none;stroke:#ffffff;stroke-width:1.0078;stroke-linecap:butt;stroke-linejoin:miter;stroke-miterlimit:10;stroke-dasharray:none;stroke-opacity:1"
                     d="m 2308.71,5242.82 26.85,-48.57 c 0.44,0.64 0.9,1.28 1.37,1.89 z" /><path
                     id="path122"
                     style="fill:#ffffff;fill-opacity:1;fill-rule:nonzero;stroke:none"
                     d="m 2260.11,5208.74 53.75,-66.62 1.36,3.6" /><path
                     id="path124"
                     style="fill:none;stroke:#ffffff;stroke-width:1.0078;stroke-linecap:butt;stroke-linejoin:miter;stroke-miterlimit:10;stroke-dasharray:none;stroke-opacity:1"
                     d="m 2260.11,5208.74 53.75,-66.62 1.36,3.6 z" /><path
                     id="path126"
                     style="fill:#ffffff;fill-opacity:1;fill-rule:nonzero;stroke:none"
                     d="m 2442.38,5168.98 -22.31,114.35 14.87,-95.87 c 1.01,-1.94 1.94,-3.92 2.72,-6" /><path
                     id="path128"
                     style="fill:none;stroke:#ffffff;stroke-width:1.0078;stroke-linecap:butt;stroke-linejoin:miter;stroke-miterlimit:10;stroke-dasharray:none;stroke-opacity:1"
                     d="m 2442.38,5168.98 -22.31,114.35 14.87,-95.87 c 1.01,-1.94 1.94,-3.92 2.72,-6 z" /><path
                     id="path130"
                     style="fill:#ffffff;fill-opacity:1;fill-rule:nonzero;stroke:none"
                     d="m 2184.22,5118.37 98.22,-59.37 1.59,4.19" /><path
                     id="path132"
                     style="fill:none;stroke:#ffffff;stroke-width:1.0078;stroke-linecap:butt;stroke-linejoin:miter;stroke-miterlimit:10;stroke-dasharray:none;stroke-opacity:1"
                     d="m 2184.22,5118.37 98.22,-59.37 1.59,4.19 z" /><path
                     id="path134"
                     style="fill:#ffffff;fill-opacity:1;fill-rule:nonzero;stroke:none"
                     d="m 2515.61,5168.98 22.3,114.35 -14.87,-95.87 c -1,-1.94 -1.92,-3.92 -2.72,-6" /><path
                     id="path136"
                     style="fill:none;stroke:#ffffff;stroke-width:1.0078;stroke-linecap:butt;stroke-linejoin:miter;stroke-miterlimit:10;stroke-dasharray:none;stroke-opacity:1"
                     d="m 2515.61,5168.98 22.3,114.35 -14.87,-95.87 c -1,-1.94 -1.92,-3.92 -2.72,-6 z" /><path
                     id="path138"
                     style="fill:#ffffff;fill-opacity:1;fill-rule:nonzero;stroke:none"
                     d="m 2479,5461.69 c -282.79,0 -512.86,-230.06 -512.86,-512.85 0,-282.79 230.07,-512.84 512.86,-512.84 282.78,0 512.85,230.05 512.85,512.84 0,282.79 -230.07,512.85 -512.85,512.85 m 0,-1029.44 c -284.86,0 -516.61,231.75 -516.61,516.59 0,284.86 231.75,516.61 516.61,516.61 284.87,0 516.61,-231.75 516.61,-516.61 0,-284.84 -231.74,-516.59 -516.61,-516.59" /><path
                     id="path140"
                     style="fill:none;stroke:#ffffff;stroke-width:1.0078;stroke-linecap:butt;stroke-linejoin:miter;stroke-miterlimit:10;stroke-dasharray:none;stroke-opacity:1"
                     d="m 2479,5461.69 c -282.79,0 -512.86,-230.06 -512.86,-512.85 0,-282.79 230.07,-512.84 512.86,-512.84 282.78,0 512.85,230.05 512.85,512.84 0,282.79 -230.07,512.85 -512.85,512.85 z m 0,-1029.44 c -284.86,0 -516.61,231.75 -516.61,516.59 0,284.86 231.75,516.61 516.61,516.61 284.87,0 516.61,-231.75 516.61,-516.61 0,-284.84 -231.74,-516.59 -516.61,-516.59 z" /><path
                     id="path142"
                     style="fill:#ffffff;fill-opacity:1;fill-rule:nonzero;stroke:none"
                     d="m 2479,5305.39 c -196.6,0 -356.55,-159.95 -356.55,-356.55 0,-196.59 159.95,-356.53 356.55,-356.53 196.58,0 356.55,159.94 356.55,356.53 0,196.6 -159.97,356.55 -356.55,356.55 m 0,-716.84 c -198.67,0 -360.31,161.64 -360.31,360.29 0,198.67 161.64,360.3 360.31,360.3 198.68,0 360.31,-161.63 360.31,-360.3 0,-198.65 -161.63,-360.29 -360.31,-360.29" /><path
                     id="path144"
                     style="fill:none;stroke:#ffffff;stroke-width:1.0078;stroke-linecap:butt;stroke-linejoin:miter;stroke-miterlimit:10;stroke-dasharray:none;stroke-opacity:1"
                     d="m 2479,5305.39 c -196.6,0 -356.55,-159.95 -356.55,-356.55 0,-196.59 159.95,-356.53 356.55,-356.53 196.58,0 356.55,159.94 356.55,356.53 0,196.6 -159.97,356.55 -356.55,356.55 z m 0,-716.84 c -198.67,0 -360.31,161.64 -360.31,360.29 0,198.67 161.64,360.3 360.31,360.3 198.68,0 360.31,-161.63 360.31,-360.3 0,-198.65 -161.63,-360.29 -360.31,-360.29 z" /><path
                     id="path146"
                     style="fill:#ffffff;fill-opacity:1;fill-rule:nonzero;stroke:none"
                     d="m 2080.15,5045.19 c 6.91,-1.66 11.73,0.08 13.23,6.31 1.48,6.15 -2.03,9.89 -8.93,11.55 l -58.65,14.11 1.92,7.99 58.21,-14 c 11.62,-2.79 18.1,-10.04 15.27,-21.87 -2.82,-11.73 -11.9,-15.23 -23.52,-12.44 l -58.2,14.01 2.03,8.45" /><path
                     id="path148"
                     style="fill:none;stroke:#ffffff;stroke-width:1.0078;stroke-linecap:butt;stroke-linejoin:miter;stroke-miterlimit:10;stroke-dasharray:none;stroke-opacity:1"
                     d="m 2080.15,5045.19 c 6.91,-1.66 11.73,0.08 13.23,6.31 1.48,6.15 -2.03,9.89 -8.93,11.55 l -58.65,14.11 1.92,7.99 58.21,-14 c 11.62,-2.79 18.1,-10.04 15.27,-21.87 -2.82,-11.73 -11.9,-15.23 -23.52,-12.44 l -58.2,14.01 2.03,8.45 z" /><path
                     id="path150"
                     style="fill:#ffffff;fill-opacity:1;fill-rule:nonzero;stroke:none"
                     d="m 2140.7,5151.52 -4.11,-6.73 -67.33,41.09 5.82,9.52 58.18,-14.12 -48.68,29.71 4.05,6.64 67.33,-41.1 -4.75,-7.79 -64.95,16.01" /><path
                     id="path152"
                     style="fill:none;stroke:#ffffff;stroke-width:1.0078;stroke-linecap:butt;stroke-linejoin:miter;stroke-miterlimit:10;stroke-dasharray:none;stroke-opacity:1"
                     d="m 2140.7,5151.52 -4.11,-6.73 -67.33,41.09 5.82,9.52 58.18,-14.12 -48.68,29.71 4.05,6.64 67.33,-41.1 -4.75,-7.79 -64.95,16.01 z" /><path
                     id="path154"
                     style="fill:#ffffff;fill-opacity:1;fill-rule:nonzero;stroke:none"
                     d="m 2164.73,5305.41 53.48,-57.97 -6.45,-5.96 -53.49,57.97" /><path
                     id="path156"
                     style="fill:none;stroke:#ffffff;stroke-width:1.0078;stroke-linecap:butt;stroke-linejoin:miter;stroke-miterlimit:10;stroke-dasharray:none;stroke-opacity:1"
                     d="m 2164.73,5305.41 53.48,-57.97 -6.45,-5.96 -53.49,57.97 z" /><path
                     id="path158"
                     style="fill:#ffffff;fill-opacity:1;fill-rule:nonzero;stroke:none"
                     d="m 2257.82,5371.26 42.31,-55.57 -19.45,67.06 7.25,3.64 22.23,-77.13 -11.57,-5.81 -48.73,63.81" /><path
                     id="path160"
                     style="fill:none;stroke:#ffffff;stroke-width:1.0078;stroke-linecap:butt;stroke-linejoin:miter;stroke-miterlimit:10;stroke-dasharray:none;stroke-opacity:1"
                     d="m 2257.82,5371.26 42.31,-55.57 -19.45,67.06 7.25,3.64 22.23,-77.13 -11.57,-5.81 -48.73,63.81 z" /><path
                     id="path162"
                     style="fill:#ffffff;fill-opacity:1;fill-rule:nonzero;stroke:none"
                     d="m 2423.24,5388.17 1.22,-7.79 -19.03,-3 4.38,-27.71 23.36,3.67 1.26,-7.9 -32.06,-5.05 -12.29,77.92 32.07,5.06 1.24,-7.91 -23.38,-3.67 4.2,-26.62" /><path
                     id="path164"
                     style="fill:none;stroke:#ffffff;stroke-width:1.0078;stroke-linecap:butt;stroke-linejoin:miter;stroke-miterlimit:10;stroke-dasharray:none;stroke-opacity:1"
                     d="m 2423.24,5388.17 1.22,-7.79 -19.03,-3 4.38,-27.71 23.36,3.67 1.26,-7.9 -32.06,-5.05 -12.29,77.92 32.07,5.06 1.24,-7.91 -23.38,-3.67 4.2,-26.62 z" /><path
                     id="path166"
                     style="fill:#ffffff;fill-opacity:1;fill-rule:nonzero;stroke:none"
                     d="m 2539.91,5385.02 c 6.91,-1.01 11.35,0.62 12.6,9.08 l 1.12,7.48 c 1.01,7.01 -1,11.08 -7.47,12.03 l -8.48,1.23 -4.24,-28.87 z m 7.65,36.47 c 12.26,-1.8 16.47,-8.79 14.76,-20.4 l -0.93,-6.35 c -1.27,-8.59 -5.08,-13.49 -12.08,-14.64 6.84,-3.15 8.67,-9.35 7.42,-17.71 l -1.79,-12.16 c -0.51,-3.44 -0.86,-6.7 0.19,-9.59 l -8.8,1.3 c -0.67,2.37 -0.84,4.45 -0.05,9.68 l 1.79,12.27 c 1.29,8.81 -2.41,12.2 -9.67,13.26 l -6.13,0.91 -4.89,-33.34 -8.7,1.28 11.48,78.05" /><path
                     id="path168"
                     style="fill:none;stroke:#ffffff;stroke-width:1.0078;stroke-linecap:butt;stroke-linejoin:miter;stroke-miterlimit:10;stroke-dasharray:none;stroke-opacity:1"
                     d="m 2539.91,5385.02 c 6.91,-1.01 11.35,0.62 12.6,9.08 l 1.12,7.48 c 1.01,7.01 -1,11.08 -7.47,12.03 l -8.48,1.23 -4.24,-28.87 z m 7.65,36.47 c 12.26,-1.8 16.47,-8.79 14.76,-20.4 l -0.93,-6.35 c -1.27,-8.59 -5.08,-13.49 -12.08,-14.64 6.84,-3.15 8.67,-9.35 7.42,-17.71 l -1.79,-12.16 c -0.51,-3.44 -0.86,-6.7 0.19,-9.59 l -8.8,1.3 c -0.67,2.37 -0.84,4.45 -0.05,9.68 l 1.79,12.27 c 1.29,8.81 -2.41,12.2 -9.67,13.26 l -6.13,0.91 -4.89,-33.34 -8.7,1.28 11.48,78.05 z" /><path
                     id="path170"
                     style="fill:#ffffff;fill-opacity:1;fill-rule:nonzero;stroke:none"
                     d="m 2691.76,5354.49 -0.95,-1.93 -7.49,3.67 1.14,2.32 c 3.11,6.39 2.5,11.32 -3.17,14.09 -5.66,2.75 -9.91,0.2 -12.97,-6.09 -7.77,-15.9 15.29,-29.02 5.55,-48.99 -5.23,-10.72 -13.81,-15.2 -24.65,-9.91 -10.84,5.29 -12.49,14.74 -7.26,25.49 l 1.97,4.05 7.4,-3.62 -2.18,-4.46 c -3.1,-6.36 -2.29,-11.41 3.38,-14.18 5.65,-2.77 10.13,-0.3 13.24,6.09 7.7,15.8 -15.25,28.87 -5.52,48.84 5.35,10.93 13.71,15.25 24.35,10.06 10.75,-5.23 12.4,-14.7 7.16,-25.43" /><path
                     id="path172"
                     style="fill:none;stroke:#ffffff;stroke-width:1.0078;stroke-linecap:butt;stroke-linejoin:miter;stroke-miterlimit:10;stroke-dasharray:none;stroke-opacity:1"
                     d="m 2691.76,5354.49 -0.95,-1.93 -7.49,3.67 1.14,2.32 c 3.11,6.39 2.5,11.32 -3.17,14.09 -5.66,2.75 -9.91,0.2 -12.97,-6.09 -7.77,-15.9 15.29,-29.02 5.55,-48.99 -5.23,-10.72 -13.81,-15.2 -24.65,-9.91 -10.84,5.29 -12.49,14.74 -7.26,25.49 l 1.97,4.05 7.4,-3.62 -2.18,-4.46 c -3.1,-6.36 -2.29,-11.41 3.38,-14.18 5.65,-2.77 10.13,-0.3 13.24,6.09 7.7,15.8 -15.25,28.87 -5.52,48.84 5.35,10.93 13.71,15.25 24.35,10.06 10.75,-5.23 12.4,-14.7 7.16,-25.43 z" /><path
                     id="path174"
                     style="fill:#ffffff;fill-opacity:1;fill-rule:nonzero;stroke:none"
                     d="m 2793.54,5305.18 -52.45,-58.94 -6.56,5.83 52.46,58.96" /><path
                     id="path176"
                     style="fill:none;stroke:#ffffff;stroke-width:1.0078;stroke-linecap:butt;stroke-linejoin:miter;stroke-miterlimit:10;stroke-dasharray:none;stroke-opacity:1"
                     d="m 2793.54,5305.18 -52.45,-58.94 -6.56,5.83 52.46,58.96 z" /><path
                     id="path178"
                     style="fill:#ffffff;fill-opacity:1;fill-rule:nonzero;stroke:none"
                     d="m 2804.17,5172.59 59.6,38.39 -7.88,12.24 6.74,4.32 20.5,-31.84 -6.71,-4.32 -7.88,12.22 -59.61,-38.4" /><path
                     id="path180"
                     style="fill:none;stroke:#ffffff;stroke-width:1.0078;stroke-linecap:butt;stroke-linejoin:miter;stroke-miterlimit:10;stroke-dasharray:none;stroke-opacity:1"
                     d="m 2804.17,5172.59 59.6,38.39 -7.88,12.24 6.74,4.32 20.5,-31.84 -6.71,-4.32 -7.88,12.22 -59.61,-38.4 z" /><path
                     id="path182"
                     style="fill:#ffffff;fill-opacity:1;fill-rule:nonzero;stroke:none"
                     d="m 2948.82,5076.79 -13.99,7 -1.62,5.85 13.27,-4.49 z m -48.91,-14.28 -7.6,-2.12 -5.14,18.57 -27.04,-7.5 6.33,-22.8 -7.72,-2.14 -8.67,31.27 76,21.1 8.69,-31.26 -7.72,-2.14 -6.32,22.8 -25.95,-7.21" /><path
                     id="path184"
                     style="fill:none;stroke:#ffffff;stroke-width:1.0078;stroke-linecap:butt;stroke-linejoin:miter;stroke-miterlimit:10;stroke-dasharray:none;stroke-opacity:1"
                     d="m 2948.82,5076.79 -13.99,7 -1.62,5.85 13.27,-4.49 z m -48.91,-14.28 -7.6,-2.12 -5.14,18.57 -27.04,-7.5 6.33,-22.8 -7.72,-2.14 -8.67,31.27 76,21.1 8.69,-31.26 -7.72,-2.14 -6.32,22.8 -25.95,-7.21 z" /><path
                     id="path186"
                     style="fill:#ffffff;fill-opacity:1;fill-rule:nonzero;stroke:none"
                     d="m 2892.91,4839.48 c 1.66,6.78 0.45,11.37 -7.9,13.39 l -7.32,1.77 c -6.91,1.67 -11.12,0.02 -12.67,-6.34 l -2.01,-8.31 28.37,-6.86 z m -35.61,10.93 c 2.9,12.05 10.27,15.61 21.66,12.86 l 6.24,-1.52 c 8.43,-2.04 12.98,-6.26 13.48,-13.35 3.75,6.52 10.11,7.76 18.3,5.79 l 11.97,-2.89 c 3.37,-0.82 6.6,-1.49 9.57,-0.71 l -2.1,-8.63 c -2.43,-0.46 -4.51,-0.41 -9.65,0.82 l -12.06,2.91 c -8.66,2.09 -12.37,-1.3 -14.1,-8.41 l -1.45,-6.03 32.75,-7.92 -2.06,-8.55 -76.69,18.53" /><path
                     id="path188"
                     style="fill:none;stroke:#ffffff;stroke-width:1.0078;stroke-linecap:butt;stroke-linejoin:miter;stroke-miterlimit:10;stroke-dasharray:none;stroke-opacity:1"
                     d="m 2892.91,4839.48 c 1.66,6.78 0.45,11.37 -7.9,13.39 l -7.32,1.77 c -6.91,1.67 -11.12,0.02 -12.67,-6.34 l -2.01,-8.31 28.37,-6.86 z m -35.61,10.93 c 2.9,12.05 10.27,15.61 21.66,12.86 l 6.24,-1.52 c 8.43,-2.04 12.98,-6.26 13.48,-13.35 3.75,6.52 10.11,7.76 18.3,5.79 l 11.97,-2.89 c 3.37,-0.82 6.6,-1.49 9.57,-0.71 l -2.1,-8.63 c -2.43,-0.46 -4.51,-0.41 -9.65,0.82 l -12.06,2.91 c -8.66,2.09 -12.37,-1.3 -14.1,-8.41 l -1.45,-6.03 32.75,-7.92 -2.06,-8.55 -76.69,18.53 z" /><path
                     id="path190"
                     style="fill:#ffffff;fill-opacity:1;fill-rule:nonzero;stroke:none"
                     d="m 2855.94,4747.26 6.9,-3.82 -9.36,-16.86 24.54,-13.63 11.49,20.69 7,-3.89 -15.76,-28.37 -68.98,38.33 15.75,28.37 7.01,-3.88 -11.49,-20.7 23.53,-13.08" /><path
                     id="path192"
                     style="fill:none;stroke:#ffffff;stroke-width:1.0078;stroke-linecap:butt;stroke-linejoin:miter;stroke-miterlimit:10;stroke-dasharray:none;stroke-opacity:1"
                     d="m 2855.94,4747.26 6.9,-3.82 -9.36,-16.86 24.54,-13.63 11.49,20.69 7,-3.89 -15.76,-28.37 -68.98,38.33 15.75,28.37 7.01,-3.88 -11.49,-20.7 23.53,-13.08 z" /><path
                     id="path194"
                     style="fill:#ffffff;fill-opacity:1;fill-rule:nonzero;stroke:none"
                     d="m 2768.87,4682.49 58.15,-53.33 -5.95,-6.48 -58.13,53.34" /><path
                     id="path196"
                     style="fill:none;stroke:#ffffff;stroke-width:1.0078;stroke-linecap:butt;stroke-linejoin:miter;stroke-miterlimit:10;stroke-dasharray:none;stroke-opacity:1"
                     d="m 2768.87,4682.49 58.15,-53.33 -5.95,-6.48 -58.13,53.34 z" /><path
                     id="path198"
                     style="fill:#ffffff;fill-opacity:1;fill-rule:nonzero;stroke:none"
                     d="m 2729.94,4546.77 -44.37,65.26 7.28,4.92 39.87,-58.62 18.66,12.68 4.5,-6.62" /><path
                     id="path200"
                     style="fill:none;stroke:#ffffff;stroke-width:1.0078;stroke-linecap:butt;stroke-linejoin:miter;stroke-miterlimit:10;stroke-dasharray:none;stroke-opacity:1"
                     d="m 2729.94,4546.77 -44.37,65.26 7.28,4.92 39.87,-58.62 18.66,12.68 4.5,-6.62 z" /><path
                     id="path202"
                     style="fill:#ffffff;fill-opacity:1;fill-rule:nonzero;stroke:none"
                     d="m 2621.05,4495.86 -26.23,74.4 8.3,2.94 23.55,-66.86 21.28,7.49 2.67,-7.55" /><path
                     id="path204"
                     style="fill:none;stroke:#ffffff;stroke-width:1.0078;stroke-linecap:butt;stroke-linejoin:miter;stroke-miterlimit:10;stroke-dasharray:none;stroke-opacity:1"
                     d="m 2621.05,4495.86 -26.23,74.4 8.3,2.94 23.55,-66.86 21.28,7.49 2.67,-7.55 z" /><path
                     id="path206"
                     style="fill:#ffffff;fill-opacity:1;fill-rule:nonzero;stroke:none"
                     d="m 2524.52,4520.32 0.61,-7.87 -19.22,-1.49 2.16,-27.97 23.62,1.83 0.63,-7.98 -32.38,-2.51 -6.09,78.66 32.34,2.51 0.63,-7.98 -23.6,-1.83 2.07,-26.85" /><path
                     id="path208"
                     style="fill:none;stroke:#ffffff;stroke-width:1.0078;stroke-linecap:butt;stroke-linejoin:miter;stroke-miterlimit:10;stroke-dasharray:none;stroke-opacity:1"
                     d="m 2524.52,4520.32 0.61,-7.87 -19.22,-1.49 2.16,-27.97 23.62,1.83 0.63,-7.98 -32.38,-2.51 -6.09,78.66 32.34,2.51 0.63,-7.98 -23.6,-1.83 2.07,-26.85 z" /><path
                     id="path210"
                     style="fill:#ffffff;fill-opacity:1;fill-rule:nonzero;stroke:none"
                     d="m 2399.29,4520.52 c 6.42,-1.21 10.09,1.21 11.48,8.62 l 1.94,10.3 c 1.33,7.09 -0.55,11.12 -6.87,12.3 l -8.3,1.56 -5.89,-31.33 z m 8.03,39.09 c 12.18,-2.29 16.04,-10.47 13.84,-22.21 l -1.75,-9.31 c -2.33,-12.29 -9.28,-17.64 -21.57,-15.33 l -7.65,1.44 -5.75,-30.56 -8.62,1.62 14.56,77.53" /><path
                     id="path212"
                     style="fill:none;stroke:#ffffff;stroke-width:1.0078;stroke-linecap:butt;stroke-linejoin:miter;stroke-miterlimit:10;stroke-dasharray:none;stroke-opacity:1"
                     d="m 2399.29,4520.52 c 6.42,-1.21 10.09,1.21 11.48,8.62 l 1.94,10.3 c 1.33,7.09 -0.55,11.12 -6.87,12.3 l -8.3,1.56 -5.89,-31.33 z m 8.03,39.09 c 12.18,-2.29 16.04,-10.47 13.84,-22.21 l -1.75,-9.31 c -2.33,-12.29 -9.28,-17.64 -21.57,-15.33 l -7.65,1.44 -5.75,-30.56 -8.62,1.62 14.56,77.53 z" /><path
                     id="path214"
                     style="fill:#ffffff;fill-opacity:1;fill-rule:nonzero;stroke:none"
                     d="m 2270.1,4523.2 31.08,63.72 -13.06,6.38 3.51,7.19 34.03,-16.61 -3.51,-7.18 -13.07,6.37 -31.07,-63.71" /><path
                     id="path216"
                     style="fill:none;stroke:#ffffff;stroke-width:1.0078;stroke-linecap:butt;stroke-linejoin:miter;stroke-miterlimit:10;stroke-dasharray:none;stroke-opacity:1"
                     d="m 2270.1,4523.2 31.08,63.72 -13.06,6.38 3.51,7.19 34.03,-16.61 -3.51,-7.18 -13.07,6.37 -31.07,-63.71 z" /><path
                     id="path218"
                     style="fill:#ffffff;fill-opacity:1;fill-rule:nonzero;stroke:none"
                     d="m 2161.02,4598.55 -5.9,5.23 52.23,59.1 8.36,-7.39 -24.08,-54.82 37.76,42.72 5.83,-5.14 -52.25,-59.1 -6.83,6.05 27.12,61.14" /><path
                     id="path220"
                     style="fill:none;stroke:#ffffff;stroke-width:1.0078;stroke-linecap:butt;stroke-linejoin:miter;stroke-miterlimit:10;stroke-dasharray:none;stroke-opacity:1"
                     d="m 2161.02,4598.55 -5.9,5.23 52.23,59.1 8.36,-7.39 -24.08,-54.82 37.76,42.72 5.83,-5.14 -52.25,-59.1 -6.83,6.05 27.12,61.14 z" /><path
                     id="path222"
                     style="fill:#ffffff;fill-opacity:1;fill-rule:nonzero;stroke:none"
                     d="m 2096.09,4706.53 c -6.06,-3.91 -7.91,-8.73 -4.5,-14.04 3.49,-5.4 8.59,-5.6 14.64,-1.69 l 35.05,22.64 c 5.97,3.86 7.97,8.64 4.49,14.04 -3.43,5.31 -8.69,5.54 -14.64,1.67 z m 29.95,29.68 c 10.14,6.54 19.92,5.74 26.45,-4.4 6.61,-10.22 3.32,-19.47 -6.81,-26 l -34.29,-22.15 c -10.04,-6.49 -19.91,-5.74 -26.51,4.49 -6.55,10.14 -3.17,19.42 6.88,25.91" /><path
                     id="path224"
                     style="fill:none;stroke:#ffffff;stroke-width:1.0078;stroke-linecap:butt;stroke-linejoin:miter;stroke-miterlimit:10;stroke-dasharray:none;stroke-opacity:1"
                     d="m 2096.09,4706.53 c -6.06,-3.91 -7.91,-8.73 -4.5,-14.04 3.49,-5.4 8.59,-5.6 14.64,-1.69 l 35.05,22.64 c 5.97,3.86 7.97,8.64 4.49,14.04 -3.43,5.31 -8.69,5.54 -14.64,1.67 z m 29.95,29.68 c 10.14,6.54 19.92,5.74 26.45,-4.4 6.61,-10.22 3.32,-19.47 -6.81,-26 l -34.29,-22.15 c -10.04,-6.49 -19.91,-5.74 -26.51,4.49 -6.55,10.14 -3.17,19.42 6.88,25.91 z" /><path
                     id="path226"
                     style="fill:#ffffff;fill-opacity:1;fill-rule:nonzero;stroke:none"
                     d="m 2030.63,4807.77 -2.36,8.12 56.66,30.03 -60.41,-17.52 -2.13,7.37 75.77,21.94 3.41,-11.79 -56.89,-29.97 63.98,5.51 3.41,-11.8 -75.75,-21.95 -2.32,8.03 60.93,17.64" /><path
                     id="path228"
                     style="fill:none;stroke:#ffffff;stroke-width:1.0078;stroke-linecap:butt;stroke-linejoin:miter;stroke-miterlimit:10;stroke-dasharray:none;stroke-opacity:1"
                     d="m 2030.63,4807.77 -2.36,8.12 56.66,30.03 -60.41,-17.52 -2.13,7.37 75.77,21.94 3.41,-11.79 -56.89,-29.97 63.98,5.51 3.41,-11.8 -75.75,-21.95 -2.32,8.03 60.93,17.64 z" /><path
                     id="path230"
                     style="fill:#ffffff;fill-opacity:1;fill-rule:nonzero;stroke:none"
                     d="m 2053.98,4948.86 c 0,-6.15 -4.96,-11.12 -11.1,-11.12 -6.12,0 -11.09,4.97 -11.09,11.12 0,6.11 4.97,11.1 11.09,11.1 6.14,0 11.1,-4.99 11.1,-11.1" /><path
                     id="path232"
                     style="fill:#ffffff;fill-opacity:1;fill-rule:nonzero;stroke:none"
                     d="m 2926.82,4948.86 c 0,-6.15 -4.96,-11.12 -11.13,-11.12 -6.12,0 -11.08,4.97 -11.08,11.12 0,6.11 4.96,11.1 11.08,11.1 6.17,0 11.13,-4.99 11.13,-11.1" /></g></g></g></g></g></g></g></g></svg>
