<?xml version="1.0" encoding="UTF-8" standalone="no"?>
<svg
   xmlns:dc="http://purl.org/dc/elements/1.1/"
   xmlns:cc="http://creativecommons.org/ns#"
   xmlns:rdf="http://www.w3.org/1999/02/22-rdf-syntax-ns#"
   xmlns:svg="http://www.w3.org/2000/svg"
   xmlns="http://www.w3.org/2000/svg"
   xmlns:sodipodi="http://sodipodi.sourceforge.net/DTD/sodipodi-0.dtd"
   xmlns:inkscape="http://www.inkscape.org/namespaces/inkscape"
   version="1.1"
   id="svg2"
   xml:space="preserve"
   width="646.66669"
   height="740"
   viewBox="0 0 646.66669 740"
   sodipodi:docname="uparis.svg"
   inkscape:version="1.0 (4035a4fb49, 2020-05-01)"><metadata
     id="metadata8"><rdf:RDF><cc:Work
         rdf:about=""><dc:format>image/svg+xml</dc:format><dc:type
           rdf:resource="http://purl.org/dc/dcmitype/StillImage" /><dc:title></dc:title></cc:Work></rdf:RDF></metadata><defs
     id="defs6" /><sodipodi:namedview
     inkscape:pagecheckerboard="true"
     inkscape:document-rotation="0"
     pagecolor="#ffffff"
     bordercolor="#666666"
     borderopacity="1"
     objecttolerance="10"
     gridtolerance="10"
     guidetolerance="10"
     inkscape:pageopacity="0"
     inkscape:pageshadow="2"
     inkscape:window-width="1920"
     inkscape:window-height="1080"
     id="namedview4"
     showgrid="false"
     inkscape:zoom="1.6841692"
     inkscape:cx="355.02465"
     inkscape:cy="530.99953"
     inkscape:window-x="0"
     inkscape:window-y="0"
     inkscape:window-maximized="0"
     inkscape:current-layer="g10" /><g
     id="g10"
     inkscape:groupmode="layer"
     inkscape:label="ink_ext_XXXXXX"
     transform="matrix(1.3333333,0,0,-1.3333333,0,740)"><g
       id="g12"
       transform="scale(0.1)"><path
         d="m 2530,5278.01 c 0,-696.02 -60,-1240 -185,-1675 C 2193.98,3080 1943.98,2635 1558.01,2206.99 1520,2166.02 1490,2125 1490,2116.02 c 0,-22.04 28.01,-160 41.99,-208.01 l 11.02,-36.99 65,68.98 c 160.97,175 393.98,301.99 646.99,355 108.01,23.01 303.98,23.01 415,0 306.02,-61.02 493.01,-225 786.99,-688.98 l 76.02,-120 -74.03,-69.03 c -330,-305.97 -810.97,-419.998 -1275.97,-301.99 -240,61.02 -404.03,171.02 -565,380 -111.02,143.01 -191.02,323.01 -236.99,536.99 -54.03,248.01 -54.03,254.03 -58.01,1401.02 L 1318.98,4500 H 1530 v 70 H 0 v -70 h 218.98 l 4.032,-836.99 c 3.976,-894.03 5,-911.99 58.008,-1171.99 58.98,-295 171.992,-555 342.96,-794.03 172.04,-240 371.02,-405 661.02,-546.99 215,-106.02 413.01,-166.988 673.01,-208.98 273.98,-45 628.01,-52.04 826.99,-17.04 283.98,51.02 553.01,176.02 758.98,355 38.01,33.01 72.04,59.03 75,56.02 4.03,-1.99 47.04,-76.02 96.02,-163.98 l 90,-160 178.01,-1.02 c 96.99,0 176.99,1.99 176.99,5 0,16.99 -591.99,881.02 -685,1000 -128.98,166.02 -308.98,316.02 -468.01,391.02 -223.98,105 -558.98,135 -781.99,68.98 -95,-28.01 -235,-88.98 -286.02,-126.02 -47.96,-33.98 -43.98,-15.97 11.02,53.01 140,171.99 301.02,453.01 408.98,716.99 135,327.04 262.04,814.03 292.04,1111.02 5.97,63.01 12.96,125 15,138.01 5.97,31.99 27.96,21.99 31.99,-14.03 56.99,-580 178.98,-1065.97 373.01,-1485.97 121.99,-261.99 245,-465 520,-854.03 C 3691.99,1871.02 3890,1586.02 4030,1381.99 L 4285,1010 h 238.98 c 189.03,0 236.02,3.01 228.01,11.99 -190.97,241.02 -615,796.02 -770.97,1011.02 C 3303.01,2965 3046.99,3673.98 2960,4865 c -10,135 -30,571.02 -30,648.01 V 5550 h -400 z"
         style="fill:#960038;fill-opacity:1;fill-rule:nonzero;stroke:none"
         id="path14" /><path
         d="m 3850,4535 v -35 h 240 v -905 c 0,-1038.98 -3.01,-1096.99 -76.02,-1321.02 l -26.99,-80.97 66.99,-91.99 c 37.04,-50 71.02,-91.02 75,-91.02 13.01,0 97.04,188.98 130,291.02 34.03,108.98 62.04,240.97 87.04,408.98 15,98.98 17.96,231.99 20.97,953.01 l 4.03,836.99 H 4600 v 70 h -750 z"
         style="fill:#960038;fill-opacity:1;fill-rule:nonzero;stroke:none"
         id="path16" /><path
         d="m 2586.02,438.012 c -8.01,-13.012 -18.01,-35 -21.02,-50 -6.02,-24.032 -3.98,-28.012 13.01,-28.012 10.97,0 25.97,10 33.98,23.012 8.01,11.988 23.01,33.976 33.01,50 L 2661.99,460 h -30.97 c -21.02,0 -35,-6.988 -45,-21.988 z"
         style="fill:#ffffff;fill-opacity:1;fill-rule:nonzero;stroke:none"
         id="path18" /><path
         d="m 3090,375 c 0,-73.98 0,-75 -21.02,-63.98 -35.97,18.98 -125,5.968 -155,-22.04 C 2861.02,240 2846.02,165 2876.02,90 c 26.99,-68.0117 111.99,-98.98047 187.96,-70 18.01,6.0195 26.02,6.0195 26.02,-1.0195 0,-5.9688 15,-8.9805 33.01,-6.9922 L 3155,15 3158.01,233.012 3160,450 h -70 z M 3068.01,265 C 3088.98,258.98 3090,253.012 3090,171.02 3090,68.9805 3081.02,55 3018.01,55 2961.02,55 2930,93.0117 2930,161.02 c 0,61.992 13.01,86.992 53.01,103.98 30.97,13.98 36.99,13.98 85,0 z"
         style="fill:#ffffff;fill-opacity:1;fill-rule:nonzero;stroke:none"
         id="path20" /><path
         d="M 131.988,266.02 C 135,96.0195 136.02,91.0195 160,63.9805 c 13.98,-13.9805 38.98,-32.961 56.988,-40 46.992,-20.00003 140,-16.99222 190,5 C 473.012,60 480,81.9883 480,275 V 440 H 420 L 418.98,298.012 C 418.98,118.98 410,90 353.012,70 315,56.9883 305,56.9883 268.012,70 206.02,91.9883 200,110 200,288.012 V 440 h -71.02 z"
         style="fill:#ffffff;fill-opacity:1;fill-rule:nonzero;stroke:none"
         id="path22" /><path
         d="M 3650,225 V 10 h 70 v 170 h 48.01 C 3878.98,180 3940,225 3940,306.02 3940,408.012 3893.98,440 3745,440 h -95 z m 206.99,138.98 C 3878.98,335 3873.01,281.988 3845,255 c -18.98,-20 -33.98,-25 -75,-25 h -50 v 78.98 c 0,79.032 0,80 28.01,83.008 40.97,5 95,-8.976 108.98,-28.008 z"
         style="fill:#ffffff;fill-opacity:1;fill-rule:nonzero;stroke:none"
         id="path24" /><path
         d="m 900,390 c 0,-26.988 3.012,-30 30,-30 26.988,0 30,3.012 30,30 0,26.988 -3.012,30 -30,30 -26.988,0 -30,-3.012 -30,-30 z"
         style="fill:#ffffff;fill-opacity:1;fill-rule:nonzero;stroke:none"
         id="path26" /><path
         d="m 2110,390 c 0,-28.98 1.99,-31.02 31.99,-28.012 28.01,1.992 33.01,6.992 33.01,28.012 0,21.02 -5,26.02 -31.99,28.012 C 2111.99,421.02 2110,418.98 2110,390 Z"
         style="fill:#ffffff;fill-opacity:1;fill-rule:nonzero;stroke:none"
         id="path28" /><path
         d="m 4500,390 c 0,-28.012 3.01,-30 35,-30 31.99,0 35,1.988 35,30 0,28.012 -3.01,30 -35,30 -31.99,0 -35,-1.988 -35,-30 z"
         style="fill:#ffffff;fill-opacity:1;fill-rule:nonzero;stroke:none"
         id="path30" /><path
         d="m 2288.01,378.98 c -10,-5 -18.01,-20.968 -18.01,-33.98 0,-18.012 -6.99,-26.02 -26.02,-31.02 -30.97,-7.96 -28.98,-37.96 4.03,-41.992 C 2268.98,268.98 2270,265 2270,156.02 2270,25 2278.01,10 2348.98,10 2400,10 2430,23.9805 2430,48.0117 c 0,15 -8.01,18.0078 -46.99,18.0078 L 2335,65 2331.99,168.012 2328.98,270 H 2375 c 41.02,0 45,1.988 45,25 0,23.012 -3.98,25 -45,25 -45,0 -45,0 -45,35 0,36.988 -11.02,43.012 -41.99,23.98 z"
         style="fill:#ffffff;fill-opacity:1;fill-rule:nonzero;stroke:none"
         id="path32" /><path
         d="M 560,165 V 10 h 60 v 115 c 0,110 1.02,115 23.98,130 15,10 40,15 68.008,13.012 L 755,265 758.012,138.012 761.02,10 H 830 v 130 c 0,126.02 -1.02,131.988 -25,155 -28.98,28.98 -93.98,33.98 -150,11.02 -31.02,-13.008 -35,-13.008 -35,0 C 620,315 610,320 590,320 h -30 z"
         style="fill:#ffffff;fill-opacity:1;fill-rule:nonzero;stroke:none"
         id="path34" /><path
         d="M 900,165 V 10 h 60 v 310 h -60 z"
         style="fill:#ffffff;fill-opacity:1;fill-rule:nonzero;stroke:none"
         id="path36" /><path
         d="m 1000,315 c 0,-3.012 25,-71.988 56.99,-155 l 56.02,-150 h 33.01 c 31.99,0 31.99,0 82.96,131.02 28.01,71.992 54.03,141.992 57.04,155.968 5.97,21.992 3.98,24.032 -21.02,21.024 -26.02,-3.012 -31.02,-11.992 -68.98,-115 -22.04,-61.992 -43.01,-110.0003 -47.04,-105.0003 -2.96,3.9763 -23.98,55.0003 -45,115.0003 C 1066.02,320 1066.02,320 1033.01,320 1015,320 1000,318.012 1000,315 Z"
         style="fill:#ffffff;fill-opacity:1;fill-rule:nonzero;stroke:none"
         id="path38" /><path
         d="M 1385,311.02 C 1330,286.988 1293.98,206.988 1305,136.988 1318.98,53.0117 1370,10 1458.01,10 1531.99,10 1580,31.9883 1580,65 c 0,25 -1.02,25 -26.99,11.0195 C 1480,38.9805 1400,53.0117 1380,106.02 c -20,51.992 -13.98,55.968 98.98,56.992 l 103.01,0.968 -5,49.032 c -5.97,70.968 -38.01,100 -113.98,103.976 -31.99,1.024 -66.99,-0.968 -78.01,-5.968 z m 101.02,-39.032 c 10.97,-6.988 33.98,-45 33.98,-55.968 0,-3.008 -33.98,-6.02 -75,-6.02 h -76.02 l 16.02,28.98 c 8.01,16.02 20,31.02 26.99,34.032 20,8.008 61.99,8.008 74.03,-1.024 z"
         style="fill:#ffffff;fill-opacity:1;fill-rule:nonzero;stroke:none"
         id="path40" /><path
         d="m 1635,308.012 c -3.01,-6.992 -3.98,-76.024 -1.99,-153.012 L 1635,15 1668.01,11.9883 1700,8.98047 V 118.012 c 0,98.008 1.99,110.968 21.02,128.008 12.96,11.992 33.98,17.96 57.96,17.96 35,-0.968 38.01,1.02 37.04,25 -1.02,22.04 -6.02,27.04 -33.01,29.032 C 1765,320 1740,313.98 1726.02,303.98 c -24.03,-15 -26.02,-15 -26.02,0 0,20 -58.01,23.008 -65,4.032 z"
         style="fill:#ffffff;fill-opacity:1;fill-rule:nonzero;stroke:none"
         id="path42" /><path
         d="m 1868.98,291.02 c -30,-30 -37.96,-72.04 -18.98,-101.02 5,-8.012 38.01,-28.012 71.99,-45 51.99,-25 63.01,-33.98 63.01,-55 0,-36.9883 -43.01,-48.9805 -103.01,-28.0117 -25,10 -48.01,15 -50.97,13.0117 -2.04,-3.0117 0.97,-16.0195 6.99,-28.9805 13.01,-29.0312 60,-41.0195 130,-33.0078 53.98,5.9688 81.99,33.0078 81.99,78.9766 C 2050,140 2031.99,160 1963.98,190 c -47.96,21.988 -63.98,33.98 -63.98,48.98 0,38.008 60,49.032 126.02,24.032 21.99,-8.012 16.99,35 -5,46.988 -11.02,5 -43.01,10 -71.02,10 -43.98,0 -56.02,-5 -81.02,-28.98 z"
         style="fill:#ffffff;fill-opacity:1;fill-rule:nonzero;stroke:none"
         id="path44" /><path
         d="M 2110,163.98 V 8.98047 L 2143.01,11.9883 2175,15 2178.01,168.012 2181.02,320 H 2110 Z"
         style="fill:#ffffff;fill-opacity:1;fill-rule:nonzero;stroke:none"
         id="path46" /><path
         d="M 2525,311.02 C 2470,286.988 2433.98,206.988 2443.98,135 2456.02,55 2511.99,10 2600,10 c 70,0 115,20 118.01,53.0117 L 2720,88.9805 2673.98,68.0117 C 2596.99,35 2510,70 2510,135 v 25 h 213.01 l -5,51.02 c -6.99,72.96 -38.01,101.992 -115,105.968 -31.99,1.024 -66.99,-0.968 -78.01,-5.968 z m 101.02,-39.032 c 15,-10 36.99,-53.008 30,-58.976 -5,-6.024 -138.01,-5 -143.01,0.968 -1.02,1.02 6.99,16.02 16.99,34.032 16.02,25.968 26.02,31.988 51.99,31.988 18.01,0 38.01,-3.98 44.03,-8.012 z"
         style="fill:#ffffff;fill-opacity:1;fill-rule:nonzero;stroke:none"
         id="path48" /><path
         d="m 3276.02,300 c -41.02,-26.988 -65,-76.02 -66.02,-135 0,-98.9805 56.99,-155 160,-155 70,0 103.98,16.9883 108.01,53.0117 l 3.01,28.0078 -26.02,-17.039 c -16.02,-10 -46.99,-17.961 -75,-17.961 -58.98,-1.0195 -100,30 -100,75.9685 V 160 l 73.01,1.02 c 130,1.992 131.99,1.992 135,26.992 5.97,40 -18.01,91.988 -51.99,113.008 -42.04,25.968 -121.02,25 -160,-1.02 z m 125.97,-36.988 c 10,-9.032 18.01,-24.032 18.01,-35 0,-16.024 -8.98,-18.012 -70,-18.012 -38.01,0 -70,3.98 -70,8.98 0,4.032 8.98,20 21.02,35 23.98,31.02 71.99,35 100.97,9.032 z"
         style="fill:#ffffff;fill-opacity:1;fill-rule:nonzero;stroke:none"
         id="path50" /><path
         d="m 4008.01,308.012 c -20,-6.992 -28.01,-16.992 -28.01,-34.032 0,-15.968 3.98,-22.96 11.02,-17.96 21.99,12.96 82.96,22.96 110.97,16.992 C 4125,268.98 4130,261.988 4130,240 c 0,-25 -6.99,-30 -71.99,-56.02 -55,-21.992 -76.02,-35.968 -86.02,-56.992 -40,-83.0075 56.99,-148.9763 148.01,-101.988 25,13.0117 28.98,13.0117 33.98,-1.0195 4.03,-10.9688 17.04,-13.9805 48.01,-11.9922 35,1.9922 44.03,6.9922 46.02,24.0312 1.99,15.9688 -1.99,20 -20,20 C 4206.02,55 4205,58.0117 4203.01,155 c -4.03,126.02 -6.99,138.98 -38.01,153.012 -31.02,13.976 -118.98,13.976 -156.99,0 z M 4131.99,116.988 C 4128.98,68.0117 4108.01,48.0117 4065,51.9883 4038.01,55 4035,58.0117 4035,90 c 0,31.988 3.98,36.988 45,56.988 25,11.992 46.99,19.032 48.98,16.992 3.01,-2.96 4.03,-23.98 3.01,-46.992 z"
         style="fill:#ffffff;fill-opacity:1;fill-rule:nonzero;stroke:none"
         id="path52" /><path
         d="M 4283.98,306.988 C 4281.99,300 4281.02,231.02 4281.99,155 L 4285,15 4318.01,11.9883 4350,8.98047 V 118.012 C 4350,245 4361.02,265 4431.02,265 c 36.99,0 40,1.988 36.99,25 -1.99,20 -9.03,26.02 -35,28.012 C 4415,320 4390,313.98 4376.02,303.98 c -24.03,-15 -26.02,-15 -26.02,0 0,20 -58.01,23.008 -66.02,3.008 z"
         style="fill:#ffffff;fill-opacity:1;fill-rule:nonzero;stroke:none"
         id="path54" /><path
         d="M 4500,165 V 10 h 70 v 310 h -70 z"
         style="fill:#ffffff;fill-opacity:1;fill-rule:nonzero;stroke:none"
         id="path56" /><path
         d="m 4683.01,310 c -29.03,-11.988 -56.02,-65 -46.99,-93.012 10,-35 30.97,-53.008 81.99,-71.988 43.01,-16.02 71.99,-38.012 71.99,-56.0195 0,-3.9805 -6.99,-15 -16.02,-22.961 -18.98,-20 -70.97,-20 -103.98,-1.0195 -33.98,20 -40,18.9805 -40,-8.0117 C 4630,26.0195 4666.02,10 4736.02,10 c 47.96,0 60,3.9805 85,28.9805 30.97,32.039 35.97,55 17.96,94.9995 -10.97,24.032 -31.99,36.02 -105.97,66.02 -25,8.98 -33.01,18.98 -33.01,36.02 0,35 38.01,50.968 88.98,35.968 50,-15.968 51.02,-15 51.02,8.012 0,13.012 -10,23.98 -26.02,30 -30.97,11.988 -100.97,11.988 -130.97,0 z"
         style="fill:#ffffff;fill-opacity:1;fill-rule:nonzero;stroke:none"
         id="path58" /></g></g></svg>
